<?xml version="1.0" encoding="UTF-8" standalone="no"?>
<!DOCTYPE svg PUBLIC "-//W3C//DTD SVG 1.1//EN" 
  "http://www.w3.org/Graphics/SVG/1.1/DTD/svg11.dtd">
<svg width="20" height="32"
	 xmlns="http://www.w3.org/2000/svg" version="1.1">
 <path d="  M 0,3  L 2,3  L 2,2  L 0,2  Z  " style="fill:rgb(255, 0, 0); fill-opacity:0.004; stroke:none;" />
 <path d="  M 7,1  L 7,2  L 8,2  L 8,1  Z  " style="fill:rgb(255, 0, 0); fill-opacity:0.004; stroke:none;" />
 <path d="  M 11,0  L 10,0  L 10,1  L 11,1  Z  " style="fill:rgb(255, 0, 0); fill-opacity:0.004; stroke:none;" />
 <path d="  M 19,1  L 19,0  L 18,0  L 18,1  Z  " style="fill:rgb(255, 0, 0); fill-opacity:0.004; stroke:none;" />
 <path d="  M 19,32  L 19,31  L 18,31  L 18,32  Z  " style="fill:rgb(255, 0, 0); fill-opacity:0.004; stroke:none;" />
 <path d="  M 1,3  L 0,3  L 0,4  L 1,4  Z  " style="fill:rgb(255, 0, 0); fill-opacity:0.027; stroke:none;" />
 <path d="  M 5,31  L 5,32  L 13,32  L 13,31  Z  " style="fill:rgb(255, 0, 0); fill-opacity:0.027; stroke:none;" />
 <path d="  M 12,1  L 11,1  L 11,2  L 12,2  Z  " style="fill:rgb(255, 0, 0); fill-opacity:0.027; stroke:none;" />
 <path d="  M 1,5  L 1,4  L 0,4  L 0,5  Z  " style="fill:rgb(255, 0, 0); fill-opacity:0.071; stroke:none;" />
 <path d="  M 3,3  L 3,4  L 4,4  L 4,3  Z  " style="fill:rgb(255, 0, 0); fill-opacity:0.071; stroke:none;" />
 <path d="  M 16,3  L 17,3  L 17,2  L 16,2  Z  " style="fill:rgb(255, 0, 0); fill-opacity:0.071; stroke:none;" />
 <path d="  M 1,6  L 1,5  L 0,5  L 0,6  Z  " style="fill:rgb(255, 0, 0); fill-opacity:0.137; stroke:none;" />
 <path d="  M 19,6  L 20,6  L 20,5  L 19,5  Z  " style="fill:rgb(255, 0, 0); fill-opacity:0.137; stroke:none;" />
 <path d="  M 0,6  L 0,7  L 1,7  L 1,6  Z  " style="fill:rgb(255, 0, 0); fill-opacity:0.224; stroke:none;" />
 <path d="  M 17,29  L 17,28  L 16,28  L 16,29  Z  " style="fill:rgb(255, 0, 0); fill-opacity:0.224; stroke:none;" />
 <path d="  M 17,28  L 18,28  L 18,27  L 17,27  Z  " style="fill:rgb(255, 0, 0); fill-opacity:0.224; stroke:none;" />
 <path d="  M 1,7  L 0,7  L 0,8  L 1,8  Z  " style="fill:rgb(255, 0, 0); fill-opacity:0.329; stroke:none;" />
 <path d="  M 2,29  L 3,29  L 3,28  L 2,28  Z  " style="fill:rgb(255, 0, 0); fill-opacity:0.329; stroke:none;" />
 <path d="  M 19,17  L 19,11  L 18,11  L 18,17  Z  " style="fill:rgb(255, 0, 0); fill-opacity:0.329; stroke:none;" />
 <path d="  M 0,8  L 0,9  L 1,9  L 1,8  Z  " style="fill:rgb(255, 0, 0); fill-opacity:0.427; stroke:none;" />
 <path d="  M 0,10  L 1,10  L 1,9  L 0,9  Z  " style="fill:rgb(255, 0, 0); fill-opacity:0.518; stroke:none;" />
 <path d="  M 0,11  L 1,11  L 1,10  L 0,10  Z  " style="fill:rgb(255, 0, 0); fill-opacity:0.600; stroke:none;" />
 <path d="  M 9,18  L 10,18  L 10,17  L 9,17  Z  " style="fill:rgb(255, 0, 0); fill-opacity:0.600; stroke:none;" />
 <path d="  M 10,21  L 9,21  L 9,22  L 10,22  Z  " style="fill:rgb(255, 0, 0); fill-opacity:0.600; stroke:none;" />
 <path d="  M 0,11  L 0,12  L 1,12  L 1,11  Z  " style="fill:rgb(255, 153, 153); fill-opacity:0.835; stroke:none;" />
 <path d="  M 11,18  L 10,18  L 10,19  L 11,19  Z  " style="fill:rgb(255, 153, 153); fill-opacity:0.835; stroke:none;" />
 <path d="  M 11,20  L 10,20  L 10,21  L 11,21  Z  " style="fill:rgb(255, 153, 153); fill-opacity:0.835; stroke:none;" />
 <path d="  M 17,11  L 17,10  L 16,10  L 16,11  Z  " style="fill:rgb(255, 153, 153); fill-opacity:0.835; stroke:none;" />
 <path d="  M 4,25  L 4,24  L 3,24  L 3,15  L 4,15  L 4,14  L 12,14  L 12,25  Z  M 3,9  L 4,9  L 4,8  L 14,8  L 14,12  L 3,12  Z  M 16,27  L 16,7  L 2,7  L 2,8  L 1,8  L 1,12  L 0,12  L 0,17  L 1,17  L 1,27  Z  " style="fill:rgb(255, 255, 255); fill-opacity:1.000; stroke:none;" />
 <path d="  M 5,17  L 6,17  L 6,16  L 5,16  Z  " style="fill:rgb(255, 255, 255); fill-opacity:1.000; stroke:none;" />
 <path d="  M 6,19  L 6,18  L 5,18  L 5,19  Z  " style="fill:rgb(255, 255, 255); fill-opacity:1.000; stroke:none;" />
 <path d="  M 6,20  L 5,20  L 5,21  L 6,21  Z  " style="fill:rgb(255, 255, 255); fill-opacity:1.000; stroke:none;" />
 <path d="  M 5,23  L 6,23  L 6,22  L 5,22  Z  " style="fill:rgb(255, 255, 255); fill-opacity:1.000; stroke:none;" />
 <path d="  M 8,16  L 7,16  L 7,17  L 8,17  Z  " style="fill:rgb(255, 255, 255); fill-opacity:1.000; stroke:none;" />
 <path d="  M 7,19  L 8,19  L 8,18  L 7,18  Z  " style="fill:rgb(255, 255, 255); fill-opacity:1.000; stroke:none;" />
 <path d="  M 8,20  L 7,20  L 7,21  L 8,21  Z  " style="fill:rgb(255, 255, 255); fill-opacity:1.000; stroke:none;" />
 <path d="  M 7,22  L 7,23  L 8,23  L 8,22  Z  " style="fill:rgb(255, 255, 255); fill-opacity:1.000; stroke:none;" />
 <path d="  M 1,17  L 0,17  L 0,18  L 1,18  Z  " style="fill:rgb(255, 0, 0); fill-opacity:0.608; stroke:none;" />
 <path d="  M 0,18  L 0,19  L 1,19  L 1,18  Z  " style="fill:rgb(255, 0, 0); fill-opacity:0.561; stroke:none;" />
 <path d="  M 0,20  L 1,20  L 1,19  L 0,19  Z  " style="fill:rgb(255, 0, 0); fill-opacity:0.522; stroke:none;" />
 <path d="  M 9,18  L 9,17  L 7,17  L 7,18  Z  " style="fill:rgb(255, 0, 0); fill-opacity:0.522; stroke:none;" />
 <path d="  M 9,22  L 9,21  L 7,21  L 7,22  Z  " style="fill:rgb(255, 0, 0); fill-opacity:0.522; stroke:none;" />
 <path d="  M 1,20  L 0,20  L 0,21  L 1,21  Z  " style="fill:rgb(255, 0, 0); fill-opacity:0.502; stroke:none;" />
 <path d="  M 0,22  L 0,24  L 1,24  L 1,22  Z  " style="fill:rgb(255, 0, 0); fill-opacity:0.502; stroke:none;" />
 <path d="  M 18,14  L 17,14  L 17,15  L 18,15  Z  " style="fill:rgb(255, 0, 0); fill-opacity:0.502; stroke:none;" />
 <path d="  M 18,20  L 18,19  L 17,19  L 17,20  Z  " style="fill:rgb(255, 0, 0); fill-opacity:0.502; stroke:none;" />
 <path d="  M 1,22  L 1,21  L 0,21  L 0,22  Z  " style="fill:rgb(255, 0, 0); fill-opacity:0.494; stroke:none;" />
 <path d="  M 18,12  L 17,12  L 17,13  L 18,13  Z  " style="fill:rgb(255, 0, 0); fill-opacity:0.494; stroke:none;" />
 <path d="  M 0,25  L 1,25  L 1,24  L 0,24  Z  " style="fill:rgb(255, 0, 0); fill-opacity:0.482; stroke:none;" />
 <path d="  M 17,22  L 18,22  L 18,21  L 17,21  Z  " style="fill:rgb(255, 0, 0); fill-opacity:0.482; stroke:none;" />
 <path d="  M 0,26  L 1,26  L 1,25  L 0,25  Z  " style="fill:rgb(255, 0, 0); fill-opacity:0.435; stroke:none;" />
 <path d="  M 13,28  L 12,28  L 12,29  L 13,29  Z  " style="fill:rgb(255, 0, 0); fill-opacity:0.435; stroke:none;" />
 <path d="  M 0,27  L 1,27  L 1,26  L 0,26  Z  " style="fill:rgb(255, 0, 0); fill-opacity:0.365; stroke:none;" />
 <path d="  M 8,5  L 7,5  L 7,6  L 8,6  Z  " style="fill:rgb(255, 0, 0); fill-opacity:0.365; stroke:none;" />
 <path d="  M 0,28  L 1,28  L 1,27  L 0,27  Z  " style="fill:rgb(255, 0, 0); fill-opacity:0.267; stroke:none;" />
 <path d="  M 3,6  L 3,5  L 2,5  L 2,6  Z  " style="fill:rgb(255, 0, 0); fill-opacity:0.267; stroke:none;" />
 <path d="  M 0,29  L 1,29  L 1,28  L 0,28  Z  " style="fill:rgb(255, 0, 0); fill-opacity:0.173; stroke:none;" />
 <path d="  M 4,5  L 4,4  L 3,4  L 3,5  Z  " style="fill:rgb(255, 0, 0); fill-opacity:0.173; stroke:none;" />
 <path d="  M 16,30  L 16,29  L 15,29  L 15,30  Z  " style="fill:rgb(255, 0, 0); fill-opacity:0.173; stroke:none;" />
 <path d="  M 18,26  L 18,27  L 19,27  L 19,26  Z  " style="fill:rgb(255, 0, 0); fill-opacity:0.173; stroke:none;" />
 <path d="  M 1,29  L 0,29  L 0,30  L 1,30  Z  " style="fill:rgb(255, 0, 0); fill-opacity:0.094; stroke:none;" />
 <path d="  M 1,31  L 1,30  L 0,30  L 0,31  Z  " style="fill:rgb(255, 0, 0); fill-opacity:0.043; stroke:none;" />
 <path d="  M 2,4  L 2,3  L 1,3  L 1,4  Z  " style="fill:rgb(255, 0, 0); fill-opacity:0.043; stroke:none;" />
 <path d="  M 10,3  L 10,2  L 9,2  L 9,3  Z  " style="fill:rgb(255, 0, 0); fill-opacity:0.043; stroke:none;" />
 <path d="  M 16,2  L 16,1  L 14,1  L 14,2  Z  " style="fill:rgb(255, 0, 0); fill-opacity:0.043; stroke:none;" />
 <path d="  M 18,29  L 18,30  L 19,30  L 19,29  Z  " style="fill:rgb(255, 0, 0); fill-opacity:0.043; stroke:none;" />
 <path d="  M 0,32  L 1,32  L 1,31  L 0,31  Z  " style="fill:rgb(255, 0, 0); fill-opacity:0.008; stroke:none;" />
 <path d="  M 3,3  L 3,2  L 2,2  L 2,3  Z  " style="fill:rgb(255, 0, 0); fill-opacity:0.008; stroke:none;" />
 <path d="  M 9,2  L 9,1  L 8,1  L 8,2  Z  " style="fill:rgb(255, 0, 0); fill-opacity:0.008; stroke:none;" />
 <path d="  M 12,1  L 12,0  L 11,0  L 11,1  Z  " style="fill:rgb(255, 0, 0); fill-opacity:0.008; stroke:none;" />
 <path d="  M 17,0  L 17,1  L 18,1  L 18,0  Z  " style="fill:rgb(255, 0, 0); fill-opacity:0.008; stroke:none;" />
 <path d="  M 18,32  L 18,31  L 17,31  L 17,32  Z  " style="fill:rgb(255, 0, 0); fill-opacity:0.008; stroke:none;" />
 <path d="  M 19,30  L 19,31  L 20,31  L 20,30  Z  " style="fill:rgb(255, 0, 0); fill-opacity:0.008; stroke:none;" />
 <path d="  M 1,4  L 1,5  L 2,5  L 2,4  Z  " style="fill:rgb(255, 0, 0); fill-opacity:0.110; stroke:none;" />
 <path d="  M 6,30  L 5,30  L 5,31  L 6,31  Z  " style="fill:rgb(255, 0, 0); fill-opacity:0.110; stroke:none;" />
 <path d="  M 12,31  L 13,31  L 13,30  L 12,30  Z  " style="fill:rgb(255, 0, 0); fill-opacity:0.110; stroke:none;" />
 <path d="  M 17,3  L 17,4  L 18,4  L 18,3  Z  " style="fill:rgb(255, 0, 0); fill-opacity:0.110; stroke:none;" />
 <path d="  M 1,6  L 2,6  L 2,5  L 1,5  Z  " style="fill:rgb(255, 0, 0); fill-opacity:0.208; stroke:none;" />
 <path d="  M 6,4  L 6,5  L 7,5  L 7,4  Z  " style="fill:rgb(255, 0, 0); fill-opacity:0.208; stroke:none;" />
 <path d="  M 15,29  L 14,29  L 14,30  L 15,30  Z  " style="fill:rgb(255, 0, 0); fill-opacity:0.208; stroke:none;" />
 <path d="  M 19,25  L 18,25  L 18,26  L 19,26  Z  " style="fill:rgb(255, 0, 0); fill-opacity:0.208; stroke:none;" />
 <path d="  M 2,7  L 2,6  L 1,6  L 1,7  Z  " style="fill:rgb(255, 0, 0); fill-opacity:0.333; stroke:none;" />
 <path d="  M 4,5  L 4,6  L 5,6  L 5,5  Z  " style="fill:rgb(255, 0, 0); fill-opacity:0.333; stroke:none;" />
 <path d="  M 2,7  L 1,7  L 1,8  L 2,8  Z  " style="fill:rgb(255, 219, 219); fill-opacity:0.871; stroke:none;" />
 <path d="  M 1,28  L 2,28  L 2,27  L 1,27  Z  " style="fill:rgb(255, 117, 117); fill-opacity:0.549; stroke:none;" />
 <path d="  M 1,28  L 1,29  L 2,29  L 2,28  Z  " style="fill:rgb(255, 0, 0); fill-opacity:0.259; stroke:none;" />
 <path d="  M 9,4  L 9,5  L 10,5  L 10,4  Z  " style="fill:rgb(255, 0, 0); fill-opacity:0.259; stroke:none;" />
 <path d="  M 19,24  L 19,23  L 18,23  L 18,24  Z  " style="fill:rgb(255, 0, 0); fill-opacity:0.259; stroke:none;" />
 <path d="  M 1,30  L 2,30  L 2,29  L 1,29  Z  " style="fill:rgb(255, 0, 0); fill-opacity:0.145; stroke:none;" />
 <path d="  M 17,28  L 17,29  L 18,29  L 18,28  Z  " style="fill:rgb(255, 0, 0); fill-opacity:0.145; stroke:none;" />
 <path d="  M 2,31  L 2,30  L 1,30  L 1,31  Z  " style="fill:rgb(255, 0, 0); fill-opacity:0.063; stroke:none;" />
 <path d="  M 18,2  L 17,2  L 17,3  L 18,3  Z  " style="fill:rgb(255, 0, 0); fill-opacity:0.063; stroke:none;" />
 <path d="  M 2,31  L 1,31  L 1,32  L 2,32  Z  " style="fill:rgb(255, 0, 0); fill-opacity:0.016; stroke:none;" />
 <path d="  M 5,3  L 7,3  L 7,2  L 5,2  Z  " style="fill:rgb(255, 0, 0); fill-opacity:0.016; stroke:none;" />
 <path d="  M 13,0  L 13,1  L 16,1  L 16,0  Z  " style="fill:rgb(255, 0, 0); fill-opacity:0.016; stroke:none;" />
 <path d="  M 16,32  L 17,32  L 17,31  L 16,31  Z  " style="fill:rgb(255, 0, 0); fill-opacity:0.016; stroke:none;" />
 <path d="  M 19,1  L 19,2  L 20,2  L 20,1  Z  " style="fill:rgb(255, 0, 0); fill-opacity:0.016; stroke:none;" />
 <path d="  M 2,3  L 2,4  L 3,4  L 3,3  Z  " style="fill:rgb(255, 0, 0); fill-opacity:0.059; stroke:none;" />
 <path d="  M 19,4  L 20,4  L 20,3  L 19,3  Z  " style="fill:rgb(255, 0, 0); fill-opacity:0.059; stroke:none;" />
 <path d="  M 3,5  L 3,4  L 2,4  L 2,5  Z  " style="fill:rgb(255, 0, 0); fill-opacity:0.149; stroke:none;" />
 <path d="  M 11,3  L 10,3  L 10,4  L 11,4  Z  " style="fill:rgb(255, 0, 0); fill-opacity:0.149; stroke:none;" />
 <path d="  M 2,6  L 2,7  L 3,7  L 3,6  Z  " style="fill:rgb(255, 113, 113); fill-opacity:0.569; stroke:none;" />
 <path d="  M 3,28  L 3,27  L 2,27  L 2,28  Z  " style="fill:rgb(255, 170, 170); fill-opacity:0.753; stroke:none;" />
 <path d="  M 3,29  L 2,29  L 2,30  L 3,30  Z  " style="fill:rgb(255, 0, 0); fill-opacity:0.188; stroke:none;" />
 <path d="  M 4,4  L 4,5  L 5,5  L 5,4  Z  " style="fill:rgb(255, 0, 0); fill-opacity:0.188; stroke:none;" />
 <path d="  M 20,17  L 19,17  L 19,18  L 20,18  Z  " style="fill:rgb(255, 0, 0); fill-opacity:0.188; stroke:none;" />
 <path d="  M 2,30  L 2,31  L 3,31  L 3,30  Z  " style="fill:rgb(255, 0, 0); fill-opacity:0.082; stroke:none;" />
 <path d="  M 5,3  L 5,4  L 6,4  L 6,3  Z  " style="fill:rgb(255, 0, 0); fill-opacity:0.082; stroke:none;" />
 <path d="  M 15,2  L 14,2  L 14,3  L 15,3  Z  " style="fill:rgb(255, 0, 0); fill-opacity:0.082; stroke:none;" />
 <path d="  M 18,29  L 17,29  L 17,30  L 18,30  Z  " style="fill:rgb(255, 0, 0); fill-opacity:0.082; stroke:none;" />
 <path d="  M 19,29  L 19,28  L 18,28  L 18,29  Z  " style="fill:rgb(255, 0, 0); fill-opacity:0.082; stroke:none;" />
 <path d="  M 2,32  L 3,32  L 3,31  L 2,31  Z  " style="fill:rgb(255, 0, 0); fill-opacity:0.020; stroke:none;" />
 <path d="  M 10,1  L 10,2  L 11,2  L 11,1  Z  " style="fill:rgb(255, 0, 0); fill-opacity:0.020; stroke:none;" />
 <path d="  M 16,32  L 16,31  L 15,31  L 15,32  Z  " style="fill:rgb(255, 0, 0); fill-opacity:0.020; stroke:none;" />
 <path d="  M 19,31  L 19,30  L 18,30  L 18,31  Z  " style="fill:rgb(255, 0, 0); fill-opacity:0.020; stroke:none;" />
 <path d="  M 20,29  L 19,29  L 19,30  L 20,30  Z  " style="fill:rgb(255, 0, 0); fill-opacity:0.020; stroke:none;" />
 <path d="  M 3,2  L 3,3  L 5,3  L 5,2  Z  " style="fill:rgb(255, 0, 0); fill-opacity:0.012; stroke:none;" />
 <path d="  M 9,2  L 10,2  L 10,1  L 9,1  Z  " style="fill:rgb(255, 0, 0); fill-opacity:0.012; stroke:none;" />
 <path d="  M 13,1  L 13,0  L 12,0  L 12,1  Z  " style="fill:rgb(255, 0, 0); fill-opacity:0.012; stroke:none;" />
 <path d="  M 17,1  L 17,0  L 16,0  L 16,1  Z  " style="fill:rgb(255, 0, 0); fill-opacity:0.012; stroke:none;" />
 <path d="  M 3,6  L 4,6  L 4,5  L 3,5  Z  " style="fill:rgb(255, 0, 0); fill-opacity:0.310; stroke:none;" />
 <path d="  M 18,27  L 18,26  L 17,26  L 17,27  Z  " style="fill:rgb(255, 0, 0); fill-opacity:0.310; stroke:none;" />
 <path d="  M 3,7  L 4,7  L 4,6  L 3,6  Z  " style="fill:rgb(255, 105, 105); fill-opacity:0.612; stroke:none;" />
 <path d="  M 8,19  L 9,19  L 9,18  L 8,18  Z  " style="fill:rgb(255, 105, 105); fill-opacity:0.612; stroke:none;" />
 <path d="  M 9,20  L 8,20  L 8,21  L 9,21  Z  " style="fill:rgb(255, 105, 105); fill-opacity:0.612; stroke:none;" />
 <path d="  M 4,9  L 3,9  L 3,12  L 4,12  Z  " style="fill:rgb(255, 212, 212); fill-opacity:0.933; stroke:none;" />
 <path d="  M 4,15  L 3,15  L 3,24  L 4,24  Z  " style="fill:rgb(255, 206, 206); fill-opacity:0.925; stroke:none;" />
 <path d="  M 4,14  L 4,15  L 12,15  L 12,14  Z  " style="fill:rgb(255, 206, 206); fill-opacity:0.925; stroke:none;" />
 <path d="  M 12,25  L 12,24  L 4,24  L 4,25  Z  " style="fill:rgb(255, 206, 206); fill-opacity:0.925; stroke:none;" />
 <path d="  M 9,16  L 9,17  L 10,17  L 10,16  Z  " style="fill:rgb(255, 206, 206); fill-opacity:0.925; stroke:none;" />
 <path d="  M 9,23  L 10,23  L 10,22  L 9,22  Z  " style="fill:rgb(255, 206, 206); fill-opacity:0.925; stroke:none;" />
 <path d="  M 4,27  L 3,27  L 3,28  L 4,28  Z  " style="fill:rgb(255, 162, 162); fill-opacity:0.792; stroke:none;" />
 <path d="  M 17,26  L 17,25  L 16,25  L 16,26  Z  " style="fill:rgb(255, 162, 162); fill-opacity:0.792; stroke:none;" />
 <path d="  M 3,29  L 4,29  L 4,28  L 3,28  Z  " style="fill:rgb(255, 0, 0); fill-opacity:0.388; stroke:none;" />
 <path d="  M 3,29  L 3,30  L 4,30  L 4,29  Z  " style="fill:rgb(255, 0, 0); fill-opacity:0.220; stroke:none;" />
 <path d="  M 7,5  L 8,5  L 8,4  L 7,4  Z  " style="fill:rgb(255, 0, 0); fill-opacity:0.220; stroke:none;" />
 <path d="  M 4,30  L 3,30  L 3,31  L 4,31  Z  " style="fill:rgb(255, 0, 0); fill-opacity:0.098; stroke:none;" />
 <path d="  M 20,5  L 20,4  L 19,4  L 19,5  Z  " style="fill:rgb(255, 0, 0); fill-opacity:0.098; stroke:none;" />
 <path d="  M 3,32  L 5,32  L 5,31  L 3,31  Z  " style="fill:rgb(255, 0, 0); fill-opacity:0.024; stroke:none;" />
 <path d="  M 7,3  L 8,3  L 8,2  L 7,2  Z  " style="fill:rgb(255, 0, 0); fill-opacity:0.024; stroke:none;" />
 <path d="  M 15,32  L 15,31  L 13,31  L 13,32  Z  " style="fill:rgb(255, 0, 0); fill-opacity:0.024; stroke:none;" />
 <path d="  M 18,2  L 19,2  L 19,1  L 18,1  Z  " style="fill:rgb(255, 0, 0); fill-opacity:0.024; stroke:none;" />
 <path d="  M 5,3  L 4,3  L 4,4  L 5,4  Z  " style="fill:rgb(255, 0, 0); fill-opacity:0.078; stroke:none;" />
 <path d="  M 13,2  L 13,3  L 14,3  L 14,2  Z  " style="fill:rgb(255, 0, 0); fill-opacity:0.078; stroke:none;" />
 <path d="  M 16,2  L 15,2  L 15,3  L 16,3  Z  " style="fill:rgb(255, 0, 0); fill-opacity:0.078; stroke:none;" />
 <path d="  M 16,31  L 16,30  L 15,30  L 15,31  Z  " style="fill:rgb(255, 0, 0); fill-opacity:0.078; stroke:none;" />
 <path d="  M 19,27  L 20,27  L 20,26  L 19,26  Z  " style="fill:rgb(255, 0, 0); fill-opacity:0.078; stroke:none;" />
 <path d="  M 5,7  L 5,6  L 4,6  L 4,7  Z  " style="fill:rgb(255, 101, 101); fill-opacity:0.631; stroke:none;" />
 <path d="  M 14,9  L 14,8  L 4,8  L 4,9  Z  " style="fill:rgb(255, 209, 209); fill-opacity:0.929; stroke:none;" />
 <path d="  M 4,9  L 4,11  L 13,11  L 13,9  Z  " style="fill:rgb(255, 123, 123); fill-opacity:0.827; stroke:none;" />
 <path d="  M 4,12  L 14,12  L 14,11  L 4,11  Z  " style="fill:rgb(255, 117, 117); fill-opacity:0.820; stroke:none;" />
 <path d="  M 5,16  L 5,15  L 4,15  L 4,16  Z  " style="fill:rgb(255, 0, 0); fill-opacity:0.710; stroke:none;" />
 <path d="  M 4,18  L 5,18  L 5,17  L 4,17  Z  " style="fill:rgb(255, 0, 0); fill-opacity:0.710; stroke:none;" />
 <path d="  M 4,21  L 4,22  L 5,22  L 5,21  Z  " style="fill:rgb(255, 0, 0); fill-opacity:0.710; stroke:none;" />
 <path d="  M 5,24  L 5,23  L 4,23  L 4,24  Z  " style="fill:rgb(255, 0, 0); fill-opacity:0.710; stroke:none;" />
 <path d="  M 6,16  L 7,16  L 7,15  L 6,15  Z  " style="fill:rgb(255, 0, 0); fill-opacity:0.710; stroke:none;" />
 <path d="  M 6,23  L 6,24  L 7,24  L 7,23  Z  " style="fill:rgb(255, 0, 0); fill-opacity:0.710; stroke:none;" />
 <path d="  M 9,15  L 8,15  L 8,16  L 9,16  Z  " style="fill:rgb(255, 0, 0); fill-opacity:0.710; stroke:none;" />
 <path d="  M 9,24  L 9,23  L 8,23  L 8,24  Z  " style="fill:rgb(255, 0, 0); fill-opacity:0.710; stroke:none;" />
 <path d="  M 10,15  L 10,16  L 11,16  L 11,15  Z  " style="fill:rgb(255, 0, 0); fill-opacity:0.710; stroke:none;" />
 <path d="  M 11,23  L 10,23  L 10,24  L 11,24  Z  " style="fill:rgb(255, 0, 0); fill-opacity:0.710; stroke:none;" />
 <path d="  M 4,16  L 4,17  L 5,17  L 5,16  Z  " style="fill:rgb(255, 82, 82); fill-opacity:0.784; stroke:none;" />
 <path d="  M 5,19  L 5,18  L 4,18  L 4,19  Z  " style="fill:rgb(255, 82, 82); fill-opacity:0.784; stroke:none;" />
 <path d="  M 5,20  L 4,20  L 4,21  L 5,21  Z  " style="fill:rgb(255, 82, 82); fill-opacity:0.784; stroke:none;" />
 <path d="  M 4,22  L 4,23  L 5,23  L 5,22  Z  " style="fill:rgb(255, 82, 82); fill-opacity:0.784; stroke:none;" />
 <path d="  M 5,15  L 5,16  L 6,16  L 6,15  Z  " style="fill:rgb(255, 82, 82); fill-opacity:0.784; stroke:none;" />
 <path d="  M 5,24  L 6,24  L 6,23  L 5,23  Z  " style="fill:rgb(255, 82, 82); fill-opacity:0.784; stroke:none;" />
 <path d="  M 7,16  L 8,16  L 8,15  L 7,15  Z  " style="fill:rgb(255, 82, 82); fill-opacity:0.784; stroke:none;" />
 <path d="  M 7,24  L 8,24  L 8,23  L 7,23  Z  " style="fill:rgb(255, 82, 82); fill-opacity:0.784; stroke:none;" />
 <path d="  M 9,16  L 10,16  L 10,15  L 9,15  Z  " style="fill:rgb(255, 82, 82); fill-opacity:0.784; stroke:none;" />
 <path d="  M 10,23  L 9,23  L 9,24  L 10,24  Z  " style="fill:rgb(255, 82, 82); fill-opacity:0.784; stroke:none;" />
 <path d="  M 11,15  L 11,24  L 12,24  L 12,15  Z  " style="fill:rgb(255, 82, 82); fill-opacity:0.784; stroke:none;" />
 <path d="  M 4,19  L 4,20  L 5,20  L 5,19  Z  " style="fill:rgb(255, 0, 0); fill-opacity:0.690; stroke:none;" />
 <path d="  M 5,28  L 5,27  L 4,27  L 4,28  Z  " style="fill:rgb(255, 158, 158); fill-opacity:0.812; stroke:none;" />
 <path d="  M 4,28  L 4,29  L 5,29  L 5,28  Z  " style="fill:rgb(255, 0, 0); fill-opacity:0.424; stroke:none;" />
 <path d="  M 4,29  L 4,30  L 5,30  L 5,29  Z  " style="fill:rgb(255, 0, 0); fill-opacity:0.243; stroke:none;" />
 <path d="  M 4,31  L 5,31  L 5,30  L 4,30  Z  " style="fill:rgb(255, 0, 0); fill-opacity:0.106; stroke:none;" />
 <path d="  M 20,25  L 20,24  L 19,24  L 19,25  Z  " style="fill:rgb(255, 0, 0); fill-opacity:0.106; stroke:none;" />
 <path d="  M 5,4  L 5,5  L 6,5  L 6,4  Z  " style="fill:rgb(255, 0, 0); fill-opacity:0.200; stroke:none;" />
 <path d="  M 5,5  L 5,6  L 6,6  L 6,5  Z  " style="fill:rgb(255, 0, 0); fill-opacity:0.345; stroke:none;" />
 <path d="  M 7,7  L 7,6  L 5,6  L 5,7  Z  " style="fill:rgb(255, 100, 100); fill-opacity:0.639; stroke:none;" />
 <path d="  M 6,17  L 5,17  L 5,18  L 6,18  Z  " style="fill:rgb(255, 0, 0); fill-opacity:0.678; stroke:none;" />
 <path d="  M 6,22  L 6,21  L 5,21  L 5,22  Z  " style="fill:rgb(255, 0, 0); fill-opacity:0.678; stroke:none;" />
 <path d="  M 6,20  L 6,19  L 5,19  L 5,20  Z  " style="fill:rgb(255, 0, 0); fill-opacity:0.612; stroke:none;" />
 <path d="  M 5,28  L 6,28  L 6,27  L 5,27  Z  " style="fill:rgb(255, 155, 155); fill-opacity:0.824; stroke:none;" />
 <path d="  M 10,27  L 10,28  L 11,28  L 11,27  Z  " style="fill:rgb(255, 155, 155); fill-opacity:0.824; stroke:none;" />
 <path d="  M 5,28  L 5,29  L 10,29  L 10,28  Z  " style="fill:rgb(255, 0, 0); fill-opacity:0.439; stroke:none;" />
 <path d="  M 17,8  L 17,9  L 18,9  L 18,8  Z  " style="fill:rgb(255, 0, 0); fill-opacity:0.439; stroke:none;" />
 <path d="  M 5,30  L 12,30  L 12,29  L 5,29  Z  " style="fill:rgb(255, 0, 0); fill-opacity:0.255; stroke:none;" />
 <path d="  M 6,4  L 7,4  L 7,3  L 6,3  Z  " style="fill:rgb(255, 0, 0); fill-opacity:0.090; stroke:none;" />
 <path d="  M 14,30  L 14,31  L 15,31  L 15,30  Z  " style="fill:rgb(255, 0, 0); fill-opacity:0.090; stroke:none;" />
 <path d="  M 19,4  L 19,3  L 18,3  L 18,4  Z  " style="fill:rgb(255, 0, 0); fill-opacity:0.090; stroke:none;" />
 <path d="  M 19,25  L 19,26  L 20,26  L 20,25  Z  " style="fill:rgb(255, 0, 0); fill-opacity:0.090; stroke:none;" />
 <path d="  M 7,6  L 7,5  L 6,5  L 6,6  Z  " style="fill:rgb(255, 0, 0); fill-opacity:0.353; stroke:none;" />
 <path d="  M 6,16  L 6,17  L 7,17  L 7,16  Z  " style="fill:rgb(255, 83, 83); fill-opacity:0.773; stroke:none;" />
 <path d="  M 6,23  L 7,23  L 7,22  L 6,22  Z  " style="fill:rgb(255, 83, 83); fill-opacity:0.773; stroke:none;" />
 <path d="  M 6,18  L 7,18  L 7,17  L 6,17  Z  " style="fill:rgb(255, 0, 0); fill-opacity:0.573; stroke:none;" />
 <path d="  M 6,21  L 6,22  L 7,22  L 7,21  Z  " style="fill:rgb(255, 0, 0); fill-opacity:0.573; stroke:none;" />
 <path d="  M 6,18  L 6,19  L 7,19  L 7,18  Z  " style="fill:rgb(255, 98, 98); fill-opacity:0.655; stroke:none;" />
 <path d="  M 6,21  L 7,21  L 7,20  L 6,20  Z  " style="fill:rgb(255, 98, 98); fill-opacity:0.655; stroke:none;" />
 <path d="  M 9,7  L 9,6  L 8,6  L 8,7  Z  " style="fill:rgb(255, 98, 98); fill-opacity:0.655; stroke:none;" />
 <path d="  M 7,19  L 6,19  L 6,20  L 7,20  Z  " style="fill:rgb(255, 0, 0); fill-opacity:0.498; stroke:none;" />
 <path d="  M 18,13  L 17,13  L 17,14  L 18,14  Z  " style="fill:rgb(255, 0, 0); fill-opacity:0.498; stroke:none;" />
 <path d="  M 7,28  L 7,27  L 6,27  L 6,28  Z  " style="fill:rgb(255, 156, 156); fill-opacity:0.820; stroke:none;" />
 <path d="  M 10,27  L 9,27  L 9,28  L 10,28  Z  " style="fill:rgb(255, 156, 156); fill-opacity:0.820; stroke:none;" />
 <path d="  M 6,30  L 6,31  L 12,31  L 12,30  Z  " style="fill:rgb(255, 0, 0); fill-opacity:0.114; stroke:none;" />
 <path d="  M 8,3  L 8,4  L 9,4  L 9,3  Z  " style="fill:rgb(255, 0, 0); fill-opacity:0.114; stroke:none;" />
 <path d="  M 8,3  L 7,3  L 7,4  L 8,4  Z  " style="fill:rgb(255, 0, 0); fill-opacity:0.102; stroke:none;" />
 <path d="  M 14,31  L 14,30  L 13,30  L 13,31  Z  " style="fill:rgb(255, 0, 0); fill-opacity:0.102; stroke:none;" />
 <path d="  M 7,7  L 8,7  L 8,6  L 7,6  Z  " style="fill:rgb(255, 100, 100); fill-opacity:0.643; stroke:none;" />
 <path d="  M 9,20  L 9,19  L 7,19  L 7,20  Z  " style="fill:rgb(255, 0, 0); fill-opacity:0.443; stroke:none;" />
 <path d="  M 11,29  L 11,28  L 10,28  L 10,29  Z  " style="fill:rgb(255, 0, 0); fill-opacity:0.443; stroke:none;" />
 <path d="  M 13,5  L 13,6  L 14,6  L 14,5  Z  " style="fill:rgb(255, 0, 0); fill-opacity:0.443; stroke:none;" />
 <path d="  M 7,27  L 7,28  L 9,28  L 9,27  Z  " style="fill:rgb(255, 157, 157); fill-opacity:0.816; stroke:none;" />
 <path d="  M 13,27  L 13,28  L 14,28  L 14,27  Z  " style="fill:rgb(255, 157, 157); fill-opacity:0.816; stroke:none;" />
 <path d="  M 16,10  L 17,10  L 17,9  L 16,9  Z  " style="fill:rgb(255, 157, 157); fill-opacity:0.816; stroke:none;" />
 <path d="  M 9,2  L 8,2  L 8,3  L 9,3  Z  " style="fill:rgb(255, 0, 0); fill-opacity:0.035; stroke:none;" />
 <path d="  M 12,1  L 12,2  L 13,2  L 13,1  Z  " style="fill:rgb(255, 0, 0); fill-opacity:0.035; stroke:none;" />
 <path d="  M 16,2  L 17,2  L 17,1  L 16,1  Z  " style="fill:rgb(255, 0, 0); fill-opacity:0.035; stroke:none;" />
 <path d="  M 17,31  L 18,31  L 18,30  L 17,30  Z  " style="fill:rgb(255, 0, 0); fill-opacity:0.035; stroke:none;" />
 <path d="  M 20,3  L 20,2  L 19,2  L 19,3  Z  " style="fill:rgb(255, 0, 0); fill-opacity:0.035; stroke:none;" />
 <path d="  M 19,29  L 20,29  L 20,28  L 19,28  Z  " style="fill:rgb(255, 0, 0); fill-opacity:0.035; stroke:none;" />
 <path d="  M 8,5  L 9,5  L 9,4  L 8,4  Z  " style="fill:rgb(255, 0, 0); fill-opacity:0.235; stroke:none;" />
 <path d="  M 13,29  L 13,30  L 14,30  L 14,29  Z  " style="fill:rgb(255, 0, 0); fill-opacity:0.235; stroke:none;" />
 <path d="  M 18,24  L 18,25  L 19,25  L 19,24  Z  " style="fill:rgb(255, 0, 0); fill-opacity:0.235; stroke:none;" />
 <path d="  M 8,5  L 8,6  L 9,6  L 9,5  Z  " style="fill:rgb(255, 0, 0); fill-opacity:0.384; stroke:none;" />
 <path d="  M 8,17  L 9,17  L 9,16  L 8,16  Z  " style="fill:rgb(255, 87, 87); fill-opacity:0.737; stroke:none;" />
 <path d="  M 9,22  L 8,22  L 8,23  L 9,23  Z  " style="fill:rgb(255, 87, 87); fill-opacity:0.737; stroke:none;" />
 <path d="  M 9,4  L 10,4  L 10,3  L 9,3  Z  " style="fill:rgb(255, 0, 0); fill-opacity:0.129; stroke:none;" />
 <path d="  M 16,29  L 16,30  L 17,30  L 17,29  Z  " style="fill:rgb(255, 0, 0); fill-opacity:0.129; stroke:none;" />
 <path d="  M 19,28  L 19,27  L 18,27  L 18,28  Z  " style="fill:rgb(255, 0, 0); fill-opacity:0.129; stroke:none;" />
 <path d="  M 20,22  L 19,22  L 19,23  L 20,23  Z  " style="fill:rgb(255, 0, 0); fill-opacity:0.129; stroke:none;" />
 <path d="  M 9,6  L 10,6  L 10,5  L 9,5  Z  " style="fill:rgb(255, 0, 0); fill-opacity:0.408; stroke:none;" />
 <path d="  M 10,7  L 10,6  L 9,6  L 9,7  Z  " style="fill:rgb(255, 95, 95); fill-opacity:0.671; stroke:none;" />
 <path d="  M 15,6  L 14,6  L 14,7  L 15,7  Z  " style="fill:rgb(255, 95, 95); fill-opacity:0.671; stroke:none;" />
 <path d="  M 10,18  L 9,18  L 9,19  L 10,19  Z  " style="fill:rgb(255, 215, 215); fill-opacity:0.890; stroke:none;" />
 <path d="  M 10,21  L 10,20  L 9,20  L 9,21  Z  " style="fill:rgb(255, 215, 215); fill-opacity:0.890; stroke:none;" />
 <path d="  M 9,19  L 9,20  L 10,20  L 10,19  Z  " style="fill:rgb(255, 0, 0); fill-opacity:0.529; stroke:none;" />
 <path d="  M 11,2  L 10,2  L 10,3  L 11,3  Z  " style="fill:rgb(255, 0, 0); fill-opacity:0.055; stroke:none;" />
 <path d="  M 17,31  L 17,30  L 16,30  L 16,31  Z  " style="fill:rgb(255, 0, 0); fill-opacity:0.055; stroke:none;" />
 <path d="  M 19,28  L 20,28  L 20,27  L 19,27  Z  " style="fill:rgb(255, 0, 0); fill-opacity:0.055; stroke:none;" />
 <path d="  M 11,5  L 11,4  L 10,4  L 10,5  Z  " style="fill:rgb(255, 0, 0); fill-opacity:0.286; stroke:none;" />
 <path d="  M 18,7  L 18,8  L 19,8  L 19,7  Z  " style="fill:rgb(255, 0, 0); fill-opacity:0.286; stroke:none;" />
 <path d="  M 11,5  L 10,5  L 10,6  L 11,6  Z  " style="fill:rgb(255, 178, 178); fill-opacity:0.718; stroke:none;" />
 <path d="  M 10,7  L 11,7  L 11,6  L 10,6  Z  " style="fill:rgb(255, 225, 225); fill-opacity:0.922; stroke:none;" />
 <path d="  M 11,17  L 11,16  L 10,16  L 10,17  Z  " style="fill:rgb(255, 150, 150); fill-opacity:0.855; stroke:none;" />
 <path d="  M 10,22  L 10,23  L 11,23  L 11,22  Z  " style="fill:rgb(255, 150, 150); fill-opacity:0.855; stroke:none;" />
 <path d="  M 16,20  L 17,20  L 17,12  L 16,12  Z  " style="fill:rgb(255, 150, 150); fill-opacity:0.855; stroke:none;" />
 <path d="  M 17,21  L 16,21  L 16,23  L 17,23  Z  " style="fill:rgb(255, 150, 150); fill-opacity:0.855; stroke:none;" />
 <path d="  M 10,17  L 10,18  L 11,18  L 11,17  Z  " style="fill:rgb(255, 0, 0); fill-opacity:0.698; stroke:none;" />
 <path d="  M 11,22  L 11,21  L 10,21  L 10,22  Z  " style="fill:rgb(255, 0, 0); fill-opacity:0.698; stroke:none;" />
 <path d="  M 11,20  L 11,19  L 10,19  L 10,20  Z  " style="fill:rgb(255, 0, 0); fill-opacity:0.635; stroke:none;" />
 <path d="  M 11,2  L 11,3  L 12,3  L 12,2  Z  " style="fill:rgb(255, 0, 0); fill-opacity:0.067; stroke:none;" />
 <path d="  M 12,4  L 12,3  L 11,3  L 11,4  Z  " style="fill:rgb(255, 0, 0); fill-opacity:0.161; stroke:none;" />
 <path d="  M 11,4  L 11,5  L 12,5  L 12,4  Z  " style="fill:rgb(255, 0, 0); fill-opacity:0.302; stroke:none;" />
 <path d="  M 12,5  L 11,5  L 11,6  L 12,6  Z  " style="fill:rgb(255, 175, 175); fill-opacity:0.729; stroke:none;" />
 <path d="  M 12,6  L 11,6  L 11,7  L 12,7  Z  " style="fill:rgb(255, 91, 91); fill-opacity:0.706; stroke:none;" />
 <path d="  M 13,27  L 11,27  L 11,28  L 13,28  Z  " style="fill:rgb(255, 154, 154); fill-opacity:0.831; stroke:none;" />
 <path d="  M 12,29  L 12,28  L 11,28  L 11,29  Z  " style="fill:rgb(255, 0, 0); fill-opacity:0.447; stroke:none;" />
 <path d="  M 12,3  L 13,3  L 13,2  L 12,2  Z  " style="fill:rgb(255, 0, 0); fill-opacity:0.075; stroke:none;" />
 <path d="  M 15,4  L 15,3  L 12,3  L 12,4  Z  " style="fill:rgb(255, 0, 0); fill-opacity:0.169; stroke:none;" />
 <path d="  M 20,19  L 19,19  L 19,20  L 20,20  Z  " style="fill:rgb(255, 0, 0); fill-opacity:0.169; stroke:none;" />
 <path d="  M 13,4  L 12,4  L 12,5  L 13,5  Z  " style="fill:rgb(255, 133, 133); fill-opacity:0.482; stroke:none;" />
 <path d="  M 18,20  L 19,20  L 19,19  L 18,19  Z  " style="fill:rgb(255, 133, 133); fill-opacity:0.482; stroke:none;" />
 <path d="  M 13,6  L 13,5  L 12,5  L 12,6  Z  " style="fill:rgb(255, 107, 107); fill-opacity:0.596; stroke:none;" />
 <path d="  M 13,6  L 12,6  L 12,7  L 13,7  Z  " style="fill:rgb(255, 90, 90); fill-opacity:0.710; stroke:none;" />
 <path d="  M 13,29  L 12,29  L 12,30  L 13,30  Z  " style="fill:rgb(255, 0, 0); fill-opacity:0.251; stroke:none;" />
 <path d="  M 13,2  L 14,2  L 14,1  L 13,1  Z  " style="fill:rgb(255, 0, 0); fill-opacity:0.039; stroke:none;" />
 <path d="  M 13,4  L 13,5  L 14,5  L 14,4  Z  " style="fill:rgb(255, 134, 134); fill-opacity:0.478; stroke:none;" />
 <path d="  M 14,6  L 13,6  L 13,7  L 14,7  Z  " style="fill:rgb(255, 92, 92); fill-opacity:0.694; stroke:none;" />
 <path d="  M 14,11  L 14,9  L 13,9  L 13,11  Z  " style="fill:rgb(255, 120, 120); fill-opacity:0.820; stroke:none;" />
 <path d="  M 13,29  L 14,29  L 14,28  L 13,28  Z  " style="fill:rgb(255, 0, 0); fill-opacity:0.412; stroke:none;" />
 <path d="  M 15,5  L 15,4  L 14,4  L 14,5  Z  " style="fill:rgb(255, 198, 198); fill-opacity:0.647; stroke:none;" />
 <path d="  M 14,6  L 15,6  L 15,5  L 14,5  Z  " style="fill:rgb(255, 0, 0); fill-opacity:0.420; stroke:none;" />
 <path d="  M 17,25  L 18,25  L 18,24  L 17,24  Z  " style="fill:rgb(255, 0, 0); fill-opacity:0.420; stroke:none;" />
 <path d="  M 15,27  L 14,27  L 14,28  L 15,28  Z  " style="fill:rgb(255, 162, 162); fill-opacity:0.788; stroke:none;" />
 <path d="  M 14,28  L 14,29  L 15,29  L 15,28  Z  " style="fill:rgb(255, 0, 0); fill-opacity:0.369; stroke:none;" />
 <path d="  M 18,25  L 17,25  L 17,26  L 18,26  Z  " style="fill:rgb(255, 0, 0); fill-opacity:0.369; stroke:none;" />
 <path d="  M 16,4  L 16,3  L 15,3  L 15,4  Z  " style="fill:rgb(255, 0, 0); fill-opacity:0.153; stroke:none;" />
 <path d="  M 19,21  L 20,21  L 20,20  L 19,20  Z  " style="fill:rgb(255, 0, 0); fill-opacity:0.153; stroke:none;" />
 <path d="  M 16,5  L 16,4  L 15,4  L 15,5  Z  " style="fill:rgb(255, 201, 201); fill-opacity:0.635; stroke:none;" />
 <path d="  M 16,5  L 15,5  L 15,6  L 16,6  Z  " style="fill:rgb(255, 0, 0); fill-opacity:0.380; stroke:none;" />
 <path d="  M 15,7  L 16,7  L 16,6  L 15,6  Z  " style="fill:rgb(255, 102, 102); fill-opacity:0.627; stroke:none;" />
 <path d="  M 16,27  L 15,27  L 15,28  L 16,28  Z  " style="fill:rgb(255, 173, 173); fill-opacity:0.741; stroke:none;" />
 <path d="  M 16,26  L 16,27  L 17,27  L 17,26  Z  " style="fill:rgb(255, 173, 173); fill-opacity:0.741; stroke:none;" />
 <path d="  M 15,29  L 16,29  L 16,28  L 15,28  Z  " style="fill:rgb(255, 0, 0); fill-opacity:0.306; stroke:none;" />
 <path d="  M 17,3  L 16,3  L 16,4  L 17,4  Z  " style="fill:rgb(255, 0, 0); fill-opacity:0.133; stroke:none;" />
 <path d="  M 16,4  L 16,5  L 17,5  L 17,4  Z  " style="fill:rgb(255, 153, 153); fill-opacity:0.420; stroke:none;" />
 <path d="  M 16,5  L 16,6  L 17,6  L 17,5  Z  " style="fill:rgb(255, 131, 131); fill-opacity:0.490; stroke:none;" />
 <path d="  M 16,6  L 16,7  L 17,7  L 17,6  Z  " style="fill:rgb(255, 0, 0); fill-opacity:0.416; stroke:none;" />
 <path d="  M 17,8  L 17,7  L 16,7  L 16,8  Z  " style="fill:rgb(255, 168, 168); fill-opacity:0.761; stroke:none;" />
 <path d="  M 17,8  L 16,8  L 16,9  L 17,9  Z  " style="fill:rgb(255, 161, 161); fill-opacity:0.796; stroke:none;" />
 <path d="  M 17,11  L 16,11  L 16,12  L 17,12  Z  " style="fill:rgb(255, 151, 151); fill-opacity:0.847; stroke:none;" />
 <path d="  M 16,20  L 16,21  L 17,21  L 17,20  Z  " style="fill:rgb(255, 180, 180); fill-opacity:0.890; stroke:none;" />
 <path d="  M 17,24  L 17,23  L 16,23  L 16,24  Z  " style="fill:rgb(255, 150, 150); fill-opacity:0.851; stroke:none;" />
 <path d="  M 16,25  L 17,25  L 17,24  L 16,24  Z  " style="fill:rgb(255, 155, 155); fill-opacity:0.827; stroke:none;" />
 <path d="  M 16,27  L 16,28  L 17,28  L 17,27  Z  " style="fill:rgb(255, 125, 125); fill-opacity:0.514; stroke:none;" />
 <path d="  M 18,2  L 18,1  L 17,1  L 17,2  Z  " style="fill:rgb(255, 0, 0); fill-opacity:0.031; stroke:none;" />
 <path d="  M 18,4  L 17,4  L 17,5  L 18,5  Z  " style="fill:rgb(255, 0, 0); fill-opacity:0.180; stroke:none;" />
 <path d="  M 17,6  L 18,6  L 18,5  L 17,5  Z  " style="fill:rgb(255, 204, 204); fill-opacity:0.627; stroke:none;" />
 <path d="  M 17,6  L 17,7  L 18,7  L 18,6  Z  " style="fill:rgb(255, 0, 0); fill-opacity:0.325; stroke:none;" />
 <path d="  M 18,11  L 19,11  L 19,9  L 18,9  Z  " style="fill:rgb(255, 0, 0); fill-opacity:0.325; stroke:none;" />
 <path d="  M 17,8  L 18,8  L 18,7  L 17,7  Z  " style="fill:rgb(255, 0, 0); fill-opacity:0.392; stroke:none;" />
 <path d="  M 18,10  L 18,9  L 17,9  L 17,10  Z  " style="fill:rgb(255, 0, 0); fill-opacity:0.467; stroke:none;" />
 <path d="  M 17,11  L 18,11  L 18,10  L 17,10  Z  " style="fill:rgb(255, 0, 0); fill-opacity:0.478; stroke:none;" />
 <path d="  M 17,11  L 17,12  L 18,12  L 18,11  Z  " style="fill:rgb(255, 0, 0); fill-opacity:0.490; stroke:none;" />
 <path d="  M 17,15  L 17,17  L 18,17  L 18,15  Z  " style="fill:rgb(255, 0, 0); fill-opacity:0.510; stroke:none;" />
 <path d="  M 18,17  L 17,17  L 17,19  L 18,19  Z  " style="fill:rgb(255, 0, 0); fill-opacity:0.506; stroke:none;" />
 <path d="  M 17,20  L 17,21  L 18,21  L 18,20  Z  " style="fill:rgb(255, 103, 103); fill-opacity:0.620; stroke:none;" />
 <path d="  M 18,22  L 17,22  L 17,23  L 18,23  Z  " style="fill:rgb(255, 0, 0); fill-opacity:0.475; stroke:none;" />
 <path d="  M 17,23  L 17,24  L 18,24  L 18,23  Z  " style="fill:rgb(255, 0, 0); fill-opacity:0.455; stroke:none;" />
 <path d="  M 18,2  L 18,3  L 19,3  L 19,2  Z  " style="fill:rgb(255, 0, 0); fill-opacity:0.051; stroke:none;" />
 <path d="  M 18,5  L 19,5  L 19,4  L 18,4  Z  " style="fill:rgb(255, 0, 0); fill-opacity:0.141; stroke:none;" />
 <path d="  M 19,21  L 19,22  L 20,22  L 20,21  Z  " style="fill:rgb(255, 0, 0); fill-opacity:0.141; stroke:none;" />
 <path d="  M 19,6  L 19,5  L 18,5  L 18,6  Z  " style="fill:rgb(255, 213, 213); fill-opacity:0.600; stroke:none;" />
 <path d="  M 19,6  L 18,6  L 18,7  L 19,7  Z  " style="fill:rgb(255, 205, 205); fill-opacity:0.624; stroke:none;" />
 <path d="  M 19,8  L 18,8  L 18,9  L 19,9  Z  " style="fill:rgb(255, 0, 0); fill-opacity:0.314; stroke:none;" />
 <path d="  M 19,19  L 19,17  L 18,17  L 18,19  Z  " style="fill:rgb(255, 0, 0); fill-opacity:0.322; stroke:none;" />
 <path d="  M 19,21  L 19,20  L 18,20  L 18,21  Z  " style="fill:rgb(255, 0, 0); fill-opacity:0.298; stroke:none;" />
 <path d="  M 18,21  L 18,22  L 19,22  L 19,21  Z  " style="fill:rgb(255, 0, 0); fill-opacity:0.282; stroke:none;" />
 <path d="  M 18,23  L 19,23  L 19,22  L 18,22  Z  " style="fill:rgb(255, 0, 0); fill-opacity:0.275; stroke:none;" />
 <path d="  M 20,6  L 19,6  L 19,7  L 20,7  Z  " style="fill:rgb(255, 170, 170); fill-opacity:0.376; stroke:none;" />
 <path d="  M 20,8  L 20,7  L 19,7  L 19,8  Z  " style="fill:rgb(255, 162, 162); fill-opacity:0.396; stroke:none;" />
 <path d="  M 19,8  L 19,9  L 20,9  L 20,8  Z  " style="fill:rgb(255, 212, 212); fill-opacity:0.604; stroke:none;" />
 <path d="  M 19,16  L 20,16  L 20,14  L 19,14  Z  " style="fill:rgb(255, 212, 212); fill-opacity:0.604; stroke:none;" />
 <path d="  M 20,9  L 19,9  L 19,10  L 20,10  Z  " style="fill:rgb(255, 211, 211); fill-opacity:0.608; stroke:none;" />
 <path d="  M 20,10  L 19,10  L 19,13  L 20,13  Z  " style="fill:rgb(255, 157, 157); fill-opacity:0.408; stroke:none;" />
 <path d="  M 19,14  L 20,14  L 20,13  L 19,13  Z  " style="fill:rgb(255, 158, 158); fill-opacity:0.404; stroke:none;" />
 <path d="  M 19,17  L 20,17  L 20,16  L 19,16  Z  " style="fill:rgb(255, 160, 160); fill-opacity:0.400; stroke:none;" />
 <path d="  M 19,19  L 20,19  L 20,18  L 19,18  Z  " style="fill:rgb(255, 216, 216); fill-opacity:0.592; stroke:none;" />
 <path d="  M 19,24  L 20,24  L 20,23  L 19,23  Z  " style="fill:rgb(255, 0, 0); fill-opacity:0.118; stroke:none;" />
</svg>
