<?xml version="1.0" encoding="UTF-8" standalone="no"?>
<!DOCTYPE svg PUBLIC "-//W3C//DTD SVG 1.1//EN" 
  "http://www.w3.org/Graphics/SVG/1.1/DTD/svg11.dtd">
<svg width="39" height="32"
	 xmlns="http://www.w3.org/2000/svg" version="1.1">
 <path d="  M 1,1  L 1,0  L 0,0  L 0,1  Z  " style="fill:rgb(255, 0, 0); fill-opacity:0.102; stroke:none;" />
 <path d="  M 27,32  L 28,32  L 28,31  L 27,31  Z  " style="fill:rgb(255, 0, 0); fill-opacity:0.102; stroke:none;" />
 <path d="  M 37,0  L 37,1  L 38,1  L 38,0  Z  " style="fill:rgb(255, 0, 0); fill-opacity:0.102; stroke:none;" />
 <path d="  M 0,1  L 0,2  L 1,2  L 1,1  Z  " style="fill:rgb(255, 0, 0); fill-opacity:0.192; stroke:none;" />
 <path d="  M 32,0  L 32,1  L 33,1  L 33,0  Z  " style="fill:rgb(255, 0, 0); fill-opacity:0.192; stroke:none;" />
 <path d="  M 1,2  L 0,2  L 0,3  L 1,3  Z  " style="fill:rgb(255, 0, 0); fill-opacity:0.310; stroke:none;" />
 <path d="  M 4,13  L 5,13  L 5,12  L 4,12  Z  " style="fill:rgb(255, 0, 0); fill-opacity:0.310; stroke:none;" />
 <path d="  M 39,4  L 39,3  L 38,3  L 38,4  Z  " style="fill:rgb(255, 0, 0); fill-opacity:0.310; stroke:none;" />
 <path d="  M 1,3  L 0,3  L 0,4  L 1,4  Z  " style="fill:rgb(255, 110, 110); fill-opacity:0.584; stroke:none;" />
 <path d="  M 36,3  L 37,3  L 37,2  L 36,2  Z  " style="fill:rgb(255, 110, 110); fill-opacity:0.584; stroke:none;" />
 <path d="  M 37,29  L 37,30  L 38,30  L 38,29  Z  " style="fill:rgb(255, 110, 110); fill-opacity:0.584; stroke:none;" />
 <path d="  M 1,5  L 1,4  L 0,4  L 0,5  Z  " style="fill:rgb(255, 165, 165); fill-opacity:0.776; stroke:none;" />
 <path d="  M 1,6  L 1,5  L 0,5  L 0,6  Z  " style="fill:rgb(255, 211, 211); fill-opacity:0.906; stroke:none;" />
 <path d="  M 16,15  L 17,15  L 17,14  L 16,14  Z  " style="fill:rgb(255, 211, 211); fill-opacity:0.906; stroke:none;" />
 <path d="  M 24,18  L 24,17  L 23,17  L 23,18  Z  " style="fill:rgb(255, 211, 211); fill-opacity:0.906; stroke:none;" />
 <path d="  M 0,6  L 0,7  L 1,7  L 1,6  Z  " style="fill:rgb(255, 155, 155); fill-opacity:0.827; stroke:none;" />
 <path d="  M 38,21  L 37,21  L 37,22  L 38,22  Z  " style="fill:rgb(255, 155, 155); fill-opacity:0.827; stroke:none;" />
 <path d="  M 1,7  L 0,7  L 0,8  L 1,8  Z  " style="fill:rgb(255, 158, 158); fill-opacity:0.808; stroke:none;" />
 <path d="  M 0,8  L 0,9  L 1,9  L 1,8  Z  " style="fill:rgb(255, 167, 167); fill-opacity:0.769; stroke:none;" />
 <path d="  M 0,10  L 1,10  L 1,9  L 0,9  Z  " style="fill:rgb(255, 114, 114); fill-opacity:0.561; stroke:none;" />
 <path d="  M 27,29  L 28,29  L 28,28  L 27,28  Z  " style="fill:rgb(255, 114, 114); fill-opacity:0.561; stroke:none;" />
 <path d="  M 0,11  L 1,11  L 1,10  L 0,10  Z  " style="fill:rgb(255, 0, 0); fill-opacity:0.282; stroke:none;" />
 <path d="  M 24,21  L 24,22  L 25,22  L 25,21  Z  " style="fill:rgb(255, 0, 0); fill-opacity:0.282; stroke:none;" />
 <path d="  M 0,11  L 0,12  L 1,12  L 1,11  Z  " style="fill:rgb(255, 0, 0); fill-opacity:0.169; stroke:none;" />
 <path d="  M 1,13  L 1,12  L 0,12  L 0,13  Z  " style="fill:rgb(255, 0, 0); fill-opacity:0.086; stroke:none;" />
 <path d="  M 2,14  L 3,14  L 3,13  L 2,13  Z  " style="fill:rgb(255, 0, 0); fill-opacity:0.086; stroke:none;" />
 <path d="  M 10,14  L 8,14  L 8,15  L 10,15  Z  " style="fill:rgb(255, 0, 0); fill-opacity:0.086; stroke:none;" />
 <path d="  M 1,14  L 1,13  L 0,13  L 0,14  Z  " style="fill:rgb(255, 0, 0); fill-opacity:0.035; stroke:none;" />
 <path d="  M 12,18  L 12,19  L 13,19  L 13,18  Z  " style="fill:rgb(255, 0, 0); fill-opacity:0.035; stroke:none;" />
 <path d="  M 18,21  L 18,22  L 19,22  L 19,21  Z  " style="fill:rgb(255, 0, 0); fill-opacity:0.035; stroke:none;" />
 <path d="  M 24,30  L 25,30  L 25,29  L 24,29  Z  " style="fill:rgb(255, 0, 0); fill-opacity:0.035; stroke:none;" />
 <path d="  M 1,15  L 1,14  L 0,14  L 0,15  Z  " style="fill:rgb(255, 0, 0); fill-opacity:0.004; stroke:none;" />
 <path d="  M 4,16  L 4,15  L 2,15  L 2,16  Z  " style="fill:rgb(255, 0, 0); fill-opacity:0.004; stroke:none;" />
 <path d="  M 12,19  L 11,19  L 11,20  L 12,20  Z  " style="fill:rgb(255, 0, 0); fill-opacity:0.004; stroke:none;" />
 <path d="  M 12,21  L 13,21  L 13,20  L 12,20  Z  " style="fill:rgb(255, 0, 0); fill-opacity:0.004; stroke:none;" />
 <path d="  M 15,22  L 15,21  L 13,21  L 13,22  Z  " style="fill:rgb(255, 0, 0); fill-opacity:0.004; stroke:none;" />
 <path d="  M 22,24  L 22,25  L 23,25  L 23,24  Z  " style="fill:rgb(255, 0, 0); fill-opacity:0.004; stroke:none;" />
 <path d="  M 23,29  L 23,30  L 24,30  L 24,29  Z  " style="fill:rgb(255, 0, 0); fill-opacity:0.004; stroke:none;" />
 <path d="  M 1,1  L 2,1  L 2,0  L 1,0  Z  " style="fill:rgb(255, 0, 0); fill-opacity:0.133; stroke:none;" />
 <path d="  M 26,29  L 26,28  L 25,28  L 25,29  Z  " style="fill:rgb(255, 0, 0); fill-opacity:0.133; stroke:none;" />
 <path d="  M 2,2  L 2,1  L 1,1  L 1,2  Z  " style="fill:rgb(255, 0, 0); fill-opacity:0.255; stroke:none;" />
 <path d="  M 4,12  L 3,12  L 3,13  L 4,13  Z  " style="fill:rgb(255, 0, 0); fill-opacity:0.255; stroke:none;" />
 <path d="  M 14,16  L 14,17  L 15,17  L 15,16  Z  " style="fill:rgb(255, 0, 0); fill-opacity:0.255; stroke:none;" />
 <path d="  M 25,25  L 25,26  L 26,26  L 26,25  Z  " style="fill:rgb(255, 0, 0); fill-opacity:0.255; stroke:none;" />
 <path d="  M 26,29  L 27,29  L 27,28  L 26,28  Z  " style="fill:rgb(255, 0, 0); fill-opacity:0.255; stroke:none;" />
 <path d="  M 1,2  L 1,3  L 2,3  L 2,2  Z  " style="fill:rgb(255, 180, 180); fill-opacity:0.710; stroke:none;" />
 <path d="  M 3,4  L 3,3  L 1,3  L 1,9  L 3,9  L 3,10  L 4,10  L 4,11  L 14,11  L 14,12  L 15,12  L 15,13  L 17,13  L 17,12  L 25,12  L 25,16  L 17,16  L 17,15  L 16,15  L 16,17  L 19,17  L 19,18  L 20,18  L 20,17  L 25,17  L 25,18  L 26,18  L 26,20  L 27,20  L 27,24  L 28,24  L 28,29  L 38,29  L 38,24  L 37,24  L 37,20  L 36,20  L 36,17  L 35,17  L 35,12  L 37,12  L 37,11  L 38,11  L 38,10  L 39,10  L 39,9  L 38,9  L 38,5  L 37,5  L 37,4  L 36,4  L 36,3  L 32,3  L 32,4  Z  " style="fill:rgb(255, 255, 255); fill-opacity:1.000; stroke:none;" />
 <path d="  M 1,10  L 2,10  L 2,9  L 1,9  Z  " style="fill:rgb(255, 213, 213); fill-opacity:0.898; stroke:none;" />
 <path d="  M 1,11  L 2,11  L 2,10  L 1,10  Z  " style="fill:rgb(255, 0, 0); fill-opacity:0.412; stroke:none;" />
 <path d="  M 38,14  L 38,13  L 37,13  L 37,14  Z  " style="fill:rgb(255, 0, 0); fill-opacity:0.412; stroke:none;" />
 <path d="  M 1,11  L 1,12  L 2,12  L 2,11  Z  " style="fill:rgb(255, 0, 0); fill-opacity:0.259; stroke:none;" />
 <path d="  M 24,20  L 23,20  L 23,21  L 24,21  Z  " style="fill:rgb(255, 0, 0); fill-opacity:0.259; stroke:none;" />
 <path d="  M 1,13  L 2,13  L 2,12  L 1,12  Z  " style="fill:rgb(255, 0, 0); fill-opacity:0.137; stroke:none;" />
 <path d="  M 11,14  L 11,15  L 12,15  L 12,14  Z  " style="fill:rgb(255, 0, 0); fill-opacity:0.137; stroke:none;" />
 <path d="  M 19,21  L 20,21  L 20,20  L 19,20  Z  " style="fill:rgb(255, 0, 0); fill-opacity:0.137; stroke:none;" />
 <path d="  M 1,13  L 1,14  L 2,14  L 2,13  Z  " style="fill:rgb(255, 0, 0); fill-opacity:0.055; stroke:none;" />
 <path d="  M 5,15  L 5,14  L 4,14  L 4,15  Z  " style="fill:rgb(255, 0, 0); fill-opacity:0.055; stroke:none;" />
 <path d="  M 12,16  L 12,15  L 11,15  L 11,16  Z  " style="fill:rgb(255, 0, 0); fill-opacity:0.055; stroke:none;" />
 <path d="  M 15,20  L 15,21  L 16,21  L 16,20  Z  " style="fill:rgb(255, 0, 0); fill-opacity:0.055; stroke:none;" />
 <path d="  M 26,30  L 25,30  L 25,31  L 26,31  Z  " style="fill:rgb(255, 0, 0); fill-opacity:0.055; stroke:none;" />
 <path d="  M 2,14  L 1,14  L 1,15  L 2,15  Z  " style="fill:rgb(255, 0, 0); fill-opacity:0.016; stroke:none;" />
 <path d="  M 10,16  L 10,15  L 7,15  L 7,16  Z  " style="fill:rgb(255, 0, 0); fill-opacity:0.016; stroke:none;" />
 <path d="  M 12,17  L 11,17  L 11,18  L 12,18  Z  " style="fill:rgb(255, 0, 0); fill-opacity:0.016; stroke:none;" />
 <path d="  M 13,19  L 12,19  L 12,20  L 13,20  Z  " style="fill:rgb(255, 0, 0); fill-opacity:0.016; stroke:none;" />
 <path d="  M 14,21  L 14,20  L 13,20  L 13,21  Z  " style="fill:rgb(255, 0, 0); fill-opacity:0.016; stroke:none;" />
 <path d="  M 16,22  L 16,21  L 15,21  L 15,22  Z  " style="fill:rgb(255, 0, 0); fill-opacity:0.016; stroke:none;" />
 <path d="  M 3,0  L 2,0  L 2,1  L 3,1  Z  " style="fill:rgb(255, 0, 0); fill-opacity:0.157; stroke:none;" />
 <path d="  M 5,13  L 4,13  L 4,14  L 5,14  Z  " style="fill:rgb(255, 0, 0); fill-opacity:0.157; stroke:none;" />
 <path d="  M 5,0  L 5,1  L 6,1  L 6,0  Z  " style="fill:rgb(255, 0, 0); fill-opacity:0.157; stroke:none;" />
 <path d="  M 14,16  L 13,16  L 13,17  L 14,17  Z  " style="fill:rgb(255, 0, 0); fill-opacity:0.157; stroke:none;" />
 <path d="  M 16,19  L 16,20  L 17,20  L 17,19  Z  " style="fill:rgb(255, 0, 0); fill-opacity:0.157; stroke:none;" />
 <path d="  M 31,1  L 31,0  L 30,0  L 30,1  Z  " style="fill:rgb(255, 0, 0); fill-opacity:0.157; stroke:none;" />
 <path d="  M 2,2  L 3,2  L 3,1  L 2,1  Z  " style="fill:rgb(255, 0, 0); fill-opacity:0.298; stroke:none;" />
 <path d="  M 29,2  L 29,1  L 7,1  L 7,2  Z  " style="fill:rgb(255, 0, 0); fill-opacity:0.298; stroke:none;" />
 <path d="  M 18,19  L 18,18  L 17,18  L 17,19  Z  " style="fill:rgb(255, 0, 0); fill-opacity:0.298; stroke:none;" />
 <path d="  M 26,25  L 26,24  L 25,24  L 25,25  Z  " style="fill:rgb(255, 0, 0); fill-opacity:0.298; stroke:none;" />
 <path d="  M 3,3  L 3,2  L 2,2  L 2,3  Z  " style="fill:rgb(255, 172, 172); fill-opacity:0.745; stroke:none;" />
 <path d="  M 3,10  L 3,9  L 2,9  L 2,10  Z  " style="fill:rgb(255, 206, 206); fill-opacity:0.925; stroke:none;" />
 <path d="  M 3,3  L 3,4  L 32,4  L 32,3  Z  " style="fill:rgb(255, 206, 206); fill-opacity:0.925; stroke:none;" />
 <path d="  M 13,12  L 14,12  L 14,11  L 13,11  Z  " style="fill:rgb(255, 206, 206); fill-opacity:0.925; stroke:none;" />
 <path d="  M 17,14  L 17,13  L 16,13  L 16,14  Z  " style="fill:rgb(255, 206, 206); fill-opacity:0.925; stroke:none;" />
 <path d="  M 24,18  L 25,18  L 25,17  L 24,17  Z  " style="fill:rgb(255, 206, 206); fill-opacity:0.925; stroke:none;" />
 <path d="  M 26,20  L 26,21  L 27,21  L 27,20  Z  " style="fill:rgb(255, 206, 206); fill-opacity:0.925; stroke:none;" />
 <path d="  M 34,30  L 35,30  L 35,29  L 34,29  Z  " style="fill:rgb(255, 206, 206); fill-opacity:0.925; stroke:none;" />
 <path d="  M 36,12  L 35,12  L 35,13  L 36,13  Z  " style="fill:rgb(255, 206, 206); fill-opacity:0.925; stroke:none;" />
 <path d="  M 35,16  L 35,17  L 36,17  L 36,16  Z  " style="fill:rgb(255, 206, 206); fill-opacity:0.925; stroke:none;" />
 <path d="  M 36,20  L 37,20  L 37,19  L 36,19  Z  " style="fill:rgb(255, 206, 206); fill-opacity:0.925; stroke:none;" />
 <path d="  M 38,24  L 38,23  L 37,23  L 37,24  Z  " style="fill:rgb(255, 206, 206); fill-opacity:0.925; stroke:none;" />
 <path d="  M 3,10  L 2,10  L 2,11  L 3,11  Z  " style="fill:rgb(255, 0, 0); fill-opacity:0.541; stroke:none;" />
 <path d="  M 17,15  L 17,16  L 18,16  L 18,15  Z  " style="fill:rgb(255, 0, 0); fill-opacity:0.541; stroke:none;" />
 <path d="  M 31,3  L 31,2  L 30,2  L 30,3  Z  " style="fill:rgb(255, 0, 0); fill-opacity:0.541; stroke:none;" />
 <path d="  M 37,16  L 36,16  L 36,17  L 37,17  Z  " style="fill:rgb(255, 0, 0); fill-opacity:0.541; stroke:none;" />
 <path d="  M 38,24  L 38,25  L 39,25  L 39,24  Z  " style="fill:rgb(255, 0, 0); fill-opacity:0.541; stroke:none;" />
 <path d="  M 2,12  L 3,12  L 3,11  L 2,11  Z  " style="fill:rgb(255, 0, 0); fill-opacity:0.349; stroke:none;" />
 <path d="  M 5,12  L 5,13  L 6,13  L 6,12  Z  " style="fill:rgb(255, 0, 0); fill-opacity:0.349; stroke:none;" />
 <path d="  M 19,19  L 20,19  L 20,18  L 19,18  Z  " style="fill:rgb(255, 0, 0); fill-opacity:0.349; stroke:none;" />
 <path d="  M 39,13  L 39,12  L 38,12  L 38,13  Z  " style="fill:rgb(255, 0, 0); fill-opacity:0.349; stroke:none;" />
 <path d="  M 3,12  L 2,12  L 2,13  L 3,13  Z  " style="fill:rgb(255, 0, 0); fill-opacity:0.196; stroke:none;" />
 <path d="  M 6,13  L 6,14  L 7,14  L 7,13  Z  " style="fill:rgb(255, 0, 0); fill-opacity:0.196; stroke:none;" />
 <path d="  M 18,20  L 18,19  L 17,19  L 17,20  Z  " style="fill:rgb(255, 0, 0); fill-opacity:0.196; stroke:none;" />
 <path d="  M 38,2  L 38,1  L 37,1  L 37,2  Z  " style="fill:rgb(255, 0, 0); fill-opacity:0.196; stroke:none;" />
 <path d="  M 39,17  L 38,17  L 38,18  L 39,18  Z  " style="fill:rgb(255, 0, 0); fill-opacity:0.196; stroke:none;" />
 <path d="  M 38,30  L 38,31  L 39,31  L 39,30  Z  " style="fill:rgb(255, 0, 0); fill-opacity:0.196; stroke:none;" />
 <path d="  M 3,14  L 2,14  L 2,15  L 3,15  Z  " style="fill:rgb(255, 0, 0); fill-opacity:0.024; stroke:none;" />
 <path d="  M 12,17  L 12,16  L 11,16  L 11,17  Z  " style="fill:rgb(255, 0, 0); fill-opacity:0.024; stroke:none;" />
 <path d="  M 17,22  L 17,21  L 16,21  L 16,22  Z  " style="fill:rgb(255, 0, 0); fill-opacity:0.024; stroke:none;" />
 <path d="  M 3,0  L 3,1  L 5,1  L 5,0  Z  " style="fill:rgb(255, 0, 0); fill-opacity:0.161; stroke:none;" />
 <path d="  M 38,31  L 37,31  L 37,32  L 38,32  Z  " style="fill:rgb(255, 0, 0); fill-opacity:0.161; stroke:none;" />
 <path d="  M 38,16  L 38,17  L 39,17  L 39,16  Z  " style="fill:rgb(255, 0, 0); fill-opacity:0.161; stroke:none;" />
 <path d="  M 4,2  L 4,1  L 3,1  L 3,2  Z  " style="fill:rgb(255, 0, 0); fill-opacity:0.318; stroke:none;" />
 <path d="  M 3,2  L 3,3  L 4,3  L 4,2  Z  " style="fill:rgb(255, 0, 0); fill-opacity:0.522; stroke:none;" />
 <path d="  M 27,27  L 27,28  L 28,28  L 28,27  Z  " style="fill:rgb(255, 0, 0); fill-opacity:0.522; stroke:none;" />
 <path d="  M 30,2  L 29,2  L 29,3  L 30,3  Z  " style="fill:rgb(255, 0, 0); fill-opacity:0.522; stroke:none;" />
 <path d="  M 3,10  L 3,11  L 4,11  L 4,10  Z  " style="fill:rgb(255, 153, 153); fill-opacity:0.835; stroke:none;" />
 <path d="  M 3,12  L 4,12  L 4,11  L 3,11  Z  " style="fill:rgb(255, 0, 0); fill-opacity:0.439; stroke:none;" />
 <path d="  M 31,30  L 31,31  L 32,31  L 32,30  Z  " style="fill:rgb(255, 0, 0); fill-opacity:0.439; stroke:none;" />
 <path d="  M 3,14  L 4,14  L 4,13  L 3,13  Z  " style="fill:rgb(255, 0, 0); fill-opacity:0.122; stroke:none;" />
 <path d="  M 15,18  L 14,18  L 14,19  L 15,19  Z  " style="fill:rgb(255, 0, 0); fill-opacity:0.122; stroke:none;" />
 <path d="  M 39,1  L 38,1  L 38,2  L 39,2  Z  " style="fill:rgb(255, 0, 0); fill-opacity:0.122; stroke:none;" />
 <path d="  M 3,15  L 4,15  L 4,14  L 3,14  Z  " style="fill:rgb(255, 0, 0); fill-opacity:0.039; stroke:none;" />
 <path d="  M 13,19  L 13,20  L 14,20  L 14,19  Z  " style="fill:rgb(255, 0, 0); fill-opacity:0.039; stroke:none;" />
 <path d="  M 4,2  L 5,2  L 5,1  L 4,1  Z  " style="fill:rgb(255, 0, 0); fill-opacity:0.322; stroke:none;" />
 <path d="  M 26,28  L 27,28  L 27,27  L 26,27  Z  " style="fill:rgb(255, 0, 0); fill-opacity:0.322; stroke:none;" />
 <path d="  M 31,2  L 31,1  L 30,1  L 30,2  Z  " style="fill:rgb(255, 0, 0); fill-opacity:0.322; stroke:none;" />
 <path d="  M 38,16  L 37,16  L 37,17  L 38,17  Z  " style="fill:rgb(255, 0, 0); fill-opacity:0.322; stroke:none;" />
 <path d="  M 4,3  L 5,3  L 5,2  L 4,2  Z  " style="fill:rgb(255, 0, 0); fill-opacity:0.537; stroke:none;" />
 <path d="  M 36,15  L 37,15  L 37,14  L 36,14  Z  " style="fill:rgb(255, 0, 0); fill-opacity:0.537; stroke:none;" />
 <path d="  M 5,12  L 5,11  L 4,11  L 4,12  Z  " style="fill:rgb(255, 100, 100); fill-opacity:0.639; stroke:none;" />
 <path d="  M 5,16  L 5,15  L 4,15  L 4,16  Z  " style="fill:rgb(255, 0, 0); fill-opacity:0.008; stroke:none;" />
 <path d="  M 12,18  L 11,18  L 11,19  L 12,19  Z  " style="fill:rgb(255, 0, 0); fill-opacity:0.008; stroke:none;" />
 <path d="  M 23,29  L 24,29  L 24,28  L 23,28  Z  " style="fill:rgb(255, 0, 0); fill-opacity:0.008; stroke:none;" />
 <path d="  M 6,2  L 6,1  L 5,1  L 5,2  Z  " style="fill:rgb(255, 0, 0); fill-opacity:0.314; stroke:none;" />
 <path d="  M 5,3  L 6,3  L 6,2  L 5,2  Z  " style="fill:rgb(255, 0, 0); fill-opacity:0.533; stroke:none;" />
 <path d="  M 19,16  L 19,15  L 18,15  L 18,16  Z  " style="fill:rgb(255, 0, 0); fill-opacity:0.533; stroke:none;" />
 <path d="  M 37,12  L 37,13  L 38,13  L 38,12  Z  " style="fill:rgb(255, 0, 0); fill-opacity:0.533; stroke:none;" />
 <path d="  M 6,12  L 6,11  L 5,11  L 5,12  Z  " style="fill:rgb(255, 94, 94); fill-opacity:0.678; stroke:none;" />
 <path d="  M 6,14  L 6,13  L 5,13  L 5,14  Z  " style="fill:rgb(255, 0, 0); fill-opacity:0.180; stroke:none;" />
 <path d="  M 6,15  L 6,14  L 5,14  L 5,15  Z  " style="fill:rgb(255, 0, 0); fill-opacity:0.067; stroke:none;" />
 <path d="  M 23,23  L 23,24  L 24,24  L 24,23  Z  " style="fill:rgb(255, 0, 0); fill-opacity:0.067; stroke:none;" />
 <path d="  M 7,15  L 5,15  L 5,16  L 7,16  Z  " style="fill:rgb(255, 0, 0); fill-opacity:0.012; stroke:none;" />
 <path d="  M 22,24  L 23,24  L 23,23  L 22,23  Z  " style="fill:rgb(255, 0, 0); fill-opacity:0.012; stroke:none;" />
 <path d="  M 23,28  L 24,28  L 24,27  L 23,27  Z  " style="fill:rgb(255, 0, 0); fill-opacity:0.012; stroke:none;" />
 <path d="  M 24,31  L 24,32  L 25,32  L 25,31  Z  " style="fill:rgb(255, 0, 0); fill-opacity:0.012; stroke:none;" />
 <path d="  M 6,1  L 7,1  L 7,0  L 6,0  Z  " style="fill:rgb(255, 0, 0); fill-opacity:0.145; stroke:none;" />
 <path d="  M 20,21  L 22,21  L 22,20  L 20,20  Z  " style="fill:rgb(255, 0, 0); fill-opacity:0.145; stroke:none;" />
 <path d="  M 24,25  L 25,25  L 25,24  L 24,24  Z  " style="fill:rgb(255, 0, 0); fill-opacity:0.145; stroke:none;" />
 <path d="  M 6,1  L 6,2  L 7,2  L 7,1  Z  " style="fill:rgb(255, 0, 0); fill-opacity:0.302; stroke:none;" />
 <path d="  M 38,20  L 39,20  L 39,19  L 38,19  Z  " style="fill:rgb(255, 0, 0); fill-opacity:0.302; stroke:none;" />
 <path d="  M 39,30  L 39,29  L 38,29  L 38,30  Z  " style="fill:rgb(255, 0, 0); fill-opacity:0.302; stroke:none;" />
 <path d="  M 7,2  L 6,2  L 6,3  L 7,3  Z  " style="fill:rgb(255, 0, 0); fill-opacity:0.518; stroke:none;" />
 <path d="  M 7,11  L 6,11  L 6,12  L 7,12  Z  " style="fill:rgb(255, 91, 91); fill-opacity:0.706; stroke:none;" />
 <path d="  M 6,13  L 7,13  L 7,12  L 6,12  Z  " style="fill:rgb(255, 0, 0); fill-opacity:0.376; stroke:none;" />
 <path d="  M 23,20  L 24,20  L 24,19  L 23,19  Z  " style="fill:rgb(255, 0, 0); fill-opacity:0.376; stroke:none;" />
 <path d="  M 7,15  L 7,14  L 6,14  L 6,15  Z  " style="fill:rgb(255, 0, 0); fill-opacity:0.078; stroke:none;" />
 <path d="  M 7,0  L 7,1  L 29,1  L 29,0  Z  " style="fill:rgb(255, 0, 0); fill-opacity:0.141; stroke:none;" />
 <path d="  M 7,2  L 7,3  L 28,3  L 28,2  Z  " style="fill:rgb(255, 0, 0); fill-opacity:0.510; stroke:none;" />
 <path d="  M 19,15  L 19,16  L 20,16  L 20,15  Z  " style="fill:rgb(255, 0, 0); fill-opacity:0.510; stroke:none;" />
 <path d="  M 25,20  L 25,19  L 24,19  L 24,20  Z  " style="fill:rgb(255, 0, 0); fill-opacity:0.510; stroke:none;" />
 <path d="  M 26,25  L 27,25  L 27,24  L 26,24  Z  " style="fill:rgb(255, 0, 0); fill-opacity:0.510; stroke:none;" />
 <path d="  M 7,12  L 8,12  L 8,11  L 7,11  Z  " style="fill:rgb(255, 89, 89); fill-opacity:0.722; stroke:none;" />
 <path d="  M 7,13  L 8,13  L 8,12  L 7,12  Z  " style="fill:rgb(255, 0, 0); fill-opacity:0.388; stroke:none;" />
 <path d="  M 27,27  L 27,26  L 26,26  L 26,27  Z  " style="fill:rgb(255, 0, 0); fill-opacity:0.388; stroke:none;" />
 <path d="  M 7,13  L 7,14  L 8,14  L 8,13  Z  " style="fill:rgb(255, 0, 0); fill-opacity:0.208; stroke:none;" />
 <path d="  M 37,31  L 36,31  L 36,32  L 37,32  Z  " style="fill:rgb(255, 0, 0); fill-opacity:0.208; stroke:none;" />
 <path d="  M 39,3  L 39,2  L 38,2  L 38,3  Z  " style="fill:rgb(255, 0, 0); fill-opacity:0.208; stroke:none;" />
 <path d="  M 8,15  L 8,14  L 7,14  L 7,15  Z  " style="fill:rgb(255, 0, 0); fill-opacity:0.082; stroke:none;" />
 <path d="  M 13,17  L 13,16  L 12,16  L 12,17  Z  " style="fill:rgb(255, 0, 0); fill-opacity:0.082; stroke:none;" />
 <path d="  M 16,20  L 16,21  L 17,21  L 17,20  Z  " style="fill:rgb(255, 0, 0); fill-opacity:0.082; stroke:none;" />
 <path d="  M 8,12  L 9,12  L 9,11  L 8,11  Z  " style="fill:rgb(255, 88, 88); fill-opacity:0.729; stroke:none;" />
 <path d="  M 8,13  L 9,13  L 9,12  L 8,12  Z  " style="fill:rgb(255, 0, 0); fill-opacity:0.396; stroke:none;" />
 <path d="  M 26,22  L 25,22  L 25,23  L 26,23  Z  " style="fill:rgb(255, 0, 0); fill-opacity:0.396; stroke:none;" />
 <path d="  M 8,14  L 9,14  L 9,13  L 8,13  Z  " style="fill:rgb(255, 0, 0); fill-opacity:0.212; stroke:none;" />
 <path d="  M 25,23  L 25,22  L 24,22  L 24,23  Z  " style="fill:rgb(255, 0, 0); fill-opacity:0.212; stroke:none;" />
 <path d="  M 10,12  L 10,11  L 9,11  L 9,12  Z  " style="fill:rgb(255, 87, 87); fill-opacity:0.733; stroke:none;" />
 <path d="  M 10,12  L 9,12  L 9,13  L 10,13  Z  " style="fill:rgb(255, 0, 0); fill-opacity:0.400; stroke:none;" />
 <path d="  M 31,31  L 31,30  L 30,30  L 30,31  Z  " style="fill:rgb(255, 0, 0); fill-opacity:0.400; stroke:none;" />
 <path d="  M 10,13  L 9,13  L 9,14  L 10,14  Z  " style="fill:rgb(255, 0, 0); fill-opacity:0.216; stroke:none;" />
 <path d="  M 26,27  L 26,26  L 25,26  L 25,27  Z  " style="fill:rgb(255, 0, 0); fill-opacity:0.216; stroke:none;" />
 <path d="  M 11,12  L 11,11  L 10,11  L 10,12  Z  " style="fill:rgb(255, 86, 86); fill-opacity:0.745; stroke:none;" />
 <path d="  M 11,13  L 11,12  L 10,12  L 10,13  Z  " style="fill:rgb(255, 0, 0); fill-opacity:0.416; stroke:none;" />
 <path d="  M 10,14  L 11,14  L 11,13  L 10,13  Z  " style="fill:rgb(255, 0, 0); fill-opacity:0.224; stroke:none;" />
 <path d="  M 13,15  L 13,14  L 12,14  L 12,15  Z  " style="fill:rgb(255, 0, 0); fill-opacity:0.224; stroke:none;" />
 <path d="  M 13,15  L 13,16  L 14,16  L 14,15  Z  " style="fill:rgb(255, 0, 0); fill-opacity:0.224; stroke:none;" />
 <path d="  M 18,20  L 19,20  L 19,19  L 18,19  Z  " style="fill:rgb(255, 0, 0); fill-opacity:0.224; stroke:none;" />
 <path d="  M 30,31  L 30,32  L 31,32  L 31,31  Z  " style="fill:rgb(255, 0, 0); fill-opacity:0.224; stroke:none;" />
 <path d="  M 10,14  L 10,15  L 11,15  L 11,14  Z  " style="fill:rgb(255, 0, 0); fill-opacity:0.094; stroke:none;" />
 <path d="  M 10,15  L 10,16  L 11,16  L 11,15  Z  " style="fill:rgb(255, 0, 0); fill-opacity:0.020; stroke:none;" />
 <path d="  M 23,23  L 23,22  L 22,22  L 22,23  Z  " style="fill:rgb(255, 0, 0); fill-opacity:0.020; stroke:none;" />
 <path d="  M 23,26  L 23,27  L 24,27  L 24,26  Z  " style="fill:rgb(255, 0, 0); fill-opacity:0.020; stroke:none;" />
 <path d="  M 25,31  L 25,30  L 24,30  L 24,31  Z  " style="fill:rgb(255, 0, 0); fill-opacity:0.020; stroke:none;" />
 <path d="  M 12,11  L 11,11  L 11,12  L 12,12  Z  " style="fill:rgb(255, 82, 82); fill-opacity:0.776; stroke:none;" />
 <path d="  M 11,13  L 12,13  L 12,12  L 11,12  Z  " style="fill:rgb(255, 0, 0); fill-opacity:0.463; stroke:none;" />
 <path d="  M 12,13  L 11,13  L 11,14  L 12,14  Z  " style="fill:rgb(255, 0, 0); fill-opacity:0.275; stroke:none;" />
 <path d="  M 16,17  L 15,17  L 15,18  L 16,18  Z  " style="fill:rgb(255, 0, 0); fill-opacity:0.275; stroke:none;" />
 <path d="  M 37,1  L 36,1  L 36,2  L 37,2  Z  " style="fill:rgb(255, 0, 0); fill-opacity:0.275; stroke:none;" />
 <path d="  M 13,11  L 12,11  L 12,12  L 13,12  Z  " style="fill:rgb(255, 82, 82); fill-opacity:0.784; stroke:none;" />
 <path d="  M 15,13  L 15,12  L 14,12  L 14,13  Z  " style="fill:rgb(255, 82, 82); fill-opacity:0.784; stroke:none;" />
 <path d="  M 18,13  L 24,13  L 24,12  L 18,12  Z  " style="fill:rgb(255, 82, 82); fill-opacity:0.784; stroke:none;" />
 <path d="  M 24,13  L 24,15  L 25,15  L 25,13  Z  " style="fill:rgb(255, 82, 82); fill-opacity:0.784; stroke:none;" />
 <path d="  M 13,12  L 12,12  L 12,13  L 13,13  Z  " style="fill:rgb(255, 0, 0); fill-opacity:0.549; stroke:none;" />
 <path d="  M 12,13  L 12,14  L 13,14  L 13,13  Z  " style="fill:rgb(255, 0, 0); fill-opacity:0.361; stroke:none;" />
 <path d="  M 22,19  L 22,18  L 21,18  L 21,19  Z  " style="fill:rgb(255, 0, 0); fill-opacity:0.361; stroke:none;" />
 <path d="  M 12,16  L 13,16  L 13,15  L 12,15  Z  " style="fill:rgb(255, 0, 0); fill-opacity:0.129; stroke:none;" />
 <path d="  M 13,17  L 12,17  L 12,18  L 13,18  Z  " style="fill:rgb(255, 0, 0); fill-opacity:0.051; stroke:none;" />
 <path d="  M 25,28  L 24,28  L 24,29  L 25,29  Z  " style="fill:rgb(255, 0, 0); fill-opacity:0.051; stroke:none;" />
 <path d="  M 13,12  L 13,13  L 14,13  L 14,12  Z  " style="fill:rgb(255, 0, 0); fill-opacity:0.647; stroke:none;" />
 <path d="  M 14,14  L 14,13  L 13,13  L 13,14  Z  " style="fill:rgb(255, 0, 0); fill-opacity:0.467; stroke:none;" />
 <path d="  M 32,31  L 33,31  L 33,30  L 32,30  Z  " style="fill:rgb(255, 0, 0); fill-opacity:0.467; stroke:none;" />
 <path d="  M 13,15  L 14,15  L 14,14  L 13,14  Z  " style="fill:rgb(255, 0, 0); fill-opacity:0.325; stroke:none;" />
 <path d="  M 37,3  L 38,3  L 38,2  L 37,2  Z  " style="fill:rgb(255, 0, 0); fill-opacity:0.325; stroke:none;" />
 <path d="  M 13,17  L 13,18  L 14,18  L 14,17  Z  " style="fill:rgb(255, 0, 0); fill-opacity:0.110; stroke:none;" />
 <path d="  M 26,31  L 27,31  L 27,30  L 26,30  Z  " style="fill:rgb(255, 0, 0); fill-opacity:0.110; stroke:none;" />
 <path d="  M 38,31  L 38,32  L 39,32  L 39,31  Z  " style="fill:rgb(255, 0, 0); fill-opacity:0.110; stroke:none;" />
 <path d="  M 14,18  L 13,18  L 13,19  L 14,19  Z  " style="fill:rgb(255, 0, 0); fill-opacity:0.071; stroke:none;" />
 <path d="  M 15,19  L 14,19  L 14,20  L 15,20  Z  " style="fill:rgb(255, 0, 0); fill-opacity:0.071; stroke:none;" />
 <path d="  M 23,22  L 23,21  L 22,21  L 22,22  Z  " style="fill:rgb(255, 0, 0); fill-opacity:0.071; stroke:none;" />
 <path d="  M 25,27  L 24,27  L 24,28  L 25,28  Z  " style="fill:rgb(255, 0, 0); fill-opacity:0.071; stroke:none;" />
 <path d="  M 14,14  L 15,14  L 15,13  L 14,13  Z  " style="fill:rgb(255, 0, 0); fill-opacity:0.580; stroke:none;" />
 <path d="  M 37,20  L 37,21  L 38,21  L 38,20  Z  " style="fill:rgb(255, 0, 0); fill-opacity:0.580; stroke:none;" />
 <path d="  M 15,14  L 14,14  L 14,15  L 15,15  Z  " style="fill:rgb(255, 0, 0); fill-opacity:0.435; stroke:none;" />
 <path d="  M 14,16  L 15,16  L 15,15  L 14,15  Z  " style="fill:rgb(255, 0, 0); fill-opacity:0.329; stroke:none;" />
 <path d="  M 19,19  L 19,18  L 18,18  L 18,19  Z  " style="fill:rgb(255, 0, 0); fill-opacity:0.329; stroke:none;" />
 <path d="  M 15,18  L 15,17  L 14,17  L 14,18  Z  " style="fill:rgb(255, 0, 0); fill-opacity:0.184; stroke:none;" />
 <path d="  M 27,31  L 28,31  L 28,30  L 27,30  Z  " style="fill:rgb(255, 0, 0); fill-opacity:0.184; stroke:none;" />
 <path d="  M 36,0  L 35,0  L 35,1  L 36,1  Z  " style="fill:rgb(255, 0, 0); fill-opacity:0.184; stroke:none;" />
 <path d="  M 15,20  L 14,20  L 14,21  L 15,21  Z  " style="fill:rgb(255, 0, 0); fill-opacity:0.031; stroke:none;" />
 <path d="  M 17,22  L 18,22  L 18,21  L 17,21  Z  " style="fill:rgb(255, 0, 0); fill-opacity:0.031; stroke:none;" />
 <path d="  M 24,26  L 24,25  L 23,25  L 23,26  Z  " style="fill:rgb(255, 0, 0); fill-opacity:0.031; stroke:none;" />
 <path d="  M 25,32  L 26,32  L 26,31  L 25,31  Z  " style="fill:rgb(255, 0, 0); fill-opacity:0.031; stroke:none;" />
 <path d="  M 15,14  L 16,14  L 16,13  L 15,13  Z  " style="fill:rgb(255, 207, 207); fill-opacity:0.922; stroke:none;" />
 <path d="  M 39,9  L 39,8  L 38,8  L 38,9  Z  " style="fill:rgb(255, 207, 207); fill-opacity:0.922; stroke:none;" />
 <path d="  M 15,14  L 15,15  L 16,15  L 16,14  Z  " style="fill:rgb(255, 215, 215); fill-opacity:0.890; stroke:none;" />
 <path d="  M 37,30  L 37,29  L 36,29  L 36,30  Z  " style="fill:rgb(255, 215, 215); fill-opacity:0.890; stroke:none;" />
 <path d="  M 15,15  L 15,16  L 16,16  L 16,15  Z  " style="fill:rgb(255, 221, 221); fill-opacity:0.863; stroke:none;" />
 <path d="  M 18,17  L 18,18  L 19,18  L 19,17  Z  " style="fill:rgb(255, 221, 221); fill-opacity:0.863; stroke:none;" />
 <path d="  M 16,17  L 16,16  L 15,16  L 15,17  Z  " style="fill:rgb(255, 187, 187); fill-opacity:0.686; stroke:none;" />
 <path d="  M 16,18  L 15,18  L 15,19  L 16,19  Z  " style="fill:rgb(255, 0, 0); fill-opacity:0.188; stroke:none;" />
 <path d="  M 30,32  L 30,31  L 29,31  L 29,32  Z  " style="fill:rgb(255, 0, 0); fill-opacity:0.188; stroke:none;" />
 <path d="  M 15,19  L 15,20  L 16,20  L 16,19  Z  " style="fill:rgb(255, 0, 0); fill-opacity:0.114; stroke:none;" />
 <path d="  M 16,18  L 17,18  L 17,17  L 16,17  Z  " style="fill:rgb(255, 123, 123); fill-opacity:0.522; stroke:none;" />
 <path d="  M 17,19  L 17,18  L 16,18  L 16,19  Z  " style="fill:rgb(255, 0, 0); fill-opacity:0.251; stroke:none;" />
 <path d="  M 21,20  L 22,20  L 22,19  L 21,19  Z  " style="fill:rgb(255, 0, 0); fill-opacity:0.251; stroke:none;" />
 <path d="  M 18,12  L 17,12  L 17,13  L 18,13  Z  " style="fill:rgb(255, 150, 150); fill-opacity:0.855; stroke:none;" />
 <path d="  M 24,13  L 25,13  L 25,12  L 24,12  Z  " style="fill:rgb(255, 150, 150); fill-opacity:0.855; stroke:none;" />
 <path d="  M 25,16  L 25,15  L 24,15  L 24,16  Z  " style="fill:rgb(255, 150, 150); fill-opacity:0.855; stroke:none;" />
 <path d="  M 27,22  L 27,21  L 26,21  L 26,22  Z  " style="fill:rgb(255, 150, 150); fill-opacity:0.855; stroke:none;" />
 <path d="  M 28,25  L 28,24  L 27,24  L 27,25  Z  " style="fill:rgb(255, 150, 150); fill-opacity:0.855; stroke:none;" />
 <path d="  M 34,30  L 34,29  L 32,29  L 32,30  Z  " style="fill:rgb(255, 150, 150); fill-opacity:0.855; stroke:none;" />
 <path d="  M 36,15  L 35,15  L 35,16  L 36,16  Z  " style="fill:rgb(255, 150, 150); fill-opacity:0.855; stroke:none;" />
 <path d="  M 37,13  L 37,12  L 36,12  L 36,13  Z  " style="fill:rgb(255, 150, 150); fill-opacity:0.855; stroke:none;" />
 <path d="  M 37,23  L 38,23  L 38,22  L 37,22  Z  " style="fill:rgb(255, 150, 150); fill-opacity:0.855; stroke:none;" />
 <path d="  M 18,13  L 17,13  L 17,14  L 18,14  Z  " style="fill:rgb(255, 0, 0); fill-opacity:0.710; stroke:none;" />
 <path d="  M 23,15  L 24,15  L 24,13  L 23,13  Z  " style="fill:rgb(255, 0, 0); fill-opacity:0.710; stroke:none;" />
 <path d="  M 25,18  L 25,19  L 26,19  L 26,18  Z  " style="fill:rgb(255, 0, 0); fill-opacity:0.710; stroke:none;" />
 <path d="  M 35,13  L 35,15  L 36,15  L 36,13  Z  " style="fill:rgb(255, 0, 0); fill-opacity:0.710; stroke:none;" />
 <path d="  M 18,14  L 17,14  L 17,15  L 18,15  Z  " style="fill:rgb(255, 0, 0); fill-opacity:0.616; stroke:none;" />
 <path d="  M 17,18  L 18,18  L 18,17  L 17,17  Z  " style="fill:rgb(255, 224, 224); fill-opacity:0.851; stroke:none;" />
 <path d="  M 17,20  L 17,21  L 18,21  L 18,20  Z  " style="fill:rgb(255, 0, 0); fill-opacity:0.106; stroke:none;" />
 <path d="  M 19,14  L 19,13  L 18,13  L 18,14  Z  " style="fill:rgb(255, 0, 0); fill-opacity:0.686; stroke:none;" />
 <path d="  M 23,13  L 22,13  L 22,14  L 23,14  Z  " style="fill:rgb(255, 0, 0); fill-opacity:0.686; stroke:none;" />
 <path d="  M 26,20  L 26,19  L 25,19  L 25,20  Z  " style="fill:rgb(255, 0, 0); fill-opacity:0.686; stroke:none;" />
 <path d="  M 18,14  L 18,15  L 19,15  L 19,14  Z  " style="fill:rgb(255, 0, 0); fill-opacity:0.588; stroke:none;" />
 <path d="  M 19,21  L 19,20  L 18,20  L 18,21  Z  " style="fill:rgb(255, 0, 0); fill-opacity:0.125; stroke:none;" />
 <path d="  M 19,14  L 20,14  L 20,13  L 19,13  Z  " style="fill:rgb(255, 0, 0); fill-opacity:0.639; stroke:none;" />
 <path d="  M 19,15  L 20,15  L 20,14  L 19,14  Z  " style="fill:rgb(255, 0, 0); fill-opacity:0.553; stroke:none;" />
 <path d="  M 39,26  L 39,25  L 38,25  L 38,26  Z  " style="fill:rgb(255, 0, 0); fill-opacity:0.553; stroke:none;" />
 <path d="  M 20,19  L 19,19  L 19,20  L 20,20  Z  " style="fill:rgb(255, 0, 0); fill-opacity:0.243; stroke:none;" />
 <path d="  M 35,32  L 36,32  L 36,31  L 35,31  Z  " style="fill:rgb(255, 0, 0); fill-opacity:0.243; stroke:none;" />
 <path d="  M 39,13  L 38,13  L 38,14  L 39,14  Z  " style="fill:rgb(255, 0, 0); fill-opacity:0.243; stroke:none;" />
 <path d="  M 22,22  L 22,21  L 19,21  L 19,22  Z  " style="fill:rgb(255, 0, 0); fill-opacity:0.043; stroke:none;" />
 <path d="  M 21,13  L 20,13  L 20,14  L 21,14  Z  " style="fill:rgb(255, 0, 0); fill-opacity:0.596; stroke:none;" />
 <path d="  M 21,15  L 21,14  L 20,14  L 20,15  Z  " style="fill:rgb(255, 0, 0); fill-opacity:0.514; stroke:none;" />
 <path d="  M 28,2  L 28,3  L 29,3  L 29,2  Z  " style="fill:rgb(255, 0, 0); fill-opacity:0.514; stroke:none;" />
 <path d="  M 36,15  L 36,16  L 37,16  L 37,15  Z  " style="fill:rgb(255, 0, 0); fill-opacity:0.514; stroke:none;" />
 <path d="  M 38,20  L 38,19  L 37,19  L 37,20  Z  " style="fill:rgb(255, 0, 0); fill-opacity:0.514; stroke:none;" />
 <path d="  M 20,16  L 21,16  L 21,15  L 20,15  Z  " style="fill:rgb(255, 0, 0); fill-opacity:0.482; stroke:none;" />
 <path d="  M 20,17  L 20,18  L 22,18  L 22,17  Z  " style="fill:rgb(255, 220, 220); fill-opacity:0.867; stroke:none;" />
 <path d="  M 21,19  L 21,18  L 20,18  L 20,19  Z  " style="fill:rgb(255, 0, 0); fill-opacity:0.353; stroke:none;" />
 <path d="  M 21,20  L 21,19  L 20,19  L 20,20  Z  " style="fill:rgb(255, 0, 0); fill-opacity:0.247; stroke:none;" />
 <path d="  M 32,31  L 31,31  L 31,32  L 32,32  Z  " style="fill:rgb(255, 0, 0); fill-opacity:0.247; stroke:none;" />
 <path d="  M 38,18  L 38,19  L 39,19  L 39,18  Z  " style="fill:rgb(255, 0, 0); fill-opacity:0.247; stroke:none;" />
 <path d="  M 21,14  L 22,14  L 22,13  L 21,13  Z  " style="fill:rgb(255, 0, 0); fill-opacity:0.612; stroke:none;" />
 <path d="  M 23,15  L 23,14  L 22,14  L 22,15  Z  " style="fill:rgb(255, 0, 0); fill-opacity:0.612; stroke:none;" />
 <path d="  M 37,13  L 36,13  L 36,14  L 37,14  Z  " style="fill:rgb(255, 0, 0); fill-opacity:0.612; stroke:none;" />
 <path d="  M 22,14  L 21,14  L 21,15  L 22,15  Z  " style="fill:rgb(255, 0, 0); fill-opacity:0.529; stroke:none;" />
 <path d="  M 39,5  L 38,5  L 38,6  L 39,6  Z  " style="fill:rgb(255, 0, 0); fill-opacity:0.529; stroke:none;" />
 <path d="  M 22,16  L 22,15  L 21,15  L 21,16  Z  " style="fill:rgb(255, 0, 0); fill-opacity:0.498; stroke:none;" />
 <path d="  M 24,19  L 24,18  L 23,18  L 23,19  Z  " style="fill:rgb(255, 0, 0); fill-opacity:0.498; stroke:none;" />
 <path d="  M 23,15  L 22,15  L 22,16  L 23,16  Z  " style="fill:rgb(255, 0, 0); fill-opacity:0.576; stroke:none;" />
 <path d="  M 25,20  L 25,21  L 26,21  L 26,20  Z  " style="fill:rgb(255, 0, 0); fill-opacity:0.576; stroke:none;" />
 <path d="  M 22,17  L 22,18  L 23,18  L 23,17  Z  " style="fill:rgb(255, 216, 216); fill-opacity:0.882; stroke:none;" />
 <path d="  M 22,19  L 23,19  L 23,18  L 22,18  Z  " style="fill:rgb(255, 0, 0); fill-opacity:0.408; stroke:none;" />
 <path d="  M 38,21  L 38,22  L 39,22  L 39,21  Z  " style="fill:rgb(255, 0, 0); fill-opacity:0.408; stroke:none;" />
 <path d="  M 38,28  L 38,29  L 39,29  L 39,28  Z  " style="fill:rgb(255, 0, 0); fill-opacity:0.408; stroke:none;" />
 <path d="  M 22,19  L 22,20  L 23,20  L 23,19  Z  " style="fill:rgb(255, 0, 0); fill-opacity:0.290; stroke:none;" />
 <path d="  M 23,20  L 22,20  L 22,21  L 23,21  Z  " style="fill:rgb(255, 0, 0); fill-opacity:0.176; stroke:none;" />
 <path d="  M 25,23  L 24,23  L 24,24  L 25,24  Z  " style="fill:rgb(255, 0, 0); fill-opacity:0.176; stroke:none;" />
 <path d="  M 27,29  L 26,29  L 26,30  L 27,30  Z  " style="fill:rgb(255, 0, 0); fill-opacity:0.176; stroke:none;" />
 <path d="  M 31,1  L 32,1  L 32,0  L 31,0  Z  " style="fill:rgb(255, 0, 0); fill-opacity:0.176; stroke:none;" />
 <path d="  M 38,15  L 39,15  L 39,14  L 38,14  Z  " style="fill:rgb(255, 0, 0); fill-opacity:0.176; stroke:none;" />
 <path d="  M 24,16  L 24,15  L 23,15  L 23,16  Z  " style="fill:rgb(255, 0, 0); fill-opacity:0.694; stroke:none;" />
 <path d="  M 24,21  L 23,21  L 23,22  L 24,22  Z  " style="fill:rgb(255, 0, 0); fill-opacity:0.149; stroke:none;" />
 <path d="  M 28,31  L 28,32  L 29,32  L 29,31  Z  " style="fill:rgb(255, 0, 0); fill-opacity:0.149; stroke:none;" />
 <path d="  M 29,0  L 29,1  L 30,1  L 30,0  Z  " style="fill:rgb(255, 0, 0); fill-opacity:0.149; stroke:none;" />
 <path d="  M 37,1  L 37,0  L 36,0  L 36,1  Z  " style="fill:rgb(255, 0, 0); fill-opacity:0.149; stroke:none;" />
 <path d="  M 23,22  L 23,23  L 24,23  L 24,22  Z  " style="fill:rgb(255, 0, 0); fill-opacity:0.090; stroke:none;" />
 <path d="  M 25,26  L 24,26  L 24,27  L 25,27  Z  " style="fill:rgb(255, 0, 0); fill-opacity:0.090; stroke:none;" />
 <path d="  M 26,29  L 25,29  L 25,30  L 26,30  Z  " style="fill:rgb(255, 0, 0); fill-opacity:0.090; stroke:none;" />
 <path d="  M 23,24  L 23,25  L 24,25  L 24,24  Z  " style="fill:rgb(255, 0, 0); fill-opacity:0.047; stroke:none;" />
 <path d="  M 24,18  L 24,19  L 25,19  L 25,18  Z  " style="fill:rgb(255, 0, 0); fill-opacity:0.631; stroke:none;" />
 <path d="  M 25,21  L 25,20  L 24,20  L 24,21  Z  " style="fill:rgb(255, 0, 0); fill-opacity:0.392; stroke:none;" />
 <path d="  M 25,26  L 25,25  L 24,25  L 24,26  Z  " style="fill:rgb(255, 0, 0); fill-opacity:0.118; stroke:none;" />
 <path d="  M 25,22  L 26,22  L 26,21  L 25,21  Z  " style="fill:rgb(255, 0, 0); fill-opacity:0.471; stroke:none;" />
 <path d="  M 33,30  L 33,31  L 34,31  L 34,30  Z  " style="fill:rgb(255, 0, 0); fill-opacity:0.471; stroke:none;" />
 <path d="  M 39,12  L 39,11  L 38,11  L 38,12  Z  " style="fill:rgb(255, 0, 0); fill-opacity:0.471; stroke:none;" />
 <path d="  M 26,23  L 25,23  L 25,24  L 26,24  Z  " style="fill:rgb(255, 0, 0); fill-opacity:0.345; stroke:none;" />
 <path d="  M 25,27  L 25,28  L 26,28  L 26,27  Z  " style="fill:rgb(255, 0, 0); fill-opacity:0.173; stroke:none;" />
 <path d="  M 27,23  L 27,22  L 26,22  L 26,23  Z  " style="fill:rgb(255, 88, 88); fill-opacity:0.725; stroke:none;" />
 <path d="  M 26,24  L 27,24  L 27,23  L 26,23  Z  " style="fill:rgb(255, 0, 0); fill-opacity:0.569; stroke:none;" />
 <path d="  M 32,3  L 32,2  L 31,2  L 31,3  Z  " style="fill:rgb(255, 0, 0); fill-opacity:0.569; stroke:none;" />
 <path d="  M 26,26  L 27,26  L 27,25  L 26,25  Z  " style="fill:rgb(255, 0, 0); fill-opacity:0.451; stroke:none;" />
 <path d="  M 27,31  L 26,31  L 26,32  L 27,32  Z  " style="fill:rgb(255, 0, 0); fill-opacity:0.063; stroke:none;" />
 <path d="  M 39,0  L 38,0  L 38,1  L 39,1  Z  " style="fill:rgb(255, 0, 0); fill-opacity:0.063; stroke:none;" />
 <path d="  M 27,26  L 28,26  L 28,25  L 27,25  Z  " style="fill:rgb(255, 151, 151); fill-opacity:0.847; stroke:none;" />
 <path d="  M 27,27  L 28,27  L 28,26  L 27,26  Z  " style="fill:rgb(255, 90, 90); fill-opacity:0.714; stroke:none;" />
 <path d="  M 27,29  L 27,30  L 28,30  L 28,29  Z  " style="fill:rgb(255, 0, 0); fill-opacity:0.294; stroke:none;" />
 <path d="  M 28,29  L 28,30  L 29,30  L 29,29  Z  " style="fill:rgb(255, 112, 112); fill-opacity:0.573; stroke:none;" />
 <path d="  M 29,31  L 29,30  L 28,30  L 28,31  Z  " style="fill:rgb(255, 0, 0); fill-opacity:0.271; stroke:none;" />
 <path d="  M 29,1  L 29,2  L 30,2  L 30,1  Z  " style="fill:rgb(255, 0, 0); fill-opacity:0.306; stroke:none;" />
 <path d="  M 37,15  L 37,16  L 38,16  L 38,15  Z  " style="fill:rgb(255, 0, 0); fill-opacity:0.306; stroke:none;" />
 <path d="  M 29,30  L 30,30  L 30,29  L 29,29  Z  " style="fill:rgb(255, 166, 166); fill-opacity:0.773; stroke:none;" />
 <path d="  M 29,31  L 30,31  L 30,30  L 29,30  Z  " style="fill:rgb(255, 0, 0); fill-opacity:0.341; stroke:none;" />
 <path d="  M 32,1  L 31,1  L 31,2  L 32,2  Z  " style="fill:rgb(255, 0, 0); fill-opacity:0.341; stroke:none;" />
 <path d="  M 30,29  L 30,30  L 31,30  L 31,29  Z  " style="fill:rgb(255, 157, 157); fill-opacity:0.816; stroke:none;" />
 <path d="  M 31,30  L 32,30  L 32,29  L 31,29  Z  " style="fill:rgb(255, 152, 152); fill-opacity:0.843; stroke:none;" />
 <path d="  M 37,18  L 36,18  L 36,19  L 37,19  Z  " style="fill:rgb(255, 152, 152); fill-opacity:0.843; stroke:none;" />
 <path d="  M 33,2  L 33,1  L 32,1  L 32,2  Z  " style="fill:rgb(255, 0, 0); fill-opacity:0.369; stroke:none;" />
 <path d="  M 37,30  L 36,30  L 36,31  L 37,31  Z  " style="fill:rgb(255, 0, 0); fill-opacity:0.369; stroke:none;" />
 <path d="  M 32,2  L 32,3  L 33,3  L 33,2  Z  " style="fill:rgb(255, 0, 0); fill-opacity:0.600; stroke:none;" />
 <path d="  M 37,18  L 37,17  L 36,17  L 36,18  Z  " style="fill:rgb(255, 0, 0); fill-opacity:0.600; stroke:none;" />
 <path d="  M 32,31  L 32,32  L 33,32  L 33,31  Z  " style="fill:rgb(255, 0, 0); fill-opacity:0.263; stroke:none;" />
 <path d="  M 35,32  L 35,31  L 34,31  L 34,32  Z  " style="fill:rgb(255, 0, 0); fill-opacity:0.263; stroke:none;" />
 <path d="  M 34,0  L 33,0  L 33,1  L 34,1  Z  " style="fill:rgb(255, 0, 0); fill-opacity:0.204; stroke:none;" />
 <path d="  M 33,2  L 34,2  L 34,1  L 33,1  Z  " style="fill:rgb(255, 0, 0); fill-opacity:0.380; stroke:none;" />
 <path d="  M 33,2  L 33,3  L 34,3  L 34,2  Z  " style="fill:rgb(255, 158, 158); fill-opacity:0.812; stroke:none;" />
 <path d="  M 37,4  L 37,5  L 38,5  L 38,4  Z  " style="fill:rgb(255, 158, 158); fill-opacity:0.812; stroke:none;" />
 <path d="  M 38,6  L 38,7  L 39,7  L 39,6  Z  " style="fill:rgb(255, 158, 158); fill-opacity:0.812; stroke:none;" />
 <path d="  M 33,32  L 34,32  L 34,31  L 33,31  Z  " style="fill:rgb(255, 0, 0); fill-opacity:0.267; stroke:none;" />
 <path d="  M 35,0  L 34,0  L 34,1  L 35,1  Z  " style="fill:rgb(255, 0, 0); fill-opacity:0.200; stroke:none;" />
 <path d="  M 35,2  L 35,1  L 34,1  L 34,2  Z  " style="fill:rgb(255, 0, 0); fill-opacity:0.373; stroke:none;" />
 <path d="  M 37,17  L 37,18  L 38,18  L 38,17  Z  " style="fill:rgb(255, 0, 0); fill-opacity:0.373; stroke:none;" />
 <path d="  M 34,2  L 34,3  L 35,3  L 35,2  Z  " style="fill:rgb(255, 160, 160); fill-opacity:0.800; stroke:none;" />
 <path d="  M 34,30  L 34,31  L 35,31  L 35,30  Z  " style="fill:rgb(255, 0, 0); fill-opacity:0.459; stroke:none;" />
 <path d="  M 35,2  L 36,2  L 36,1  L 35,1  Z  " style="fill:rgb(255, 0, 0); fill-opacity:0.337; stroke:none;" />
 <path d="  M 35,3  L 36,3  L 36,2  L 35,2  Z  " style="fill:rgb(255, 216, 216); fill-opacity:0.886; stroke:none;" />
 <path d="  M 35,29  L 35,30  L 36,30  L 36,29  Z  " style="fill:rgb(255, 209, 209); fill-opacity:0.914; stroke:none;" />
 <path d="  M 36,31  L 36,30  L 35,30  L 35,31  Z  " style="fill:rgb(255, 0, 0); fill-opacity:0.424; stroke:none;" />
 <path d="  M 36,3  L 36,4  L 37,4  L 37,3  Z  " style="fill:rgb(255, 210, 210); fill-opacity:0.910; stroke:none;" />
 <path d="  M 38,4  L 38,3  L 37,3  L 37,4  Z  " style="fill:rgb(255, 0, 0); fill-opacity:0.475; stroke:none;" />
 <path d="  M 38,12  L 38,11  L 37,11  L 37,12  Z  " style="fill:rgb(255, 208, 208); fill-opacity:0.918; stroke:none;" />
 <path d="  M 38,15  L 38,14  L 37,14  L 37,15  Z  " style="fill:rgb(255, 0, 0); fill-opacity:0.333; stroke:none;" />
 <path d="  M 38,18  L 37,18  L 37,19  L 38,19  Z  " style="fill:rgb(255, 0, 0); fill-opacity:0.443; stroke:none;" />
 <path d="  M 38,30  L 37,30  L 37,31  L 38,31  Z  " style="fill:rgb(255, 0, 0); fill-opacity:0.286; stroke:none;" />
 <path d="  M 38,5  L 39,5  L 39,4  L 38,4  Z  " style="fill:rgb(255, 0, 0); fill-opacity:0.420; stroke:none;" />
 <path d="  M 38,7  L 38,8  L 39,8  L 39,7  Z  " style="fill:rgb(255, 153, 153); fill-opacity:0.839; stroke:none;" />
 <path d="  M 39,10  L 38,10  L 38,11  L 39,11  Z  " style="fill:rgb(255, 214, 214); fill-opacity:0.894; stroke:none;" />
 <path d="  M 38,15  L 38,16  L 39,16  L 39,15  Z  " style="fill:rgb(255, 0, 0); fill-opacity:0.153; stroke:none;" />
 <path d="  M 39,21  L 39,20  L 38,20  L 38,21  Z  " style="fill:rgb(255, 0, 0); fill-opacity:0.357; stroke:none;" />
 <path d="  M 39,22  L 38,22  L 38,23  L 39,23  Z  " style="fill:rgb(255, 0, 0); fill-opacity:0.455; stroke:none;" />
 <path d="  M 39,23  L 38,23  L 38,24  L 39,24  Z  " style="fill:rgb(255, 0, 0); fill-opacity:0.502; stroke:none;" />
 <path d="  M 38,27  L 39,27  L 39,26  L 38,26  Z  " style="fill:rgb(255, 98, 98); fill-opacity:0.655; stroke:none;" />
 <path d="  M 39,27  L 38,27  L 38,28  L 39,28  Z  " style="fill:rgb(255, 103, 103); fill-opacity:0.620; stroke:none;" />
</svg>
