<?xml version="1.0" encoding="UTF-8" standalone="no"?>
<!DOCTYPE svg PUBLIC "-//W3C//DTD SVG 1.1//EN" 
  "http://www.w3.org/Graphics/SVG/1.1/DTD/svg11.dtd">
<svg width="38" height="32"
	 xmlns="http://www.w3.org/2000/svg" version="1.1">
 <path d="  M 1,1  L 1,0  L 0,0  L 0,1  Z  " style="fill:rgb(255, 0, 0); fill-opacity:0.176; stroke:none;" />
 <path d="  M 8,14  L 8,15  L 9,15  L 9,14  Z  " style="fill:rgb(255, 0, 0); fill-opacity:0.176; stroke:none;" />
 <path d="  M 25,31  L 25,30  L 24,30  L 24,31  Z  " style="fill:rgb(255, 0, 0); fill-opacity:0.176; stroke:none;" />
 <path d="  M 25,32  L 26,32  L 26,31  L 25,31  Z  " style="fill:rgb(255, 0, 0); fill-opacity:0.176; stroke:none;" />
 <path d="  M 37,30  L 36,30  L 36,31  L 37,31  Z  " style="fill:rgb(255, 0, 0); fill-opacity:0.176; stroke:none;" />
 <path d="  M 0,1  L 0,2  L 1,2  L 1,1  Z  " style="fill:rgb(255, 0, 0); fill-opacity:0.302; stroke:none;" />
 <path d="  M 8,14  L 9,14  L 9,13  L 8,13  Z  " style="fill:rgb(255, 0, 0); fill-opacity:0.302; stroke:none;" />
 <path d="  M 12,1  L 12,0  L 11,0  L 11,1  Z  " style="fill:rgb(255, 0, 0); fill-opacity:0.302; stroke:none;" />
 <path d="  M 12,16  L 13,16  L 13,15  L 12,15  Z  " style="fill:rgb(255, 0, 0); fill-opacity:0.302; stroke:none;" />
 <path d="  M 21,19  L 21,18  L 20,18  L 20,19  Z  " style="fill:rgb(255, 0, 0); fill-opacity:0.302; stroke:none;" />
 <path d="  M 21,20  L 22,20  L 22,19  L 21,19  Z  " style="fill:rgb(255, 0, 0); fill-opacity:0.302; stroke:none;" />
 <path d="  M 38,18  L 37,18  L 37,19  L 38,19  Z  " style="fill:rgb(255, 0, 0); fill-opacity:0.302; stroke:none;" />
 <path d="  M 1,2  L 0,2  L 0,3  L 1,3  Z  " style="fill:rgb(255, 175, 175); fill-opacity:0.729; stroke:none;" />
 <path d="  M 19,17  L 20,17  L 20,16  L 19,16  Z  " style="fill:rgb(255, 175, 175); fill-opacity:0.729; stroke:none;" />
 <path d="  M 1,3  L 0,3  L 0,4  L 1,4  Z  " style="fill:rgb(255, 214, 214); fill-opacity:0.894; stroke:none;" />
 <path d="  M 1,5  L 1,4  L 0,4  L 0,5  Z  " style="fill:rgb(255, 208, 208); fill-opacity:0.918; stroke:none;" />
 <path d="  M 26,29  L 27,29  L 27,28  L 26,28  Z  " style="fill:rgb(255, 208, 208); fill-opacity:0.918; stroke:none;" />
 <path d="  M 1,5  L 0,5  L 0,9  L 1,9  Z  " style="fill:rgb(255, 206, 206); fill-opacity:0.925; stroke:none;" />
 <path d="  M 13,11  L 12,11  L 12,12  L 13,12  Z  " style="fill:rgb(255, 206, 206); fill-opacity:0.925; stroke:none;" />
 <path d="  M 19,4  L 19,3  L 13,3  L 13,4  Z  " style="fill:rgb(255, 206, 206); fill-opacity:0.925; stroke:none;" />
 <path d="  M 20,3  L 20,2  L 19,2  L 19,3  Z  " style="fill:rgb(255, 206, 206); fill-opacity:0.925; stroke:none;" />
 <path d="  M 21,12  L 21,11  L 20,11  L 20,12  Z  " style="fill:rgb(255, 206, 206); fill-opacity:0.925; stroke:none;" />
 <path d="  M 22,14  L 21,14  L 21,15  L 22,15  Z  " style="fill:rgb(255, 206, 206); fill-opacity:0.925; stroke:none;" />
 <path d="  M 25,21  L 25,20  L 24,20  L 24,21  Z  " style="fill:rgb(255, 206, 206); fill-opacity:0.925; stroke:none;" />
 <path d="  M 26,23  L 25,23  L 25,24  L 26,24  Z  " style="fill:rgb(255, 206, 206); fill-opacity:0.925; stroke:none;" />
 <path d="  M 26,28  L 27,28  L 27,27  L 26,27  Z  " style="fill:rgb(255, 206, 206); fill-opacity:0.925; stroke:none;" />
 <path d="  M 31,30  L 31,29  L 29,29  L 29,30  Z  " style="fill:rgb(255, 206, 206); fill-opacity:0.925; stroke:none;" />
 <path d="  M 33,12  L 33,13  L 34,13  L 34,12  Z  " style="fill:rgb(255, 206, 206); fill-opacity:0.925; stroke:none;" />
 <path d="  M 35,12  L 35,11  L 34,11  L 34,12  Z  " style="fill:rgb(255, 206, 206); fill-opacity:0.925; stroke:none;" />
 <path d="  M 35,17  L 35,16  L 34,16  L 34,17  Z  " style="fill:rgb(255, 206, 206); fill-opacity:0.925; stroke:none;" />
 <path d="  M 0,10  L 1,10  L 1,9  L 0,9  Z  " style="fill:rgb(255, 212, 212); fill-opacity:0.902; stroke:none;" />
 <path d="  M 11,13  L 12,13  L 12,12  L 11,12  Z  " style="fill:rgb(255, 212, 212); fill-opacity:0.902; stroke:none;" />
 <path d="  M 0,11  L 1,11  L 1,10  L 0,10  Z  " style="fill:rgb(255, 218, 218); fill-opacity:0.875; stroke:none;" />
 <path d="  M 37,28  L 38,28  L 38,27  L 37,27  Z  " style="fill:rgb(255, 218, 218); fill-opacity:0.875; stroke:none;" />
 <path d="  M 0,11  L 0,12  L 1,12  L 1,11  Z  " style="fill:rgb(255, 125, 125); fill-opacity:0.514; stroke:none;" />
 <path d="  M 1,13  L 1,12  L 0,12  L 0,13  Z  " style="fill:rgb(255, 0, 0); fill-opacity:0.220; stroke:none;" />
 <path d="  M 1,14  L 1,13  L 0,13  L 0,14  Z  " style="fill:rgb(255, 0, 0); fill-opacity:0.122; stroke:none;" />
 <path d="  M 18,20  L 18,19  L 14,19  L 14,20  Z  " style="fill:rgb(255, 0, 0); fill-opacity:0.122; stroke:none;" />
 <path d="  M 38,30  L 37,30  L 37,31  L 38,31  Z  " style="fill:rgb(255, 0, 0); fill-opacity:0.122; stroke:none;" />
 <path d="  M 1,15  L 1,14  L 0,14  L 0,15  Z  " style="fill:rgb(255, 0, 0); fill-opacity:0.047; stroke:none;" />
 <path d="  M 23,30  L 23,29  L 22,29  L 22,30  Z  " style="fill:rgb(255, 0, 0); fill-opacity:0.047; stroke:none;" />
 <path d="  M 1,15  L 0,15  L 0,16  L 1,16  Z  " style="fill:rgb(255, 0, 0); fill-opacity:0.008; stroke:none;" />
 <path d="  M 7,20  L 8,20  L 8,19  L 7,19  Z  " style="fill:rgb(255, 0, 0); fill-opacity:0.008; stroke:none;" />
 <path d="  M 12,21  L 11,21  L 11,22  L 12,22  Z  " style="fill:rgb(255, 0, 0); fill-opacity:0.008; stroke:none;" />
 <path d="  M 21,31  L 22,31  L 22,27  L 21,27  Z  " style="fill:rgb(255, 0, 0); fill-opacity:0.008; stroke:none;" />
 <path d="  M 1,1  L 2,1  L 2,0  L 1,0  Z  " style="fill:rgb(255, 0, 0); fill-opacity:0.235; stroke:none;" />
 <path d="  M 13,0  L 13,1  L 14,1  L 14,0  Z  " style="fill:rgb(255, 0, 0); fill-opacity:0.235; stroke:none;" />
 <path d="  M 37,17  L 37,18  L 38,18  L 38,17  Z  " style="fill:rgb(255, 0, 0); fill-opacity:0.235; stroke:none;" />
 <path d="  M 2,2  L 2,1  L 1,1  L 1,2  Z  " style="fill:rgb(255, 0, 0); fill-opacity:0.400; stroke:none;" />
 <path d="  M 6,13  L 7,13  L 7,12  L 6,12  Z  " style="fill:rgb(255, 0, 0); fill-opacity:0.400; stroke:none;" />
 <path d="  M 15,14  L 15,15  L 16,15  L 16,14  Z  " style="fill:rgb(255, 0, 0); fill-opacity:0.400; stroke:none;" />
 <path d="  M 13,4  L 13,2  L 1,2  L 1,11  L 11,11  L 11,12  L 12,12  L 12,11  L 18,11  L 18,14  L 19,14  L 19,11  L 21,11  L 21,13  L 22,13  L 22,15  L 21,15  L 21,17  L 24,17  L 24,20  L 25,20  L 25,23  L 26,23  L 26,27  L 27,27  L 27,29  L 26,29  L 26,30  L 29,30  L 29,29  L 35,29  L 35,28  L 37,28  L 37,21  L 36,21  L 36,19  L 35,19  L 35,17  L 34,17  L 34,14  L 33,14  L 33,12  L 34,12  L 34,11  L 36,11  L 36,10  L 37,10  L 37,6  L 36,6  L 36,4  L 35,4  L 35,3  L 33,3  L 33,2  L 20,2  L 20,3  L 19,3  L 19,4  Z  " style="fill:rgb(255, 255, 255); fill-opacity:1.000; stroke:none;" />
 <path d="  M 13,17  L 13,16  L 11,16  L 11,17  Z  " style="fill:rgb(255, 255, 255); fill-opacity:1.000; stroke:none;" />
 <path d="  M 1,11  L 1,12  L 2,12  L 2,11  Z  " style="fill:rgb(255, 107, 107); fill-opacity:0.596; stroke:none;" />
 <path d="  M 1,13  L 2,13  L 2,12  L 1,12  Z  " style="fill:rgb(255, 0, 0); fill-opacity:0.286; stroke:none;" />
 <path d="  M 27,32  L 28,32  L 28,31  L 27,31  Z  " style="fill:rgb(255, 0, 0); fill-opacity:0.286; stroke:none;" />
 <path d="  M 32,0  L 32,1  L 33,1  L 33,0  Z  " style="fill:rgb(255, 0, 0); fill-opacity:0.286; stroke:none;" />
 <path d="  M 1,13  L 1,14  L 2,14  L 2,13  Z  " style="fill:rgb(255, 0, 0); fill-opacity:0.157; stroke:none;" />
 <path d="  M 9,16  L 10,16  L 10,15  L 9,15  Z  " style="fill:rgb(255, 0, 0); fill-opacity:0.157; stroke:none;" />
 <path d="  M 35,32  L 35,31  L 34,31  L 34,32  Z  " style="fill:rgb(255, 0, 0); fill-opacity:0.157; stroke:none;" />
 <path d="  M 38,14  L 38,13  L 37,13  L 37,14  Z  " style="fill:rgb(255, 0, 0); fill-opacity:0.157; stroke:none;" />
 <path d="  M 2,14  L 1,14  L 1,15  L 2,15  Z  " style="fill:rgb(255, 0, 0); fill-opacity:0.063; stroke:none;" />
 <path d="  M 11,20  L 11,19  L 10,19  L 10,20  Z  " style="fill:rgb(255, 0, 0); fill-opacity:0.063; stroke:none;" />
 <path d="  M 16,20  L 14,20  L 14,21  L 16,21  Z  " style="fill:rgb(255, 0, 0); fill-opacity:0.063; stroke:none;" />
 <path d="  M 19,21  L 19,20  L 18,20  L 18,21  Z  " style="fill:rgb(255, 0, 0); fill-opacity:0.063; stroke:none;" />
 <path d="  M 23,27  L 22,27  L 22,28  L 23,28  Z  " style="fill:rgb(255, 0, 0); fill-opacity:0.063; stroke:none;" />
 <path d="  M 23,31  L 23,32  L 24,32  L 24,31  Z  " style="fill:rgb(255, 0, 0); fill-opacity:0.063; stroke:none;" />
 <path d="  M 1,15  L 1,16  L 3,16  L 3,15  Z  " style="fill:rgb(255, 0, 0); fill-opacity:0.012; stroke:none;" />
 <path d="  M 9,20  L 8,20  L 8,21  L 9,21  Z  " style="fill:rgb(255, 0, 0); fill-opacity:0.012; stroke:none;" />
 <path d="  M 12,21  L 12,22  L 14,22  L 14,21  Z  " style="fill:rgb(255, 0, 0); fill-opacity:0.012; stroke:none;" />
 <path d="  M 21,24  L 21,23  L 20,23  L 20,24  Z  " style="fill:rgb(255, 0, 0); fill-opacity:0.012; stroke:none;" />
 <path d="  M 3,0  L 2,0  L 2,1  L 3,1  Z  " style="fill:rgb(255, 0, 0); fill-opacity:0.282; stroke:none;" />
 <path d="  M 25,28  L 24,28  L 24,29  L 25,29  Z  " style="fill:rgb(255, 0, 0); fill-opacity:0.282; stroke:none;" />
 <path d="  M 2,2  L 3,2  L 3,1  L 2,1  Z  " style="fill:rgb(255, 0, 0); fill-opacity:0.475; stroke:none;" />
 <path d="  M 8,13  L 9,13  L 9,12  L 8,12  Z  " style="fill:rgb(255, 0, 0); fill-opacity:0.475; stroke:none;" />
 <path d="  M 12,1  L 12,2  L 13,2  L 13,1  Z  " style="fill:rgb(255, 0, 0); fill-opacity:0.475; stroke:none;" />
 <path d="  M 15,14  L 16,14  L 16,13  L 15,13  Z  " style="fill:rgb(255, 0, 0); fill-opacity:0.475; stroke:none;" />
 <path d="  M 2,12  L 3,12  L 3,11  L 2,11  Z  " style="fill:rgb(255, 98, 98); fill-opacity:0.655; stroke:none;" />
 <path d="  M 3,12  L 2,12  L 2,13  L 3,13  Z  " style="fill:rgb(255, 0, 0); fill-opacity:0.341; stroke:none;" />
 <path d="  M 9,1  L 9,0  L 5,0  L 5,1  Z  " style="fill:rgb(255, 0, 0); fill-opacity:0.341; stroke:none;" />
 <path d="  M 14,16  L 15,16  L 15,15  L 14,15  Z  " style="fill:rgb(255, 0, 0); fill-opacity:0.341; stroke:none;" />
 <path d="  M 29,1  L 29,0  L 24,0  L 24,1  Z  " style="fill:rgb(255, 0, 0); fill-opacity:0.341; stroke:none;" />
 <path d="  M 2,14  L 3,14  L 3,13  L 2,13  Z  " style="fill:rgb(255, 0, 0); fill-opacity:0.180; stroke:none;" />
 <path d="  M 14,18  L 13,18  L 13,19  L 14,19  Z  " style="fill:rgb(255, 0, 0); fill-opacity:0.180; stroke:none;" />
 <path d="  M 17,1  L 17,0  L 16,0  L 16,1  Z  " style="fill:rgb(255, 0, 0); fill-opacity:0.180; stroke:none;" />
 <path d="  M 3,14  L 2,14  L 2,15  L 3,15  Z  " style="fill:rgb(255, 0, 0); fill-opacity:0.071; stroke:none;" />
 <path d="  M 3,0  L 3,1  L 4,1  L 4,0  Z  " style="fill:rgb(255, 0, 0); fill-opacity:0.314; stroke:none;" />
 <path d="  M 13,15  L 13,16  L 14,16  L 14,15  Z  " style="fill:rgb(255, 0, 0); fill-opacity:0.314; stroke:none;" />
 <path d="  M 21,1  L 22,1  L 22,0  L 21,0  Z  " style="fill:rgb(255, 0, 0); fill-opacity:0.314; stroke:none;" />
 <path d="  M 31,1  L 32,1  L 32,0  L 31,0  Z  " style="fill:rgb(255, 0, 0); fill-opacity:0.314; stroke:none;" />
 <path d="  M 4,2  L 4,1  L 3,1  L 3,2  Z  " style="fill:rgb(255, 0, 0); fill-opacity:0.525; stroke:none;" />
 <path d="  M 3,12  L 4,12  L 4,11  L 3,11  Z  " style="fill:rgb(255, 91, 91); fill-opacity:0.702; stroke:none;" />
 <path d="  M 37,23  L 38,23  L 38,22  L 37,22  Z  " style="fill:rgb(255, 91, 91); fill-opacity:0.702; stroke:none;" />
 <path d="  M 4,12  L 3,12  L 3,13  L 4,13  Z  " style="fill:rgb(255, 0, 0); fill-opacity:0.373; stroke:none;" />
 <path d="  M 37,13  L 37,12  L 36,12  L 36,13  Z  " style="fill:rgb(255, 0, 0); fill-opacity:0.373; stroke:none;" />
 <path d="  M 3,14  L 4,14  L 4,13  L 3,13  Z  " style="fill:rgb(255, 0, 0); fill-opacity:0.200; stroke:none;" />
 <path d="  M 21,20  L 21,21  L 22,21  L 22,20  Z  " style="fill:rgb(255, 0, 0); fill-opacity:0.200; stroke:none;" />
 <path d="  M 5,15  L 5,14  L 3,14  L 3,15  Z  " style="fill:rgb(255, 0, 0); fill-opacity:0.082; stroke:none;" />
 <path d="  M 22,22  L 21,22  L 21,23  L 22,23  Z  " style="fill:rgb(255, 0, 0); fill-opacity:0.082; stroke:none;" />
 <path d="  M 37,1  L 37,0  L 36,0  L 36,1  Z  " style="fill:rgb(255, 0, 0); fill-opacity:0.082; stroke:none;" />
 <path d="  M 7,16  L 7,15  L 3,15  L 3,16  Z  " style="fill:rgb(255, 0, 0); fill-opacity:0.016; stroke:none;" />
 <path d="  M 7,19  L 8,19  L 8,18  L 7,18  Z  " style="fill:rgb(255, 0, 0); fill-opacity:0.016; stroke:none;" />
 <path d="  M 20,22  L 20,21  L 14,21  L 14,22  Z  " style="fill:rgb(255, 0, 0); fill-opacity:0.016; stroke:none;" />
 <path d="  M 22,27  L 22,26  L 21,26  L 21,27  Z  " style="fill:rgb(255, 0, 0); fill-opacity:0.016; stroke:none;" />
 <path d="  M 4,1  L 5,1  L 5,0  L 4,0  Z  " style="fill:rgb(255, 0, 0); fill-opacity:0.333; stroke:none;" />
 <path d="  M 10,1  L 10,0  L 9,0  L 9,1  Z  " style="fill:rgb(255, 0, 0); fill-opacity:0.333; stroke:none;" />
 <path d="  M 4,2  L 5,2  L 5,1  L 4,1  Z  " style="fill:rgb(255, 0, 0); fill-opacity:0.557; stroke:none;" />
 <path d="  M 5,12  L 5,11  L 4,11  L 4,12  Z  " style="fill:rgb(255, 88, 88); fill-opacity:0.725; stroke:none;" />
 <path d="  M 4,13  L 5,13  L 5,12  L 4,12  Z  " style="fill:rgb(255, 0, 0); fill-opacity:0.392; stroke:none;" />
 <path d="  M 6,14  L 6,13  L 4,13  L 4,14  Z  " style="fill:rgb(255, 0, 0); fill-opacity:0.212; stroke:none;" />
 <path d="  M 9,2  L 9,1  L 5,1  L 5,2  Z  " style="fill:rgb(255, 0, 0); fill-opacity:0.565; stroke:none;" />
 <path d="  M 29,2  L 29,1  L 24,1  L 24,2  Z  " style="fill:rgb(255, 0, 0); fill-opacity:0.565; stroke:none;" />
 <path d="  M 7,11  L 5,11  L 5,12  L 7,12  Z  " style="fill:rgb(255, 88, 88); fill-opacity:0.729; stroke:none;" />
 <path d="  M 5,12  L 5,13  L 6,13  L 6,12  Z  " style="fill:rgb(255, 0, 0); fill-opacity:0.396; stroke:none;" />
 <path d="  M 5,14  L 5,15  L 7,15  L 7,14  Z  " style="fill:rgb(255, 0, 0); fill-opacity:0.086; stroke:none;" />
 <path d="  M 6,13  L 6,14  L 7,14  L 7,13  Z  " style="fill:rgb(255, 0, 0); fill-opacity:0.216; stroke:none;" />
 <path d="  M 10,15  L 10,16  L 11,16  L 11,15  Z  " style="fill:rgb(255, 0, 0); fill-opacity:0.216; stroke:none;" />
 <path d="  M 7,12  L 8,12  L 8,11  L 7,11  Z  " style="fill:rgb(255, 85, 85); fill-opacity:0.749; stroke:none;" />
 <path d="  M 7,13  L 8,13  L 8,12  L 7,12  Z  " style="fill:rgb(255, 0, 0); fill-opacity:0.435; stroke:none;" />
 <path d="  M 7,13  L 7,14  L 8,14  L 8,13  Z  " style="fill:rgb(255, 0, 0); fill-opacity:0.255; stroke:none;" />
 <path d="  M 35,2  L 36,2  L 36,1  L 35,1  Z  " style="fill:rgb(255, 0, 0); fill-opacity:0.255; stroke:none;" />
 <path d="  M 8,15  L 8,14  L 7,14  L 7,15  Z  " style="fill:rgb(255, 0, 0); fill-opacity:0.125; stroke:none;" />
 <path d="  M 18,20  L 19,20  L 19,19  L 18,19  Z  " style="fill:rgb(255, 0, 0); fill-opacity:0.125; stroke:none;" />
 <path d="  M 22,21  L 21,21  L 21,22  L 22,22  Z  " style="fill:rgb(255, 0, 0); fill-opacity:0.125; stroke:none;" />
 <path d="  M 22,24  L 22,25  L 23,25  L 23,24  Z  " style="fill:rgb(255, 0, 0); fill-opacity:0.125; stroke:none;" />
 <path d="  M 38,15  L 38,14  L 37,14  L 37,15  Z  " style="fill:rgb(255, 0, 0); fill-opacity:0.125; stroke:none;" />
 <path d="  M 7,16  L 8,16  L 8,15  L 7,15  Z  " style="fill:rgb(255, 0, 0); fill-opacity:0.051; stroke:none;" />
 <path d="  M 12,21  L 13,21  L 13,20  L 12,20  Z  " style="fill:rgb(255, 0, 0); fill-opacity:0.051; stroke:none;" />
 <path d="  M 38,31  L 37,31  L 37,32  L 38,32  Z  " style="fill:rgb(255, 0, 0); fill-opacity:0.051; stroke:none;" />
 <path d="  M 8,16  L 7,16  L 7,17  L 8,17  Z  " style="fill:rgb(255, 0, 0); fill-opacity:0.031; stroke:none;" />
 <path d="  M 11,20  L 10,20  L 10,21  L 11,21  Z  " style="fill:rgb(255, 0, 0); fill-opacity:0.031; stroke:none;" />
 <path d="  M 8,17  L 7,17  L 7,18  L 8,18  Z  " style="fill:rgb(255, 0, 0); fill-opacity:0.024; stroke:none;" />
 <path d="  M 8,19  L 8,20  L 9,20  L 9,19  Z  " style="fill:rgb(255, 0, 0); fill-opacity:0.024; stroke:none;" />
 <path d="  M 22,26  L 22,25  L 21,25  L 21,26  Z  " style="fill:rgb(255, 0, 0); fill-opacity:0.024; stroke:none;" />
 <path d="  M 23,32  L 23,31  L 22,31  L 22,32  Z  " style="fill:rgb(255, 0, 0); fill-opacity:0.024; stroke:none;" />
 <path d="  M 8,20  L 7,20  L 7,21  L 8,21  Z  " style="fill:rgb(255, 0, 0); fill-opacity:0.004; stroke:none;" />
 <path d="  M 11,22  L 11,21  L 9,21  L 9,22  Z  " style="fill:rgb(255, 0, 0); fill-opacity:0.004; stroke:none;" />
 <path d="  M 20,24  L 20,25  L 21,25  L 21,24  Z  " style="fill:rgb(255, 0, 0); fill-opacity:0.004; stroke:none;" />
 <path d="  M 21,31  L 21,32  L 22,32  L 22,31  Z  " style="fill:rgb(255, 0, 0); fill-opacity:0.004; stroke:none;" />
 <path d="  M 8,12  L 9,12  L 9,11  L 8,11  Z  " style="fill:rgb(255, 82, 82); fill-opacity:0.776; stroke:none;" />
 <path d="  M 9,15  L 8,15  L 8,16  L 9,16  Z  " style="fill:rgb(255, 0, 0); fill-opacity:0.102; stroke:none;" />
 <path d="  M 11,18  L 10,18  L 10,19  L 11,19  Z  " style="fill:rgb(255, 0, 0); fill-opacity:0.102; stroke:none;" />
 <path d="  M 8,17  L 9,17  L 9,16  L 8,16  Z  " style="fill:rgb(255, 0, 0); fill-opacity:0.075; stroke:none;" />
 <path d="  M 23,27  L 23,26  L 22,26  L 22,27  Z  " style="fill:rgb(255, 0, 0); fill-opacity:0.075; stroke:none;" />
 <path d="  M 8,17  L 8,18  L 9,18  L 9,17  Z  " style="fill:rgb(255, 0, 0); fill-opacity:0.055; stroke:none;" />
 <path d="  M 23,29  L 23,28  L 22,28  L 22,29  Z  " style="fill:rgb(255, 0, 0); fill-opacity:0.055; stroke:none;" />
 <path d="  M 8,19  L 9,19  L 9,18  L 8,18  Z  " style="fill:rgb(255, 0, 0); fill-opacity:0.035; stroke:none;" />
 <path d="  M 22,24  L 21,24  L 21,25  L 22,25  Z  " style="fill:rgb(255, 0, 0); fill-opacity:0.035; stroke:none;" />
 <path d="  M 23,30  L 22,30  L 22,31  L 23,31  Z  " style="fill:rgb(255, 0, 0); fill-opacity:0.035; stroke:none;" />
 <path d="  M 9,2  L 10,2  L 10,1  L 9,1  Z  " style="fill:rgb(255, 0, 0); fill-opacity:0.561; stroke:none;" />
 <path d="  M 11,13  L 11,12  L 10,12  L 10,13  Z  " style="fill:rgb(255, 0, 0); fill-opacity:0.561; stroke:none;" />
 <path d="  M 24,1  L 23,1  L 23,2  L 24,2  Z  " style="fill:rgb(255, 0, 0); fill-opacity:0.561; stroke:none;" />
 <path d="  M 29,1  L 29,2  L 30,2  L 30,1  Z  " style="fill:rgb(255, 0, 0); fill-opacity:0.561; stroke:none;" />
 <path d="  M 36,12  L 35,12  L 35,13  L 36,13  Z  " style="fill:rgb(255, 0, 0); fill-opacity:0.561; stroke:none;" />
 <path d="  M 10,12  L 10,11  L 9,11  L 9,12  Z  " style="fill:rgb(255, 82, 82); fill-opacity:0.784; stroke:none;" />
 <path d="  M 13,11  L 13,12  L 17,12  L 17,11  Z  " style="fill:rgb(255, 82, 82); fill-opacity:0.784; stroke:none;" />
 <path d="  M 19,12  L 20,12  L 20,11  L 19,11  Z  " style="fill:rgb(255, 82, 82); fill-opacity:0.784; stroke:none;" />
 <path d="  M 22,17  L 22,18  L 23,18  L 23,17  Z  " style="fill:rgb(255, 82, 82); fill-opacity:0.784; stroke:none;" />
 <path d="  M 24,19  L 24,18  L 23,18  L 23,19  Z  " style="fill:rgb(255, 82, 82); fill-opacity:0.784; stroke:none;" />
 <path d="  M 10,12  L 9,12  L 9,13  L 10,13  Z  " style="fill:rgb(255, 0, 0); fill-opacity:0.518; stroke:none;" />
 <path d="  M 29,31  L 30,31  L 30,30  L 29,30  Z  " style="fill:rgb(255, 0, 0); fill-opacity:0.518; stroke:none;" />
 <path d="  M 10,13  L 9,13  L 9,14  L 10,14  Z  " style="fill:rgb(255, 0, 0); fill-opacity:0.349; stroke:none;" />
 <path d="  M 16,2  L 17,2  L 17,1  L 16,1  Z  " style="fill:rgb(255, 0, 0); fill-opacity:0.349; stroke:none;" />
 <path d="  M 37,4  L 37,5  L 38,5  L 38,4  Z  " style="fill:rgb(255, 0, 0); fill-opacity:0.349; stroke:none;" />
 <path d="  M 10,15  L 10,14  L 9,14  L 9,15  Z  " style="fill:rgb(255, 0, 0); fill-opacity:0.231; stroke:none;" />
 <path d="  M 19,19  L 20,19  L 20,18  L 19,18  Z  " style="fill:rgb(255, 0, 0); fill-opacity:0.231; stroke:none;" />
 <path d="  M 9,16  L 9,17  L 10,17  L 10,16  Z  " style="fill:rgb(255, 0, 0); fill-opacity:0.129; stroke:none;" />
 <path d="  M 23,29  L 23,30  L 24,30  L 24,29  Z  " style="fill:rgb(255, 0, 0); fill-opacity:0.129; stroke:none;" />
 <path d="  M 9,18  L 10,18  L 10,17  L 9,17  Z  " style="fill:rgb(255, 0, 0); fill-opacity:0.098; stroke:none;" />
 <path d="  M 10,18  L 9,18  L 9,19  L 10,19  Z  " style="fill:rgb(255, 0, 0); fill-opacity:0.067; stroke:none;" />
 <path d="  M 19,21  L 20,21  L 20,20  L 19,20  Z  " style="fill:rgb(255, 0, 0); fill-opacity:0.067; stroke:none;" />
 <path d="  M 9,19  L 9,20  L 10,20  L 10,19  Z  " style="fill:rgb(255, 0, 0); fill-opacity:0.039; stroke:none;" />
 <path d="  M 10,21  L 10,20  L 9,20  L 9,21  Z  " style="fill:rgb(255, 0, 0); fill-opacity:0.020; stroke:none;" />
 <path d="  M 21,22  L 20,22  L 20,23  L 21,23  Z  " style="fill:rgb(255, 0, 0); fill-opacity:0.020; stroke:none;" />
 <path d="  M 11,0  L 10,0  L 10,1  L 11,1  Z  " style="fill:rgb(255, 0, 0); fill-opacity:0.322; stroke:none;" />
 <path d="  M 23,23  L 23,24  L 24,24  L 24,23  Z  " style="fill:rgb(255, 0, 0); fill-opacity:0.322; stroke:none;" />
 <path d="  M 37,30  L 37,29  L 36,29  L 36,30  Z  " style="fill:rgb(255, 0, 0); fill-opacity:0.322; stroke:none;" />
 <path d="  M 10,1  L 10,2  L 11,2  L 11,1  Z  " style="fill:rgb(255, 0, 0); fill-opacity:0.541; stroke:none;" />
 <path d="  M 24,20  L 23,20  L 23,21  L 24,21  Z  " style="fill:rgb(255, 0, 0); fill-opacity:0.541; stroke:none;" />
 <path d="  M 11,12  L 11,11  L 10,11  L 10,12  Z  " style="fill:rgb(255, 150, 150); fill-opacity:0.855; stroke:none;" />
 <path d="  M 17,11  L 17,12  L 18,12  L 18,11  Z  " style="fill:rgb(255, 150, 150); fill-opacity:0.855; stroke:none;" />
 <path d="  M 21,14  L 22,14  L 22,13  L 21,13  Z  " style="fill:rgb(255, 150, 150); fill-opacity:0.855; stroke:none;" />
 <path d="  M 24,18  L 24,17  L 23,17  L 23,18  Z  " style="fill:rgb(255, 150, 150); fill-opacity:0.855; stroke:none;" />
 <path d="  M 26,25  L 26,24  L 25,24  L 25,25  Z  " style="fill:rgb(255, 150, 150); fill-opacity:0.855; stroke:none;" />
 <path d="  M 31,30  L 32,30  L 32,29  L 31,29  Z  " style="fill:rgb(255, 150, 150); fill-opacity:0.855; stroke:none;" />
 <path d="  M 33,14  L 34,14  L 34,13  L 33,13  Z  " style="fill:rgb(255, 150, 150); fill-opacity:0.855; stroke:none;" />
 <path d="  M 34,15  L 34,16  L 35,16  L 35,15  Z  " style="fill:rgb(255, 150, 150); fill-opacity:0.855; stroke:none;" />
 <path d="  M 36,18  L 35,18  L 35,19  L 36,19  Z  " style="fill:rgb(255, 150, 150); fill-opacity:0.855; stroke:none;" />
 <path d="  M 10,14  L 11,14  L 11,13  L 10,13  Z  " style="fill:rgb(255, 0, 0); fill-opacity:0.404; stroke:none;" />
 <path d="  M 10,14  L 10,15  L 11,15  L 11,14  Z  " style="fill:rgb(255, 0, 0); fill-opacity:0.290; stroke:none;" />
 <path d="  M 20,1  L 21,1  L 21,0  L 20,0  Z  " style="fill:rgb(255, 0, 0); fill-opacity:0.290; stroke:none;" />
 <path d="  M 11,17  L 11,16  L 10,16  L 10,17  Z  " style="fill:rgb(255, 0, 0); fill-opacity:0.188; stroke:none;" />
 <path d="  M 17,19  L 17,18  L 16,18  L 16,19  Z  " style="fill:rgb(255, 0, 0); fill-opacity:0.188; stroke:none;" />
 <path d="  M 10,17  L 10,18  L 11,18  L 11,17  Z  " style="fill:rgb(255, 0, 0); fill-opacity:0.145; stroke:none;" />
 <path d="  M 12,1  L 11,1  L 11,2  L 12,2  Z  " style="fill:rgb(255, 0, 0); fill-opacity:0.514; stroke:none;" />
 <path d="  M 34,30  L 35,30  L 35,29  L 34,29  Z  " style="fill:rgb(255, 0, 0); fill-opacity:0.514; stroke:none;" />
 <path d="  M 12,13  L 11,13  L 11,14  L 12,14  Z  " style="fill:rgb(255, 221, 221); fill-opacity:0.863; stroke:none;" />
 <path d="  M 11,14  L 11,15  L 12,15  L 12,14  Z  " style="fill:rgb(255, 228, 228); fill-opacity:0.839; stroke:none;" />
 <path d="  M 17,15  L 16,15  L 16,16  L 17,16  Z  " style="fill:rgb(255, 228, 228); fill-opacity:0.839; stroke:none;" />
 <path d="  M 12,16  L 12,15  L 11,15  L 11,16  Z  " style="fill:rgb(255, 233, 233); fill-opacity:0.820; stroke:none;" />
 <path d="  M 12,17  L 11,17  L 11,18  L 12,18  Z  " style="fill:rgb(255, 157, 157); fill-opacity:0.408; stroke:none;" />
 <path d="  M 12,18  L 11,18  L 11,19  L 12,19  Z  " style="fill:rgb(255, 0, 0); fill-opacity:0.141; stroke:none;" />
 <path d="  M 12,19  L 11,19  L 11,20  L 12,20  Z  " style="fill:rgb(255, 0, 0); fill-opacity:0.090; stroke:none;" />
 <path d="  M 38,2  L 38,1  L 37,1  L 37,2  Z  " style="fill:rgb(255, 0, 0); fill-opacity:0.090; stroke:none;" />
 <path d="  M 12,21  L 12,20  L 11,20  L 11,21  Z  " style="fill:rgb(255, 0, 0); fill-opacity:0.043; stroke:none;" />
 <path d="  M 20,21  L 20,22  L 21,22  L 21,21  Z  " style="fill:rgb(255, 0, 0); fill-opacity:0.043; stroke:none;" />
 <path d="  M 37,0  L 37,1  L 38,1  L 38,0  Z  " style="fill:rgb(255, 0, 0); fill-opacity:0.043; stroke:none;" />
 <path d="  M 13,1  L 13,0  L 12,0  L 12,1  Z  " style="fill:rgb(255, 0, 0); fill-opacity:0.275; stroke:none;" />
 <path d="  M 36,3  L 37,3  L 37,2  L 36,2  Z  " style="fill:rgb(255, 0, 0); fill-opacity:0.275; stroke:none;" />
 <path d="  M 13,12  L 12,12  L 12,13  L 13,13  Z  " style="fill:rgb(255, 0, 0); fill-opacity:0.588; stroke:none;" />
 <path d="  M 12,13  L 12,14  L 13,14  L 13,13  Z  " style="fill:rgb(255, 0, 0); fill-opacity:0.447; stroke:none;" />
 <path d="  M 37,5  L 37,6  L 38,6  L 38,5  Z  " style="fill:rgb(255, 0, 0); fill-opacity:0.447; stroke:none;" />
 <path d="  M 13,15  L 13,14  L 12,14  L 12,15  Z  " style="fill:rgb(255, 0, 0); fill-opacity:0.353; stroke:none;" />
 <path d="  M 38,29  L 38,28  L 37,28  L 37,29  Z  " style="fill:rgb(255, 0, 0); fill-opacity:0.353; stroke:none;" />
 <path d="  M 13,17  L 12,17  L 12,18  L 13,18  Z  " style="fill:rgb(255, 150, 150); fill-opacity:0.427; stroke:none;" />
 <path d="  M 12,18  L 12,19  L 13,19  L 13,18  Z  " style="fill:rgb(255, 0, 0); fill-opacity:0.169; stroke:none;" />
 <path d="  M 23,28  L 24,28  L 24,27  L 23,27  Z  " style="fill:rgb(255, 0, 0); fill-opacity:0.169; stroke:none;" />
 <path d="  M 13,19  L 12,19  L 12,20  L 13,20  Z  " style="fill:rgb(255, 0, 0); fill-opacity:0.106; stroke:none;" />
 <path d="  M 13,2  L 14,2  L 14,1  L 13,1  Z  " style="fill:rgb(255, 0, 0); fill-opacity:0.427; stroke:none;" />
 <path d="  M 33,2  L 34,2  L 34,1  L 33,1  Z  " style="fill:rgb(255, 0, 0); fill-opacity:0.427; stroke:none;" />
 <path d="  M 13,2  L 13,3  L 14,3  L 14,2  Z  " style="fill:rgb(255, 153, 153); fill-opacity:0.839; stroke:none;" />
 <path d="  M 37,6  L 37,5  L 36,5  L 36,6  Z  " style="fill:rgb(255, 153, 153); fill-opacity:0.839; stroke:none;" />
 <path d="  M 13,12  L 13,13  L 14,13  L 14,12  Z  " style="fill:rgb(255, 0, 0); fill-opacity:0.573; stroke:none;" />
 <path d="  M 14,14  L 14,13  L 13,13  L 13,14  Z  " style="fill:rgb(255, 0, 0); fill-opacity:0.443; stroke:none;" />
 <path d="  M 13,15  L 14,15  L 14,14  L 13,14  Z  " style="fill:rgb(255, 0, 0); fill-opacity:0.357; stroke:none;" />
 <path d="  M 16,2  L 16,1  L 15,1  L 15,2  Z  " style="fill:rgb(255, 0, 0); fill-opacity:0.357; stroke:none;" />
 <path d="  M 14,16  L 13,16  L 13,17  L 14,17  Z  " style="fill:rgb(255, 197, 197); fill-opacity:0.651; stroke:none;" />
 <path d="  M 13,17  L 13,18  L 14,18  L 14,17  Z  " style="fill:rgb(255, 144, 144); fill-opacity:0.443; stroke:none;" />
 <path d="  M 13,19  L 13,20  L 14,20  L 14,19  Z  " style="fill:rgb(255, 0, 0); fill-opacity:0.118; stroke:none;" />
 <path d="  M 14,21  L 14,20  L 13,20  L 13,21  Z  " style="fill:rgb(255, 0, 0); fill-opacity:0.059; stroke:none;" />
 <path d="  M 18,21  L 18,20  L 16,20  L 16,21  Z  " style="fill:rgb(255, 0, 0); fill-opacity:0.059; stroke:none;" />
 <path d="  M 22,23  L 21,23  L 21,24  L 22,24  Z  " style="fill:rgb(255, 0, 0); fill-opacity:0.059; stroke:none;" />
 <path d="  M 15,0  L 14,0  L 14,1  L 15,1  Z  " style="fill:rgb(255, 0, 0); fill-opacity:0.204; stroke:none;" />
 <path d="  M 14,1  L 14,2  L 15,2  L 15,1  Z  " style="fill:rgb(255, 0, 0); fill-opacity:0.380; stroke:none;" />
 <path d="  M 15,14  L 14,14  L 14,15  L 15,15  Z  " style="fill:rgb(255, 0, 0); fill-opacity:0.380; stroke:none;" />
 <path d="  M 23,22  L 23,23  L 24,23  L 24,22  Z  " style="fill:rgb(255, 0, 0); fill-opacity:0.380; stroke:none;" />
 <path d="  M 15,2  L 14,2  L 14,3  L 15,3  Z  " style="fill:rgb(255, 0, 0); fill-opacity:0.616; stroke:none;" />
 <path d="  M 15,13  L 15,12  L 14,12  L 14,13  Z  " style="fill:rgb(255, 0, 0); fill-opacity:0.584; stroke:none;" />
 <path d="  M 14,14  L 15,14  L 15,13  L 14,13  Z  " style="fill:rgb(255, 0, 0); fill-opacity:0.463; stroke:none;" />
 <path d="  M 26,29  L 26,28  L 25,28  L 25,29  Z  " style="fill:rgb(255, 0, 0); fill-opacity:0.463; stroke:none;" />
 <path d="  M 31,30  L 31,31  L 32,31  L 32,30  Z  " style="fill:rgb(255, 0, 0); fill-opacity:0.463; stroke:none;" />
 <path d="  M 14,16  L 14,17  L 15,17  L 15,16  Z  " style="fill:rgb(255, 193, 193); fill-opacity:0.663; stroke:none;" />
 <path d="  M 15,18  L 15,17  L 14,17  L 14,18  Z  " style="fill:rgb(255, 142, 142); fill-opacity:0.451; stroke:none;" />
 <path d="  M 15,18  L 14,18  L 14,19  L 15,19  Z  " style="fill:rgb(255, 0, 0); fill-opacity:0.192; stroke:none;" />
 <path d="  M 21,20  L 21,19  L 20,19  L 20,20  Z  " style="fill:rgb(255, 0, 0); fill-opacity:0.192; stroke:none;" />
 <path d="  M 33,32  L 34,32  L 34,31  L 33,31  Z  " style="fill:rgb(255, 0, 0); fill-opacity:0.192; stroke:none;" />
 <path d="  M 35,0  L 34,0  L 34,1  L 35,1  Z  " style="fill:rgb(255, 0, 0); fill-opacity:0.192; stroke:none;" />
 <path d="  M 16,1  L 16,0  L 15,0  L 15,1  Z  " style="fill:rgb(255, 0, 0); fill-opacity:0.184; stroke:none;" />
 <path d="  M 16,2  L 15,2  L 15,3  L 16,3  Z  " style="fill:rgb(255, 0, 0); fill-opacity:0.580; stroke:none;" />
 <path d="  M 22,19  L 23,19  L 23,18  L 22,18  Z  " style="fill:rgb(255, 0, 0); fill-opacity:0.580; stroke:none;" />
 <path d="  M 15,12  L 15,13  L 16,13  L 16,12  Z  " style="fill:rgb(255, 0, 0); fill-opacity:0.600; stroke:none;" />
 <path d="  M 18,2  L 17,2  L 17,3  L 18,3  Z  " style="fill:rgb(255, 0, 0); fill-opacity:0.600; stroke:none;" />
 <path d="  M 36,20  L 37,20  L 37,19  L 36,19  Z  " style="fill:rgb(255, 0, 0); fill-opacity:0.600; stroke:none;" />
 <path d="  M 15,15  L 15,16  L 16,16  L 16,15  Z  " style="fill:rgb(255, 189, 189); fill-opacity:0.678; stroke:none;" />
 <path d="  M 16,17  L 16,16  L 15,16  L 15,17  Z  " style="fill:rgb(255, 191, 191); fill-opacity:0.671; stroke:none;" />
 <path d="  M 15,17  L 15,18  L 17,18  L 17,17  Z  " style="fill:rgb(255, 141, 141); fill-opacity:0.455; stroke:none;" />
 <path d="  M 16,18  L 15,18  L 15,19  L 16,19  Z  " style="fill:rgb(255, 0, 0); fill-opacity:0.196; stroke:none;" />
 <path d="  M 17,0  L 17,1  L 18,1  L 18,0  Z  " style="fill:rgb(255, 0, 0); fill-opacity:0.196; stroke:none;" />
 <path d="  M 18,19  L 18,18  L 17,18  L 17,19  Z  " style="fill:rgb(255, 0, 0); fill-opacity:0.196; stroke:none;" />
 <path d="  M 23,26  L 23,27  L 24,27  L 24,26  Z  " style="fill:rgb(255, 0, 0); fill-opacity:0.196; stroke:none;" />
 <path d="  M 16,3  L 17,3  L 17,2  L 16,2  Z  " style="fill:rgb(255, 0, 0); fill-opacity:0.576; stroke:none;" />
 <path d="  M 16,12  L 16,13  L 17,13  L 17,12  Z  " style="fill:rgb(255, 0, 0); fill-opacity:0.612; stroke:none;" />
 <path d="  M 17,14  L 17,13  L 16,13  L 16,14  Z  " style="fill:rgb(255, 0, 0); fill-opacity:0.490; stroke:none;" />
 <path d="  M 33,2  L 33,1  L 32,1  L 32,2  Z  " style="fill:rgb(255, 0, 0); fill-opacity:0.490; stroke:none;" />
 <path d="  M 16,15  L 17,15  L 17,14  L 16,14  Z  " style="fill:rgb(255, 0, 0); fill-opacity:0.408; stroke:none;" />
 <path d="  M 18,2  L 19,2  L 19,1  L 18,1  Z  " style="fill:rgb(255, 0, 0); fill-opacity:0.408; stroke:none;" />
 <path d="  M 16,17  L 17,17  L 17,16  L 16,16  Z  " style="fill:rgb(255, 192, 192); fill-opacity:0.667; stroke:none;" />
 <path d="  M 18,2  L 18,1  L 17,1  L 17,2  Z  " style="fill:rgb(255, 0, 0); fill-opacity:0.369; stroke:none;" />
 <path d="  M 25,26  L 24,26  L 24,27  L 25,27  Z  " style="fill:rgb(255, 0, 0); fill-opacity:0.369; stroke:none;" />
 <path d="  M 18,12  L 17,12  L 17,13  L 18,13  Z  " style="fill:rgb(255, 84, 84); fill-opacity:0.761; stroke:none;" />
 <path d="  M 18,13  L 17,13  L 17,14  L 18,14  Z  " style="fill:rgb(255, 95, 95); fill-opacity:0.671; stroke:none;" />
 <path d="  M 18,14  L 17,14  L 17,15  L 18,15  Z  " style="fill:rgb(255, 220, 220); fill-opacity:0.867; stroke:none;" />
 <path d="  M 17,15  L 17,16  L 18,16  L 18,15  Z  " style="fill:rgb(255, 181, 181); fill-opacity:0.706; stroke:none;" />
 <path d="  M 18,17  L 18,16  L 17,16  L 17,17  Z  " style="fill:rgb(255, 188, 188); fill-opacity:0.682; stroke:none;" />
 <path d="  M 17,18  L 18,18  L 18,17  L 17,17  Z  " style="fill:rgb(255, 137, 137); fill-opacity:0.467; stroke:none;" />
 <path d="  M 19,1  L 19,0  L 18,0  L 18,1  Z  " style="fill:rgb(255, 0, 0); fill-opacity:0.224; stroke:none;" />
 <path d="  M 24,26  L 24,25  L 23,25  L 23,26  Z  " style="fill:rgb(255, 0, 0); fill-opacity:0.224; stroke:none;" />
 <path d="  M 37,12  L 37,13  L 38,13  L 38,12  Z  " style="fill:rgb(255, 0, 0); fill-opacity:0.224; stroke:none;" />
 <path d="  M 37,29  L 37,30  L 38,30  L 38,29  Z  " style="fill:rgb(255, 0, 0); fill-opacity:0.224; stroke:none;" />
 <path d="  M 18,2  L 18,3  L 19,3  L 19,2  Z  " style="fill:rgb(255, 87, 87); fill-opacity:0.737; stroke:none;" />
 <path d="  M 18,14  L 18,15  L 19,15  L 19,14  Z  " style="fill:rgb(255, 166, 166); fill-opacity:0.773; stroke:none;" />
 <path d="  M 19,16  L 19,15  L 18,15  L 18,16  Z  " style="fill:rgb(255, 0, 0); fill-opacity:0.467; stroke:none;" />
 <path d="  M 24,25  L 25,25  L 25,24  L 24,24  Z  " style="fill:rgb(255, 0, 0); fill-opacity:0.467; stroke:none;" />
 <path d="  M 19,16  L 18,16  L 18,17  L 19,17  Z  " style="fill:rgb(255, 182, 182); fill-opacity:0.702; stroke:none;" />
 <path d="  M 18,17  L 18,18  L 19,18  L 19,17  Z  " style="fill:rgb(255, 133, 133); fill-opacity:0.482; stroke:none;" />
 <path d="  M 19,19  L 19,18  L 18,18  L 18,19  Z  " style="fill:rgb(255, 0, 0); fill-opacity:0.208; stroke:none;" />
 <path d="  M 23,23  L 23,22  L 22,22  L 22,23  Z  " style="fill:rgb(255, 0, 0); fill-opacity:0.208; stroke:none;" />
 <path d="  M 20,0  L 19,0  L 19,1  L 20,1  Z  " style="fill:rgb(255, 0, 0); fill-opacity:0.259; stroke:none;" />
 <path d="  M 23,22  L 23,21  L 22,21  L 22,22  Z  " style="fill:rgb(255, 0, 0); fill-opacity:0.259; stroke:none;" />
 <path d="  M 19,1  L 19,2  L 20,2  L 20,1  Z  " style="fill:rgb(255, 0, 0); fill-opacity:0.455; stroke:none;" />
 <path d="  M 22,19  L 22,20  L 23,20  L 23,19  Z  " style="fill:rgb(255, 0, 0); fill-opacity:0.455; stroke:none;" />
 <path d="  M 37,20  L 37,21  L 38,21  L 38,20  Z  " style="fill:rgb(255, 0, 0); fill-opacity:0.455; stroke:none;" />
 <path d="  M 19,12  L 19,14  L 20,14  L 20,15  L 21,15  L 21,12  Z  " style="fill:rgb(255, 0, 0); fill-opacity:0.710; stroke:none;" />
 <path d="  M 34,13  L 35,13  L 35,12  L 34,12  Z  " style="fill:rgb(255, 0, 0); fill-opacity:0.710; stroke:none;" />
 <path d="  M 19,15  L 20,15  L 20,14  L 19,14  Z  " style="fill:rgb(255, 0, 0); fill-opacity:0.620; stroke:none;" />
 <path d="  M 19,15  L 19,16  L 20,16  L 20,15  Z  " style="fill:rgb(255, 0, 0); fill-opacity:0.529; stroke:none;" />
 <path d="  M 25,27  L 25,28  L 26,28  L 26,27  Z  " style="fill:rgb(255, 0, 0); fill-opacity:0.529; stroke:none;" />
 <path d="  M 38,6  L 37,6  L 37,7  L 38,7  Z  " style="fill:rgb(255, 0, 0); fill-opacity:0.529; stroke:none;" />
 <path d="  M 20,17  L 19,17  L 19,18  L 20,18  Z  " style="fill:rgb(255, 126, 126); fill-opacity:0.510; stroke:none;" />
 <path d="  M 20,19  L 19,19  L 19,20  L 20,20  Z  " style="fill:rgb(255, 0, 0); fill-opacity:0.137; stroke:none;" />
 <path d="  M 36,0  L 35,0  L 35,1  L 36,1  Z  " style="fill:rgb(255, 0, 0); fill-opacity:0.137; stroke:none;" />
 <path d="  M 20,2  L 21,2  L 21,1  L 20,1  Z  " style="fill:rgb(255, 0, 0); fill-opacity:0.498; stroke:none;" />
 <path d="  M 37,12  L 37,11  L 36,11  L 36,12  Z  " style="fill:rgb(255, 0, 0); fill-opacity:0.498; stroke:none;" />
 <path d="  M 20,16  L 21,16  L 21,15  L 20,15  Z  " style="fill:rgb(255, 0, 0); fill-opacity:0.643; stroke:none;" />
 <path d="  M 20,16  L 20,17  L 21,17  L 21,16  Z  " style="fill:rgb(255, 165, 165); fill-opacity:0.776; stroke:none;" />
 <path d="  M 20,17  L 20,18  L 21,18  L 21,17  Z  " style="fill:rgb(255, 112, 112); fill-opacity:0.573; stroke:none;" />
 <path d="  M 21,20  L 20,20  L 20,21  L 21,21  Z  " style="fill:rgb(255, 0, 0); fill-opacity:0.110; stroke:none;" />
 <path d="  M 22,2  L 22,1  L 21,1  L 21,2  Z  " style="fill:rgb(255, 0, 0); fill-opacity:0.533; stroke:none;" />
 <path d="  M 32,1  L 31,1  L 31,2  L 32,2  Z  " style="fill:rgb(255, 0, 0); fill-opacity:0.533; stroke:none;" />
 <path d="  M 38,21  L 37,21  L 37,22  L 38,22  Z  " style="fill:rgb(255, 0, 0); fill-opacity:0.533; stroke:none;" />
 <path d="  M 21,17  L 21,18  L 22,18  L 22,17  Z  " style="fill:rgb(255, 95, 95); fill-opacity:0.675; stroke:none;" />
 <path d="  M 22,19  L 22,18  L 21,18  L 21,19  Z  " style="fill:rgb(255, 0, 0); fill-opacity:0.424; stroke:none;" />
 <path d="  M 22,0  L 22,1  L 23,1  L 23,0  Z  " style="fill:rgb(255, 0, 0); fill-opacity:0.329; stroke:none;" />
 <path d="  M 31,1  L 31,0  L 30,0  L 30,1  Z  " style="fill:rgb(255, 0, 0); fill-opacity:0.329; stroke:none;" />
 <path d="  M 22,2  L 23,2  L 23,1  L 22,1  Z  " style="fill:rgb(255, 0, 0); fill-opacity:0.553; stroke:none;" />
 <path d="  M 31,2  L 31,1  L 30,1  L 30,2  Z  " style="fill:rgb(255, 0, 0); fill-opacity:0.553; stroke:none;" />
 <path d="  M 35,16  L 35,17  L 36,17  L 36,16  Z  " style="fill:rgb(255, 0, 0); fill-opacity:0.553; stroke:none;" />
 <path d="  M 23,20  L 22,20  L 22,21  L 23,21  Z  " style="fill:rgb(255, 0, 0); fill-opacity:0.345; stroke:none;" />
 <path d="  M 35,2  L 35,1  L 34,1  L 34,2  Z  " style="fill:rgb(255, 0, 0); fill-opacity:0.345; stroke:none;" />
 <path d="  M 22,24  L 23,24  L 23,23  L 22,23  Z  " style="fill:rgb(255, 0, 0); fill-opacity:0.161; stroke:none;" />
 <path d="  M 37,3  L 38,3  L 38,2  L 37,2  Z  " style="fill:rgb(255, 0, 0); fill-opacity:0.161; stroke:none;" />
 <path d="  M 23,25  L 22,25  L 22,26  L 23,26  Z  " style="fill:rgb(255, 0, 0); fill-opacity:0.094; stroke:none;" />
 <path d="  M 23,31  L 24,31  L 24,30  L 23,30  Z  " style="fill:rgb(255, 0, 0); fill-opacity:0.094; stroke:none;" />
 <path d="  M 23,1  L 24,1  L 24,0  L 23,0  Z  " style="fill:rgb(255, 0, 0); fill-opacity:0.337; stroke:none;" />
 <path d="  M 29,0  L 29,1  L 30,1  L 30,0  Z  " style="fill:rgb(255, 0, 0); fill-opacity:0.337; stroke:none;" />
 <path d="  M 37,16  L 36,16  L 36,17  L 37,17  Z  " style="fill:rgb(255, 0, 0); fill-opacity:0.337; stroke:none;" />
 <path d="  M 23,20  L 24,20  L 24,19  L 23,19  Z  " style="fill:rgb(255, 0, 0); fill-opacity:0.651; stroke:none;" />
 <path d="  M 25,25  L 25,26  L 26,26  L 26,25  Z  " style="fill:rgb(255, 0, 0); fill-opacity:0.651; stroke:none;" />
 <path d="  M 24,21  L 23,21  L 23,22  L 24,22  Z  " style="fill:rgb(255, 0, 0); fill-opacity:0.451; stroke:none;" />
 <path d="  M 35,15  L 36,15  L 36,14  L 35,14  Z  " style="fill:rgb(255, 0, 0); fill-opacity:0.451; stroke:none;" />
 <path d="  M 23,24  L 23,25  L 24,25  L 24,24  Z  " style="fill:rgb(255, 0, 0); fill-opacity:0.267; stroke:none;" />
 <path d="  M 23,29  L 24,29  L 24,28  L 23,28  Z  " style="fill:rgb(255, 0, 0); fill-opacity:0.149; stroke:none;" />
 <path d="  M 24,21  L 24,22  L 25,22  L 25,21  Z  " style="fill:rgb(255, 151, 151); fill-opacity:0.847; stroke:none;" />
 <path d="  M 36,20  L 36,21  L 37,21  L 37,20  Z  " style="fill:rgb(255, 151, 151); fill-opacity:0.847; stroke:none;" />
 <path d="  M 25,23  L 25,22  L 24,22  L 24,23  Z  " style="fill:rgb(255, 90, 90); fill-opacity:0.714; stroke:none;" />
 <path d="  M 25,23  L 24,23  L 24,24  L 25,24  Z  " style="fill:rgb(255, 0, 0); fill-opacity:0.537; stroke:none;" />
 <path d="  M 25,26  L 25,25  L 24,25  L 24,26  Z  " style="fill:rgb(255, 0, 0); fill-opacity:0.412; stroke:none;" />
 <path d="  M 35,3  L 36,3  L 36,2  L 35,2  Z  " style="fill:rgb(255, 0, 0); fill-opacity:0.412; stroke:none;" />
 <path d="  M 36,3  L 36,4  L 37,4  L 37,3  Z  " style="fill:rgb(255, 0, 0); fill-opacity:0.412; stroke:none;" />
 <path d="  M 25,27  L 24,27  L 24,28  L 25,28  Z  " style="fill:rgb(255, 0, 0); fill-opacity:0.325; stroke:none;" />
 <path d="  M 38,12  L 38,11  L 37,11  L 37,12  Z  " style="fill:rgb(255, 0, 0); fill-opacity:0.325; stroke:none;" />
 <path d="  M 24,30  L 25,30  L 25,29  L 24,29  Z  " style="fill:rgb(255, 0, 0); fill-opacity:0.239; stroke:none;" />
 <path d="  M 24,31  L 24,32  L 25,32  L 25,31  Z  " style="fill:rgb(255, 0, 0); fill-opacity:0.114; stroke:none;" />
 <path d="  M 35,32  L 36,32  L 36,31  L 35,31  Z  " style="fill:rgb(255, 0, 0); fill-opacity:0.114; stroke:none;" />
 <path d="  M 26,27  L 26,26  L 25,26  L 25,27  Z  " style="fill:rgb(255, 0, 0); fill-opacity:0.592; stroke:none;" />
 <path d="  M 26,29  L 25,29  L 25,30  L 26,30  Z  " style="fill:rgb(255, 184, 184); fill-opacity:0.694; stroke:none;" />
 <path d="  M 26,30  L 25,30  L 25,31  L 26,31  Z  " style="fill:rgb(255, 139, 139); fill-opacity:0.459; stroke:none;" />
 <path d="  M 26,31  L 27,31  L 27,30  L 26,30  Z  " style="fill:rgb(255, 119, 119); fill-opacity:0.537; stroke:none;" />
 <path d="  M 27,31  L 26,31  L 26,32  L 27,32  Z  " style="fill:rgb(255, 0, 0); fill-opacity:0.243; stroke:none;" />
 <path d="  M 34,0  L 33,0  L 33,1  L 34,1  Z  " style="fill:rgb(255, 0, 0); fill-opacity:0.243; stroke:none;" />
 <path d="  M 36,31  L 36,30  L 35,30  L 35,31  Z  " style="fill:rgb(255, 0, 0); fill-opacity:0.243; stroke:none;" />
 <path d="  M 27,31  L 28,31  L 28,30  L 27,30  Z  " style="fill:rgb(255, 175, 175); fill-opacity:0.733; stroke:none;" />
 <path d="  M 29,31  L 29,30  L 28,30  L 28,31  Z  " style="fill:rgb(255, 0, 0); fill-opacity:0.506; stroke:none;" />
 <path d="  M 37,18  L 36,18  L 36,19  L 37,19  Z  " style="fill:rgb(255, 0, 0); fill-opacity:0.506; stroke:none;" />
 <path d="  M 28,31  L 28,32  L 30,32  L 30,31  Z  " style="fill:rgb(255, 0, 0); fill-opacity:0.310; stroke:none;" />
 <path d="  M 31,31  L 31,30  L 30,30  L 30,31  Z  " style="fill:rgb(255, 0, 0); fill-opacity:0.502; stroke:none;" />
 <path d="  M 30,31  L 30,32  L 31,32  L 31,31  Z  " style="fill:rgb(255, 0, 0); fill-opacity:0.294; stroke:none;" />
 <path d="  M 37,13  L 36,13  L 36,14  L 37,14  Z  " style="fill:rgb(255, 0, 0); fill-opacity:0.294; stroke:none;" />
 <path d="  M 32,31  L 31,31  L 31,32  L 32,32  Z  " style="fill:rgb(255, 0, 0); fill-opacity:0.263; stroke:none;" />
 <path d="  M 36,15  L 37,15  L 37,14  L 36,14  Z  " style="fill:rgb(255, 0, 0); fill-opacity:0.263; stroke:none;" />
 <path d="  M 33,29  L 32,29  L 32,30  L 33,30  Z  " style="fill:rgb(255, 154, 154); fill-opacity:0.831; stroke:none;" />
 <path d="  M 38,24  L 38,23  L 37,23  L 37,24  Z  " style="fill:rgb(255, 154, 154); fill-opacity:0.831; stroke:none;" />
 <path d="  M 32,31  L 33,31  L 33,30  L 32,30  Z  " style="fill:rgb(255, 0, 0); fill-opacity:0.416; stroke:none;" />
 <path d="  M 35,29  L 35,30  L 36,30  L 36,29  Z  " style="fill:rgb(255, 0, 0); fill-opacity:0.416; stroke:none;" />
 <path d="  M 37,18  L 37,17  L 36,17  L 36,18  Z  " style="fill:rgb(255, 0, 0); fill-opacity:0.416; stroke:none;" />
 <path d="  M 32,31  L 32,32  L 33,32  L 33,31  Z  " style="fill:rgb(255, 0, 0); fill-opacity:0.227; stroke:none;" />
 <path d="  M 33,2  L 33,3  L 34,3  L 34,2  Z  " style="fill:rgb(255, 209, 209); fill-opacity:0.914; stroke:none;" />
 <path d="  M 37,25  L 37,26  L 38,26  L 38,25  Z  " style="fill:rgb(255, 209, 209); fill-opacity:0.914; stroke:none;" />
 <path d="  M 33,29  L 33,30  L 34,30  L 34,29  Z  " style="fill:rgb(255, 92, 92); fill-opacity:0.694; stroke:none;" />
 <path d="  M 33,30  L 33,31  L 34,31  L 34,30  Z  " style="fill:rgb(255, 0, 0); fill-opacity:0.365; stroke:none;" />
 <path d="  M 34,2  L 34,3  L 35,3  L 35,2  Z  " style="fill:rgb(255, 97, 97); fill-opacity:0.659; stroke:none;" />
 <path d="  M 34,13  L 34,14  L 35,14  L 35,13  Z  " style="fill:rgb(255, 0, 0); fill-opacity:0.698; stroke:none;" />
 <path d="  M 35,15  L 35,14  L 34,14  L 34,15  Z  " style="fill:rgb(255, 0, 0); fill-opacity:0.686; stroke:none;" />
 <path d="  M 34,30  L 34,31  L 35,31  L 35,30  Z  " style="fill:rgb(255, 0, 0); fill-opacity:0.306; stroke:none;" />
 <path d="  M 36,4  L 36,3  L 35,3  L 35,4  Z  " style="fill:rgb(255, 161, 161); fill-opacity:0.796; stroke:none;" />
 <path d="  M 35,12  L 36,12  L 36,11  L 35,11  Z  " style="fill:rgb(255, 84, 84); fill-opacity:0.765; stroke:none;" />
 <path d="  M 36,14  L 36,13  L 35,13  L 35,14  Z  " style="fill:rgb(255, 0, 0); fill-opacity:0.478; stroke:none;" />
 <path d="  M 36,15  L 35,15  L 35,16  L 36,16  Z  " style="fill:rgb(255, 0, 0); fill-opacity:0.478; stroke:none;" />
 <path d="  M 36,17  L 35,17  L 35,18  L 36,18  Z  " style="fill:rgb(255, 155, 155); fill-opacity:0.824; stroke:none;" />
 <path d="  M 36,29  L 36,28  L 35,28  L 35,29  Z  " style="fill:rgb(255, 89, 89); fill-opacity:0.722; stroke:none;" />
 <path d="  M 37,1  L 36,1  L 36,2  L 37,2  Z  " style="fill:rgb(255, 0, 0); fill-opacity:0.165; stroke:none;" />
 <path d="  M 36,5  L 37,5  L 37,4  L 36,4  Z  " style="fill:rgb(255, 97, 97); fill-opacity:0.663; stroke:none;" />
 <path d="  M 36,10  L 36,11  L 37,11  L 37,10  Z  " style="fill:rgb(255, 156, 156); fill-opacity:0.820; stroke:none;" />
 <path d="  M 36,15  L 36,16  L 37,16  L 37,15  Z  " style="fill:rgb(255, 0, 0); fill-opacity:0.278; stroke:none;" />
 <path d="  M 37,28  L 36,28  L 36,29  L 37,29  Z  " style="fill:rgb(255, 0, 0); fill-opacity:0.494; stroke:none;" />
 <path d="  M 37,31  L 36,31  L 36,32  L 37,32  Z  " style="fill:rgb(255, 0, 0); fill-opacity:0.078; stroke:none;" />
 <path d="  M 38,4  L 38,3  L 37,3  L 37,4  Z  " style="fill:rgb(255, 0, 0); fill-opacity:0.251; stroke:none;" />
 <path d="  M 37,7  L 37,8  L 38,8  L 38,7  Z  " style="fill:rgb(255, 94, 94); fill-opacity:0.682; stroke:none;" />
 <path d="  M 37,8  L 37,9  L 38,9  L 38,8  Z  " style="fill:rgb(255, 162, 162); fill-opacity:0.788; stroke:none;" />
 <path d="  M 37,10  L 38,10  L 38,9  L 37,9  Z  " style="fill:rgb(255, 216, 216); fill-opacity:0.882; stroke:none;" />
 <path d="  M 38,11  L 38,10  L 37,10  L 37,11  Z  " style="fill:rgb(255, 177, 177); fill-opacity:0.722; stroke:none;" />
 <path d="  M 37,15  L 37,16  L 38,16  L 38,15  Z  " style="fill:rgb(255, 0, 0); fill-opacity:0.133; stroke:none;" />
 <path d="  M 38,16  L 37,16  L 37,17  L 38,17  Z  " style="fill:rgb(255, 0, 0); fill-opacity:0.173; stroke:none;" />
 <path d="  M 38,20  L 38,19  L 37,19  L 37,20  Z  " style="fill:rgb(255, 0, 0); fill-opacity:0.376; stroke:none;" />
 <path d="  M 38,25  L 38,24  L 37,24  L 37,25  Z  " style="fill:rgb(255, 152, 152); fill-opacity:0.843; stroke:none;" />
 <path d="  M 38,27  L 38,26  L 37,26  L 37,27  Z  " style="fill:rgb(255, 213, 213); fill-opacity:0.898; stroke:none;" />
</svg>
