<?xml version="1.0" encoding="UTF-8" standalone="no"?>
<!DOCTYPE svg PUBLIC "-//W3C//DTD SVG 1.1//EN" 
  "http://www.w3.org/Graphics/SVG/1.1/DTD/svg11.dtd">
<svg width="12" height="32"
	 xmlns="http://www.w3.org/2000/svg" version="1.1">
 <path d="  M 1,3  L 0,3  L 0,4  L 1,4  Z  " style="fill:rgb(255, 0, 0); fill-opacity:0.004; stroke:none;" />
 <path d="  M 1,2  L 1,3  L 3,3  L 3,2  Z  " style="fill:rgb(255, 0, 0); fill-opacity:0.004; stroke:none;" />
 <path d="  M 9,2  L 9,3  L 11,3  L 11,2  Z  " style="fill:rgb(255, 0, 0); fill-opacity:0.004; stroke:none;" />
 <path d="  M 1,5  L 1,4  L 0,4  L 0,5  Z  " style="fill:rgb(255, 0, 0); fill-opacity:0.020; stroke:none;" />
 <path d="  M 1,6  L 1,5  L 0,5  L 0,6  Z  " style="fill:rgb(255, 0, 0); fill-opacity:0.039; stroke:none;" />
 <path d="  M 0,6  L 0,7  L 1,7  L 1,6  Z  " style="fill:rgb(255, 0, 0); fill-opacity:0.071; stroke:none;" />
 <path d="  M 5,3  L 5,4  L 6,4  L 6,3  Z  " style="fill:rgb(255, 0, 0); fill-opacity:0.071; stroke:none;" />
 <path d="  M 8,3  L 7,3  L 7,4  L 8,4  Z  " style="fill:rgb(255, 0, 0); fill-opacity:0.071; stroke:none;" />
 <path d="  M 11,5  L 11,4  L 10,4  L 10,5  Z  " style="fill:rgb(255, 0, 0); fill-opacity:0.071; stroke:none;" />
 <path d="  M 1,7  L 0,7  L 0,8  L 1,8  Z  " style="fill:rgb(255, 0, 0); fill-opacity:0.114; stroke:none;" />
 <path d="  M 4,5  L 4,4  L 3,4  L 3,5  Z  " style="fill:rgb(255, 0, 0); fill-opacity:0.114; stroke:none;" />
 <path d="  M 9,4  L 9,5  L 10,5  L 10,4  Z  " style="fill:rgb(255, 0, 0); fill-opacity:0.114; stroke:none;" />
 <path d="  M 0,8  L 0,9  L 1,9  L 1,8  Z  " style="fill:rgb(255, 0, 0); fill-opacity:0.161; stroke:none;" />
 <path d="  M 0,10  L 1,10  L 1,9  L 0,9  Z  " style="fill:rgb(255, 0, 0); fill-opacity:0.212; stroke:none;" />
 <path d="  M 10,7  L 11,7  L 11,6  L 10,6  Z  " style="fill:rgb(255, 0, 0); fill-opacity:0.212; stroke:none;" />
 <path d="  M 0,11  L 1,11  L 1,10  L 0,10  Z  " style="fill:rgb(255, 0, 0); fill-opacity:0.255; stroke:none;" />
 <path d="  M 0,25  L 1,25  L 1,24  L 0,24  Z  " style="fill:rgb(255, 0, 0); fill-opacity:0.255; stroke:none;" />
 <path d="  M 1,30  L 2,30  L 2,29  L 1,29  Z  " style="fill:rgb(255, 0, 0); fill-opacity:0.255; stroke:none;" />
 <path d="  M 0,11  L 0,12  L 1,12  L 1,11  Z  " style="fill:rgb(255, 0, 0); fill-opacity:0.294; stroke:none;" />
 <path d="  M 0,17  L 1,17  L 1,16  L 0,16  Z  " style="fill:rgb(255, 0, 0); fill-opacity:0.294; stroke:none;" />
 <path d="  M 4,5  L 4,6  L 5,6  L 5,5  Z  " style="fill:rgb(255, 0, 0); fill-opacity:0.294; stroke:none;" />
 <path d="  M 1,13  L 1,12  L 0,12  L 0,13  Z  " style="fill:rgb(255, 0, 0); fill-opacity:0.314; stroke:none;" />
 <path d="  M 1,15  L 1,14  L 0,14  L 0,15  Z  " style="fill:rgb(255, 0, 0); fill-opacity:0.314; stroke:none;" />
 <path d="  M 1,14  L 1,13  L 0,13  L 0,14  Z  " style="fill:rgb(255, 0, 0); fill-opacity:0.322; stroke:none;" />
 <path d="  M 10,7  L 10,8  L 11,8  L 11,7  Z  " style="fill:rgb(255, 0, 0); fill-opacity:0.322; stroke:none;" />
 <path d="  M 1,15  L 0,15  L 0,16  L 1,16  Z  " style="fill:rgb(255, 0, 0); fill-opacity:0.306; stroke:none;" />
 <path d="  M 1,17  L 0,17  L 0,18  L 1,18  Z  " style="fill:rgb(255, 0, 0); fill-opacity:0.286; stroke:none;" />
 <path d="  M 0,21  L 1,21  L 1,18  L 0,18  Z  " style="fill:rgb(255, 0, 0); fill-opacity:0.282; stroke:none;" />
 <path d="  M 2,30  L 2,31  L 3,31  L 3,30  Z  " style="fill:rgb(255, 0, 0); fill-opacity:0.282; stroke:none;" />
 <path d="  M 1,22  L 1,21  L 0,21  L 0,22  Z  " style="fill:rgb(255, 0, 0); fill-opacity:0.275; stroke:none;" />
 <path d="  M 1,22  L 0,22  L 0,23  L 1,23  Z  " style="fill:rgb(255, 0, 0); fill-opacity:0.267; stroke:none;" />
 <path d="  M 3,32  L 4,32  L 4,31  L 3,31  Z  " style="fill:rgb(255, 0, 0); fill-opacity:0.267; stroke:none;" />
 <path d="  M 0,23  L 0,24  L 1,24  L 1,23  Z  " style="fill:rgb(255, 0, 0); fill-opacity:0.263; stroke:none;" />
 <path d="  M 0,26  L 1,26  L 1,25  L 0,25  Z  " style="fill:rgb(255, 0, 0); fill-opacity:0.243; stroke:none;" />
 <path d="  M 2,6  L 2,7  L 3,7  L 3,6  Z  " style="fill:rgb(255, 0, 0); fill-opacity:0.243; stroke:none;" />
 <path d="  M 0,27  L 1,27  L 1,26  L 0,26  Z  " style="fill:rgb(255, 0, 0); fill-opacity:0.235; stroke:none;" />
 <path d="  M 0,28  L 1,28  L 1,27  L 0,27  Z  " style="fill:rgb(255, 0, 0); fill-opacity:0.216; stroke:none;" />
 <path d="  M 0,29  L 1,29  L 1,28  L 0,28  Z  " style="fill:rgb(255, 0, 0); fill-opacity:0.184; stroke:none;" />
 <path d="  M 1,29  L 0,29  L 0,30  L 1,30  Z  " style="fill:rgb(255, 0, 0); fill-opacity:0.141; stroke:none;" />
 <path d="  M 1,31  L 1,30  L 0,30  L 0,31  Z  " style="fill:rgb(255, 0, 0); fill-opacity:0.098; stroke:none;" />
 <path d="  M 0,32  L 1,32  L 1,31  L 0,31  Z  " style="fill:rgb(255, 0, 0); fill-opacity:0.055; stroke:none;" />
 <path d="  M 2,4  L 2,3  L 1,3  L 1,4  Z  " style="fill:rgb(255, 0, 0); fill-opacity:0.016; stroke:none;" />
 <path d="  M 12,4  L 12,3  L 11,3  L 11,4  Z  " style="fill:rgb(255, 0, 0); fill-opacity:0.016; stroke:none;" />
 <path d="  M 1,4  L 1,5  L 2,5  L 2,4  Z  " style="fill:rgb(255, 0, 0); fill-opacity:0.043; stroke:none;" />
 <path d="  M 3,3  L 3,4  L 4,4  L 4,3  Z  " style="fill:rgb(255, 0, 0); fill-opacity:0.043; stroke:none;" />
 <path d="  M 9,4  L 10,4  L 10,3  L 9,3  Z  " style="fill:rgb(255, 0, 0); fill-opacity:0.043; stroke:none;" />
 <path d="  M 11,4  L 11,5  L 12,5  L 12,4  Z  " style="fill:rgb(255, 0, 0); fill-opacity:0.043; stroke:none;" />
 <path d="  M 1,6  L 2,6  L 2,5  L 1,5  Z  " style="fill:rgb(255, 0, 0); fill-opacity:0.086; stroke:none;" />
 <path d="  M 2,7  L 2,6  L 1,6  L 1,7  Z  " style="fill:rgb(255, 0, 0); fill-opacity:0.145; stroke:none;" />
 <path d="  M 3,6  L 3,5  L 2,5  L 2,6  Z  " style="fill:rgb(255, 0, 0); fill-opacity:0.145; stroke:none;" />
 <path d="  M 2,7  L 1,7  L 1,8  L 2,8  Z  " style="fill:rgb(255, 0, 0); fill-opacity:0.224; stroke:none;" />
 <path d="  M 2,9  L 2,8  L 1,8  L 1,9  Z  " style="fill:rgb(255, 0, 0); fill-opacity:0.302; stroke:none;" />
 <path d="  M 1,10  L 2,10  L 2,9  L 1,9  Z  " style="fill:rgb(255, 0, 0); fill-opacity:0.380; stroke:none;" />
 <path d="  M 3,29  L 2,29  L 2,30  L 3,30  Z  " style="fill:rgb(255, 0, 0); fill-opacity:0.380; stroke:none;" />
 <path d="  M 1,11  L 2,11  L 2,10  L 1,10  Z  " style="fill:rgb(255, 0, 0); fill-opacity:0.447; stroke:none;" />
 <path d="  M 1,11  L 1,12  L 2,12  L 2,11  Z  " style="fill:rgb(255, 0, 0); fill-opacity:0.498; stroke:none;" />
 <path d="  M 1,13  L 2,13  L 2,12  L 1,12  Z  " style="fill:rgb(255, 168, 168); fill-opacity:0.761; stroke:none;" />
 <path d="  M 2,14  L 1,14  L 1,15  L 2,15  Z  " style="fill:rgb(255, 168, 168); fill-opacity:0.761; stroke:none;" />
 <path d="  M 1,13  L 1,14  L 2,14  L 2,13  Z  " style="fill:rgb(255, 255, 255); fill-opacity:1.000; stroke:none;" />
 <path d="  M 12,12  L 11,12  L 11,11  L 9,11  L 9,8  L 10,8  L 10,7  L 4,7  L 4,8  L 3,8  L 3,11  L 2,11  L 2,12  L 3,12  L 3,24  L 5,24  L 5,25  L 10,25  L 10,24  L 11,24  L 11,25  L 12,25  Z  " style="fill:rgb(255, 255, 255); fill-opacity:1.000; stroke:none;" />
 <path d="  M 11,30  L 11,29  L 12,29  L 12,26  L 11,26  L 11,27  L 4,27  L 4,26  L 3,26  L 3,30  L 7,30  L 7,31  L 8,31  L 8,30  Z  " style="fill:rgb(255, 255, 255); fill-opacity:1.000; stroke:none;" />
 <path d="  M 1,16  L 2,16  L 2,15  L 1,15  Z  " style="fill:rgb(255, 169, 169); fill-opacity:0.757; stroke:none;" />
 <path d="  M 1,16  L 1,17  L 2,17  L 2,16  Z  " style="fill:rgb(255, 171, 171); fill-opacity:0.749; stroke:none;" />
 <path d="  M 2,17  L 1,17  L 1,18  L 2,18  Z  " style="fill:rgb(255, 172, 172); fill-opacity:0.745; stroke:none;" />
 <path d="  M 2,18  L 1,18  L 1,21  L 2,21  Z  " style="fill:rgb(255, 173, 173); fill-opacity:0.741; stroke:none;" />
 <path d="  M 1,21  L 1,22  L 2,22  L 2,21  Z  " style="fill:rgb(255, 175, 175); fill-opacity:0.733; stroke:none;" />
 <path d="  M 2,23  L 2,22  L 1,22  L 1,23  Z  " style="fill:rgb(255, 176, 176); fill-opacity:0.725; stroke:none;" />
 <path d="  M 2,24  L 2,23  L 1,23  L 1,24  Z  " style="fill:rgb(255, 178, 178); fill-opacity:0.718; stroke:none;" />
 <path d="  M 2,24  L 1,24  L 1,25  L 2,25  Z  " style="fill:rgb(255, 180, 180); fill-opacity:0.710; stroke:none;" />
 <path d="  M 2,25  L 1,25  L 1,26  L 2,26  Z  " style="fill:rgb(255, 182, 182); fill-opacity:0.702; stroke:none;" />
 <path d="  M 1,26  L 1,27  L 2,27  L 2,26  Z  " style="fill:rgb(255, 184, 184); fill-opacity:0.694; stroke:none;" />
 <path d="  M 1,28  L 2,28  L 2,27  L 1,27  Z  " style="fill:rgb(255, 228, 228); fill-opacity:0.839; stroke:none;" />
 <path d="  M 1,28  L 1,29  L 2,29  L 2,28  Z  " style="fill:rgb(255, 131, 131); fill-opacity:0.490; stroke:none;" />
 <path d="  M 2,31  L 2,30  L 1,30  L 1,31  Z  " style="fill:rgb(255, 0, 0); fill-opacity:0.180; stroke:none;" />
 <path d="  M 2,31  L 1,31  L 1,32  L 2,32  Z  " style="fill:rgb(255, 0, 0); fill-opacity:0.110; stroke:none;" />
 <path d="  M 2,3  L 2,4  L 3,4  L 3,3  Z  " style="fill:rgb(255, 0, 0); fill-opacity:0.027; stroke:none;" />
 <path d="  M 3,5  L 3,4  L 2,4  L 2,5  Z  " style="fill:rgb(255, 0, 0); fill-opacity:0.075; stroke:none;" />
 <path d="  M 6,4  L 7,4  L 7,3  L 6,3  Z  " style="fill:rgb(255, 0, 0); fill-opacity:0.075; stroke:none;" />
 <path d="  M 12,5  L 11,5  L 11,6  L 12,6  Z  " style="fill:rgb(255, 0, 0); fill-opacity:0.075; stroke:none;" />
 <path d="  M 3,7  L 2,7  L 2,8  L 3,8  Z  " style="fill:rgb(255, 0, 0); fill-opacity:0.369; stroke:none;" />
 <path d="  M 2,8  L 2,9  L 3,9  L 3,8  Z  " style="fill:rgb(255, 0, 0); fill-opacity:0.486; stroke:none;" />
 <path d="  M 8,32  L 8,31  L 7,31  L 7,32  Z  " style="fill:rgb(255, 0, 0); fill-opacity:0.486; stroke:none;" />
 <path d="  M 3,10  L 3,9  L 2,9  L 2,10  Z  " style="fill:rgb(255, 92, 92); fill-opacity:0.698; stroke:none;" />
 <path d="  M 3,10  L 2,10  L 2,11  L 3,11  Z  " style="fill:rgb(255, 153, 153); fill-opacity:0.839; stroke:none;" />
 <path d="  M 3,12  L 2,12  L 2,13  L 3,13  Z  " style="fill:rgb(255, 150, 150); fill-opacity:0.855; stroke:none;" />
 <path d="  M 5,26  L 5,27  L 9,27  L 9,26  Z  " style="fill:rgb(255, 150, 150); fill-opacity:0.855; stroke:none;" />
 <path d="  M 9,11  L 10,11  L 10,10  L 9,10  Z  " style="fill:rgb(255, 150, 150); fill-opacity:0.855; stroke:none;" />
 <path d="  M 2,16  L 3,16  L 3,13  L 2,13  Z  " style="fill:rgb(255, 0, 0); fill-opacity:0.710; stroke:none;" />
 <path d="  M 11,26  L 11,25  L 4,25  L 4,26  Z  " style="fill:rgb(255, 0, 0); fill-opacity:0.710; stroke:none;" />
 <path d="  M 2,17  L 3,17  L 3,16  L 2,16  Z  " style="fill:rgb(255, 0, 0); fill-opacity:0.694; stroke:none;" />
 <path d="  M 3,17  L 2,17  L 2,18  L 3,18  Z  " style="fill:rgb(255, 0, 0); fill-opacity:0.686; stroke:none;" />
 <path d="  M 3,20  L 3,18  L 2,18  L 2,20  Z  " style="fill:rgb(255, 0, 0); fill-opacity:0.678; stroke:none;" />
 <path d="  M 2,21  L 3,21  L 3,20  L 2,20  Z  " style="fill:rgb(255, 0, 0); fill-opacity:0.675; stroke:none;" />
 <path d="  M 10,10  L 10,11  L 11,11  L 11,10  Z  " style="fill:rgb(255, 0, 0); fill-opacity:0.675; stroke:none;" />
 <path d="  M 3,21  L 2,21  L 2,22  L 3,22  Z  " style="fill:rgb(255, 0, 0); fill-opacity:0.651; stroke:none;" />
 <path d="  M 2,23  L 3,23  L 3,22  L 2,22  Z  " style="fill:rgb(255, 0, 0); fill-opacity:0.620; stroke:none;" />
 <path d="  M 2,23  L 2,24  L 3,24  L 3,23  Z  " style="fill:rgb(255, 0, 0); fill-opacity:0.592; stroke:none;" />
 <path d="  M 3,25  L 3,24  L 2,24  L 2,25  Z  " style="fill:rgb(255, 0, 0); fill-opacity:0.565; stroke:none;" />
 <path d="  M 3,25  L 2,25  L 2,26  L 3,26  Z  " style="fill:rgb(255, 0, 0); fill-opacity:0.541; stroke:none;" />
 <path d="  M 2,26  L 2,27  L 3,27  L 3,26  Z  " style="fill:rgb(255, 0, 0); fill-opacity:0.533; stroke:none;" />
 <path d="  M 3,28  L 3,27  L 2,27  L 2,28  Z  " style="fill:rgb(255, 0, 0); fill-opacity:0.514; stroke:none;" />
 <path d="  M 2,29  L 3,29  L 3,28  L 2,28  Z  " style="fill:rgb(255, 0, 0); fill-opacity:0.455; stroke:none;" />
 <path d="  M 2,32  L 3,32  L 3,31  L 2,31  Z  " style="fill:rgb(255, 0, 0); fill-opacity:0.176; stroke:none;" />
 <path d="  M 5,4  L 5,5  L 6,5  L 6,4  Z  " style="fill:rgb(255, 0, 0); fill-opacity:0.176; stroke:none;" />
 <path d="  M 7,5  L 8,5  L 8,4  L 7,4  Z  " style="fill:rgb(255, 0, 0); fill-opacity:0.176; stroke:none;" />
 <path d="  M 3,2  L 3,3  L 4,3  L 4,2  Z  " style="fill:rgb(255, 0, 0); fill-opacity:0.008; stroke:none;" />
 <path d="  M 9,2  L 8,2  L 8,3  L 9,3  Z  " style="fill:rgb(255, 0, 0); fill-opacity:0.008; stroke:none;" />
 <path d="  M 3,6  L 4,6  L 4,5  L 3,5  Z  " style="fill:rgb(255, 0, 0); fill-opacity:0.220; stroke:none;" />
 <path d="  M 3,7  L 4,7  L 4,6  L 3,6  Z  " style="fill:rgb(255, 0, 0); fill-opacity:0.365; stroke:none;" />
 <path d="  M 3,8  L 4,8  L 4,7  L 3,7  Z  " style="fill:rgb(255, 167, 167); fill-opacity:0.769; stroke:none;" />
 <path d="  M 4,31  L 5,31  L 5,30  L 4,30  Z  " style="fill:rgb(255, 167, 167); fill-opacity:0.769; stroke:none;" />
 <path d="  M 5,25  L 5,24  L 3,24  L 3,25  Z  " style="fill:rgb(255, 206, 206); fill-opacity:0.925; stroke:none;" />
 <path d="  M 5,26  L 4,26  L 4,27  L 5,27  Z  " style="fill:rgb(255, 206, 206); fill-opacity:0.925; stroke:none;" />
 <path d="  M 9,27  L 11,27  L 11,26  L 9,26  Z  " style="fill:rgb(255, 206, 206); fill-opacity:0.925; stroke:none;" />
 <path d="  M 11,25  L 11,24  L 10,24  L 10,25  Z  " style="fill:rgb(255, 206, 206); fill-opacity:0.925; stroke:none;" />
 <path d="  M 4,25  L 3,25  L 3,26  L 4,26  Z  " style="fill:rgb(255, 82, 82); fill-opacity:0.784; stroke:none;" />
 <path d="  M 9,10  L 10,10  L 10,9  L 9,9  Z  " style="fill:rgb(255, 82, 82); fill-opacity:0.784; stroke:none;" />
 <path d="  M 4,30  L 3,30  L 3,31  L 4,31  Z  " style="fill:rgb(255, 0, 0); fill-opacity:0.416; stroke:none;" />
 <path d="  M 6,31  L 5,31  L 5,32  L 6,32  Z  " style="fill:rgb(255, 0, 0); fill-opacity:0.416; stroke:none;" />
 <path d="  M 8,3  L 8,2  L 4,2  L 4,3  Z  " style="fill:rgb(255, 0, 0); fill-opacity:0.012; stroke:none;" />
 <path d="  M 5,3  L 4,3  L 4,4  L 5,4  Z  " style="fill:rgb(255, 0, 0); fill-opacity:0.063; stroke:none;" />
 <path d="  M 8,3  L 8,4  L 9,4  L 9,3  Z  " style="fill:rgb(255, 0, 0); fill-opacity:0.063; stroke:none;" />
 <path d="  M 4,4  L 4,5  L 5,5  L 5,4  Z  " style="fill:rgb(255, 0, 0); fill-opacity:0.153; stroke:none;" />
 <path d="  M 5,7  L 5,6  L 4,6  L 4,7  Z  " style="fill:rgb(255, 174, 174); fill-opacity:0.737; stroke:none;" />
 <path d="  M 5,32  L 5,31  L 4,31  L 4,32  Z  " style="fill:rgb(255, 0, 0); fill-opacity:0.349; stroke:none;" />
 <path d="  M 7,6  L 7,5  L 6,5  L 6,6  Z  " style="fill:rgb(255, 0, 0); fill-opacity:0.349; stroke:none;" />
 <path d="  M 5,5  L 5,6  L 6,6  L 6,5  Z  " style="fill:rgb(255, 0, 0); fill-opacity:0.337; stroke:none;" />
 <path d="  M 6,7  L 6,6  L 5,6  L 5,7  Z  " style="fill:rgb(255, 98, 98); fill-opacity:0.655; stroke:none;" />
 <path d="  M 6,30  L 5,30  L 5,31  L 6,31  Z  " style="fill:rgb(255, 157, 157); fill-opacity:0.816; stroke:none;" />
 <path d="  M 10,8  L 9,8  L 9,9  L 10,9  Z  " style="fill:rgb(255, 157, 157); fill-opacity:0.816; stroke:none;" />
 <path d="  M 6,4  L 6,5  L 7,5  L 7,4  Z  " style="fill:rgb(255, 0, 0); fill-opacity:0.188; stroke:none;" />
 <path d="  M 7,6  L 6,6  L 6,7  L 7,7  Z  " style="fill:rgb(255, 95, 95); fill-opacity:0.671; stroke:none;" />
 <path d="  M 7,31  L 7,30  L 6,30  L 6,31  Z  " style="fill:rgb(255, 207, 207); fill-opacity:0.922; stroke:none;" />
 <path d="  M 9,30  L 8,30  L 8,31  L 9,31  Z  " style="fill:rgb(255, 207, 207); fill-opacity:0.922; stroke:none;" />
 <path d="  M 6,31  L 6,32  L 7,32  L 7,31  Z  " style="fill:rgb(255, 0, 0); fill-opacity:0.467; stroke:none;" />
 <path d="  M 8,5  L 7,5  L 7,6  L 8,6  Z  " style="fill:rgb(255, 0, 0); fill-opacity:0.329; stroke:none;" />
 <path d="  M 10,7  L 10,6  L 9,6  L 9,7  Z  " style="fill:rgb(255, 0, 0); fill-opacity:0.329; stroke:none;" />
 <path d="  M 7,7  L 8,7  L 8,6  L 7,6  Z  " style="fill:rgb(255, 100, 100); fill-opacity:0.643; stroke:none;" />
 <path d="  M 8,5  L 9,5  L 9,4  L 8,4  Z  " style="fill:rgb(255, 0, 0); fill-opacity:0.149; stroke:none;" />
 <path d="  M 8,5  L 8,6  L 9,6  L 9,5  Z  " style="fill:rgb(255, 0, 0); fill-opacity:0.278; stroke:none;" />
 <path d="  M 9,7  L 9,6  L 8,6  L 8,7  Z  " style="fill:rgb(255, 110, 110); fill-opacity:0.584; stroke:none;" />
 <path d="  M 8,32  L 9,32  L 9,31  L 8,31  Z  " style="fill:rgb(255, 0, 0); fill-opacity:0.459; stroke:none;" />
 <path d="  M 9,6  L 10,6  L 10,5  L 9,5  Z  " style="fill:rgb(255, 0, 0); fill-opacity:0.208; stroke:none;" />
 <path d="  M 10,30  L 9,30  L 9,31  L 10,31  Z  " style="fill:rgb(255, 211, 211); fill-opacity:0.906; stroke:none;" />
 <path d="  M 9,32  L 10,32  L 10,31  L 9,31  Z  " style="fill:rgb(255, 0, 0); fill-opacity:0.408; stroke:none;" />
 <path d="  M 11,3  L 10,3  L 10,4  L 11,4  Z  " style="fill:rgb(255, 0, 0); fill-opacity:0.031; stroke:none;" />
 <path d="  M 11,5  L 10,5  L 10,6  L 11,6  Z  " style="fill:rgb(255, 0, 0); fill-opacity:0.133; stroke:none;" />
 <path d="  M 10,9  L 11,9  L 11,8  L 10,8  Z  " style="fill:rgb(255, 0, 0); fill-opacity:0.435; stroke:none;" />
 <path d="  M 10,9  L 10,10  L 11,10  L 11,9  Z  " style="fill:rgb(255, 0, 0); fill-opacity:0.553; stroke:none;" />
 <path d="  M 10,31  L 11,31  L 11,30  L 10,30  Z  " style="fill:rgb(255, 101, 101); fill-opacity:0.635; stroke:none;" />
 <path d="  M 10,31  L 10,32  L 11,32  L 11,31  Z  " style="fill:rgb(255, 0, 0); fill-opacity:0.333; stroke:none;" />
 <path d="  M 12,6  L 11,6  L 11,7  L 12,7  Z  " style="fill:rgb(255, 0, 0); fill-opacity:0.122; stroke:none;" />
 <path d="  M 11,7  L 11,8  L 12,8  L 12,7  Z  " style="fill:rgb(255, 0, 0); fill-opacity:0.192; stroke:none;" />
 <path d="  M 12,9  L 12,8  L 11,8  L 11,9  Z  " style="fill:rgb(255, 0, 0); fill-opacity:0.271; stroke:none;" />
 <path d="  M 11,9  L 11,10  L 12,10  L 12,9  Z  " style="fill:rgb(255, 0, 0); fill-opacity:0.361; stroke:none;" />
 <path d="  M 12,10  L 11,10  L 11,11  L 12,11  Z  " style="fill:rgb(255, 0, 0); fill-opacity:0.475; stroke:none;" />
 <path d="  M 12,11  L 11,11  L 11,12  L 12,12  Z  " style="fill:rgb(255, 213, 213); fill-opacity:0.898; stroke:none;" />
 <path d="  M 12,25  L 11,25  L 11,26  L 12,26  Z  " style="fill:rgb(255, 153, 153); fill-opacity:0.835; stroke:none;" />
 <path d="  M 11,30  L 12,30  L 12,29  L 11,29  Z  " style="fill:rgb(255, 218, 218); fill-opacity:0.875; stroke:none;" />
 <path d="  M 12,31  L 12,30  L 11,30  L 11,31  Z  " style="fill:rgb(255, 0, 0); fill-opacity:0.388; stroke:none;" />
 <path d="  M 11,32  L 12,32  L 12,31  L 11,31  Z  " style="fill:rgb(255, 0, 0); fill-opacity:0.247; stroke:none;" />
</svg>
